<?xml version="1.0" standalone="no"?>
<!DOCTYPE svg PUBLIC "-//W3C//DTD SVG 1.1//EN" "http://www.w3.org/Graphics/SVG/1.1/DTD/svg11.dtd" >
<svg xmlns="http://www.w3.org/2000/svg" xmlns:xlink="http://www.w3.org/1999/xlink" version="1.1">
<metadata>
Created by FontForge 20160407 at Fri Nov 25 08:13:58 2016
 By Jimmy Warting
Copyright (c) 2015 Monotype Imaging Inc. All rights reserved.
</metadata>
<defs>
<font id="CNNSansDisplayW04-Light" horiz-adv-x="600" >
  <font-face 
    font-family="CNN Sans Display W04 Light"
    font-weight="300"
    font-stretch="normal"
    units-per-em="1000"
    panose-1="2 11 3 4 2 2 2 2 2 4"
    ascent="800"
    descent="-200"
    x-height="548"
    cap-height="713"
    bbox="-320 -365 1599 967"
    underline-thickness="50"
    underline-position="-125"
    unicode-range="U+000D-FEFF"
  />
<missing-glyph horiz-adv-x="498" 
d="M497 0h-496v718h496v-718zM49 667v-617h399v617h-399zM337 573q35 -37 35 -95q0 -29 -14 -61q-11 -25 -48 -60q-35 -34 -41 -51q-6 -19 -6 -72h-44l-2 19q0 51 12 79q6 12 20.5 29.5t32.5 36.5q25 26 32 41q8 18 8 35q0 37 -20 60q-24 25 -53 25q-32 0 -53 -23t-27 -72
l-48 8q6 71 43 104q36 33 88 33t85 -36zM270 117h-54v67h54v-67z" />
    <glyph glyph-name="f_f.liga" unicode="ff" horiz-adv-x="573" 
d="M466 641.5q-23 -22.5 -23 -75.5v-18h130v-59h-41h-89v-489h-70v489h-216v-489h-70v489h-87v59h87v22q0 75 42.5 114.5t118.5 39.5q33 0 53 -3v-57h-49q-49 0 -72 -22.5t-23 -75.5v-18h129h87v22q0 75 42.5 114.5t119.5 39.5q32 0 52 -3v-57h-49q-49 0 -72 -22.5z" />
    <glyph glyph-name="f_f_i.liga" unicode="ffi" horiz-adv-x="816" 
d="M747 734v-100h-70v100h70zM747 0h-70v489h-234v-489h-70v489h-216v-489h-70v489h-87v59h87v22q0 75 42.5 114.5t118.5 39.5q33 0 53 -3v-57h-49q-49 0 -72 -22.5t-23 -75.5v-18h129h87v22q0 75 42.5 114.5t119.5 39.5q32 0 52 -3v-57h-49q-49 0 -72 -22.5t-23 -75.5v-18
h304v-548z" />
    <glyph glyph-name="f_f_l.liga" unicode="ffl" horiz-adv-x="782" 
d="M415.5 684.5q42.5 39.5 119.5 39.5q32 0 52 -3v-57h-49q-49 0 -72 -22.5t-23 -75.5v-18h130v-59h-127h-3v-489h-70v489h-216v-489h-70v489h-87v59h87v22q0 75 42.5 114.5t118.5 39.5q33 0 53 -3v-57h-49q-49 0 -72 -22.5t-23 -75.5v-18h129h87v22q0 75 42.5 114.5z
M712 713v-713h-70v713h70z" />
    <glyph glyph-name="uniFB01" unicode="fi" horiz-adv-x="530" 
d="M461 734v-100h-70v100h70zM461 0h-70v489h-234v-489h-70v489h-87v59h87v22q0 75 42.5 114.5t118.5 39.5q33 0 53 -3v-57h-49q-49 0 -72 -22.5t-23 -75.5v-18h304v-548z" />
    <glyph glyph-name="uniFB02" unicode="fl" horiz-adv-x="495" 
d="M180 641.5q-23 -22.5 -23 -75.5v-18h129v-59h-129v-489h-70v489h-87v59h87v22q0 75 42.5 114.5t118.5 39.5q33 0 53 -3v-57h-49q-49 0 -72 -22.5zM355 713h70v-713h-70v713z" />
    <glyph glyph-name=".notdef" horiz-adv-x="498" 
d="M497 0h-496v718h496v-718zM49 667v-617h399v617h-399zM337 573q35 -37 35 -95q0 -29 -14 -61q-11 -25 -48 -60q-35 -34 -41 -51q-6 -19 -6 -72h-44l-2 19q0 51 12 79q6 12 20.5 29.5t32.5 36.5q25 26 32 41q8 18 8 35q0 37 -20 60q-24 25 -53 25q-32 0 -53 -23t-27 -72
l-48 8q6 71 43 104q36 33 88 33t85 -36zM270 117h-54v67h54v-67z" />
    <glyph glyph-name="glyph1" horiz-adv-x="0" 
 />
    <glyph glyph-name="uni000D" unicode="&#xd;" horiz-adv-x="267" 
 />
    <glyph glyph-name="space" unicode=" " horiz-adv-x="267" 
 />
    <glyph glyph-name="exclam" unicode="!" horiz-adv-x="250" 
d="M87 521v193h76v-193l-9 -340h-58zM80 92h90v-92h-90v92z" />
    <glyph glyph-name="quotedbl" unicode="&#x22;" horiz-adv-x="390" 
d="M79 713h79l-13 -251h-52zM231 713h79l-13 -251h-52z" />
    <glyph glyph-name="numbersign" unicode="#" 
d="M467 475l-47 -237h110v-54h-120l-36 -184h-57l35 184h-172l-36 -184h-57l36 184h-103v54h113l47 237h-110v54h120l36 184h58l-36 -184h172l36 184h57l-36 -184h103v-54h-113zM409 475h-172l-46 -237h172z" />
    <glyph glyph-name="dollar" unicode="$" 
d="M514 78.5q-25 -41.5 -72.5 -65.5t-112.5 -27v-108h-54v108q-103 8 -156.5 64.5t-53.5 155.5h72q0 -161 175 -161q78 0 116.5 35.5t38.5 93.5q0 55 -29 85t-90 49l-106 33q-65 20 -103.5 46.5t-56.5 64t-18 89.5q0 50 26 91.5t74 67t111 28.5v110h54v-111
q91 -8 141.5 -57.5t53.5 -134.5h-72q-4 63 -43 98t-119 35q-52 0 -86.5 -17t-51 -45.5t-16.5 -63.5q0 -38 12.5 -62t39.5 -41t75 -32l111 -35q59 -18 95 -43t53 -62.5t17 -91.5q0 -55 -25 -96.5z" />
    <glyph glyph-name="percent" unicode="%" horiz-adv-x="892" 
d="M304 692q38 -22 58.5 -64.5t20.5 -101.5t-20.5 -101.5t-58.5 -64t-88 -21.5t-88 21.5t-58.5 64t-20.5 101.5t20.5 101.5t58.5 64.5t88 22t88 -22zM272 0h-67l422 713h67zM138 628q-29 -35 -29 -102t29 -101.5t78 -34.5t78 34.5t29 101.5t-29 102t-78 35t-78 -35zM764 338
q38 -22 58.5 -64.5t20.5 -101.5t-20.5 -101.5t-58.5 -64t-88 -21.5t-88 21.5t-58.5 64t-20.5 101.5t20.5 101.5t58.5 64.5t88 22t88 -22zM598 274q-29 -35 -29 -102t29 -101.5t78 -34.5t78 34.5t29 101.5t-29 102t-78 35t-78 -35z" />
    <glyph glyph-name="ampersand" unicode="&#x26;" horiz-adv-x="609" 
d="M522 0l-64 75q-38 -46 -89.5 -68t-110.5 -22q-66 0 -116.5 24t-78.5 68.5t-28 102.5q0 52 20.5 92.5t51.5 69t74 56.5l-13 15q-5 6 -31 36.5t-38.5 61.5t-12.5 65q0 48 22.5 82.5t59.5 52t81 17.5t80 -17.5t56.5 -51.5t20.5 -82q0 -62 -35 -106.5t-97 -84.5l176 -206
q26 69 26 177h64q0 -138 -46 -228l110 -129h-82zM166.5 525q11.5 -25 22.5 -39t34 -40l11 -13q52 34 79 66.5t27 77.5q0 28 -12 49t-32.5 32t-46.5 11q-27 0 -48 -11t-33.5 -32t-12.5 -49q0 -27 11.5 -52zM350.5 62q40.5 18 68.5 58l-199 232q-55 -36 -85 -74t-30 -93
q0 -43 20 -75t55.5 -49t82.5 -17t87.5 18z" />
    <glyph glyph-name="quotesingle" unicode="'" horiz-adv-x="238" 
d="M79 713h79l-13 -251h-52z" />
    <glyph glyph-name="parenleft" unicode="(" horiz-adv-x="293" 
d="M91 38.5q-40 134.5 -40 280.5t40 280.5t122 238.5h70q-83 -118 -122.5 -244.5t-39.5 -274.5t39.5 -274.5t122.5 -244.5h-70q-82 104 -122 238.5z" />
    <glyph glyph-name="parenright" unicode=")" horiz-adv-x="293" 
d="M21 -200q83 118 122.5 244.5t39.5 274.5t-39.5 274.5t-122.5 244.5h70q82 -104 122 -238.5t40 -280.5t-40 -280.5t-122 -238.5h-70z" />
    <glyph glyph-name="asterisk" unicode="*" horiz-adv-x="392" 
d="M280 422l-83 122l-85 -122l-40 30l90 117l-142 42l15 48l139 -49l-3 148h50l-3 -148l139 49l15 -48l-141 -42l89 -117z" />
    <glyph glyph-name="plus" unicode="+" 
d="M544 256h-216v-216h-56v216h-216v56h216v216h56v-216h216v-56z" />
    <glyph glyph-name="comma" unicode="," horiz-adv-x="241" 
d="M76 -85q17 12 26.5 26.5t9.5 33.5v25h-36v92h90v-109q0 -38 -16 -63.5t-47 -42.5z" />
    <glyph glyph-name="hyphen" unicode="-" horiz-adv-x="361" 
d="M301 256h-241v57h241v-57z" />
    <glyph glyph-name="period" unicode="." horiz-adv-x="241" 
d="M76 92h90v-92h-90v92z" />
    <glyph glyph-name="slash" unicode="/" horiz-adv-x="367" 
d="M0 -20l302 753h65l-302 -753h-65z" />
    <glyph glyph-name="zero" unicode="0" horiz-adv-x="609" 
d="M113 77.5q-66 92.5 -66 279.5q0 371 257 371q126 0 192 -92t66 -280t-65.5 -279.5t-191.5 -91.5t-192 92.5zM443.5 120.5q47.5 74.5 47.5 235.5t-47.5 236t-139.5 75t-139 -74t-47 -236q0 -161 47 -236t139 -75t139.5 74.5z" />
    <glyph glyph-name="one" unicode="1" horiz-adv-x="502" 
d="M478 61v-61h-404v61h179v451h-193v52q78 0 119 11.5t61 43t28 94.5h56v-652h154z" />
    <glyph glyph-name="two" unicode="2" horiz-adv-x="592" 
d="M70 23q0 76 39 135.5t105 109.5l133 103q43 33 65 54.5t32.5 46t10.5 58.5q0 66 -42.5 102t-115.5 36q-82 0 -124.5 -43t-42.5 -129h-71q0 74 29 126.5t82 79t126 26.5q69 0 120.5 -23.5t80 -68.5t28.5 -107t-30 -108.5t-92 -93.5l-123 -91q-51 -38 -88 -82.5t-39 -92.5
l389 1v-62h-472v23z" />
    <glyph glyph-name="three" unicode="3" horiz-adv-x="602" 
d="M112 42q-65 57 -68 170h71q0 -83 47.5 -125t138.5 -42q87 0 132 38.5t45 113.5q0 47 -22 81t-61.5 51t-91.5 17h-52v61h53q69 0 109 33t40 97t-41.5 97.5t-111.5 33.5q-79 0 -123 -38t-47 -111h-71q2 61 30.5 108.5t82 74t128.5 26.5q71 0 121.5 -23.5t76 -65.5t25.5 -97
q0 -59 -36.5 -102t-95.5 -60q73 -13 115 -61.5t42 -125.5q0 -63 -29.5 -110t-85.5 -72.5t-132 -25.5q-124 0 -189 57z" />
    <glyph glyph-name="four" unicode="4" horiz-adv-x="582" 
d="M562 180h-111v-180h-70v180h-346v63l346 470h70v-473h111v-60zM381 240v375l-275 -375h275z" />
    <glyph glyph-name="five" unicode="5" horiz-adv-x="611" 
d="M178.5 7q-52.5 22 -83.5 62.5t-36 94.5h72q9 -55 51 -87t120 -32q58 0 98 24t60 65t20 92q0 52 -19.5 92t-59.5 63t-98 23q-49 0 -92.5 -19.5t-72.5 -53.5h-61l47 382h385v-61h-329l-29 -249q28 26 74 43.5t92 17.5q70 0 123 -30.5t82 -85t29 -122.5q0 -69 -30 -123.5
t-87 -86t-133 -31.5q-70 0 -122.5 22z" />
    <glyph glyph-name="six" unicode="6" horiz-adv-x="594" 
d="M121 66.5q-74 81.5 -74 283.5q0 119 32 203.5t93.5 129.5t148.5 45q60 0 106.5 -21t75 -58t38.5 -85h-71q-13 44 -52 73.5t-99 29.5q-99 0 -151 -79.5t-52 -252.5q24 59 78.5 94t125.5 35q69 0 122.5 -29.5t83 -83.5t29.5 -126q0 -70 -32 -124.5t-87.5 -85t-124.5 -30.5
q-116 0 -190 81.5zM398 66.5q39 21.5 61.5 62.5t22.5 96q0 56 -22 97t-60.5 62t-87.5 21q-54 0 -94.5 -22.5t-62.5 -62.5t-22 -92q0 -46 17.5 -87.5t58 -68.5t103.5 -27q47 0 86 21.5z" />
    <glyph glyph-name="seven" unicode="7" horiz-adv-x="543" 
d="M196 239.5q35 118.5 97.5 224t147.5 187.5h-411v62h488v-59q-142 -139 -211.5 -304.5t-76.5 -349.5h-76q7 121 42 239.5z" />
    <glyph glyph-name="eight" unicode="8" horiz-adv-x="591" 
d="M160 10.5q-58 25.5 -89 72.5t-31 110q0 49 20 87.5t55 63.5t81 35q-37 12 -66 36.5t-45.5 58t-16.5 70.5q0 53 27 95t79 65.5t122 23.5t121.5 -23.5t79 -65.5t27.5 -95q0 -37 -16.5 -70.5t-46 -58t-66.5 -36.5q46 -10 81.5 -35t55.5 -63.5t20 -87.5q0 -63 -31.5 -110
t-89.5 -72.5t-135 -25.5q-78 0 -136 25.5zM410 440.5q43 33.5 43 98.5q0 42 -20.5 71.5t-56 44t-80.5 14.5q-46 0 -81.5 -14.5t-55.5 -44t-20 -71.5q0 -65 43 -98.5t114 -33.5t114 33.5zM433 82.5q49 38.5 49 112.5q0 48 -24 82.5t-66 52t-96 17.5t-96 -17.5t-66 -52
t-24 -82.5q0 -74 49 -112.5t137 -38.5t137 38.5z" />
    <glyph glyph-name="nine" unicode="9" horiz-adv-x="583" 
d="M463 646.5q74 -81.5 74 -283.5q0 -119 -32 -203.5t-94 -129.5t-149 -45q-59 0 -105.5 21t-75.5 58t-39 85h71q13 -44 52 -73.5t99 -29.5q99 0 151.5 79.5t52.5 252.5q-16 -39 -46 -68t-71 -45t-88 -16q-69 0 -122.5 29.5t-83 83.5t-29.5 126q0 70 32 124.5t88 85
t125 30.5q116 0 190 -81.5zM185 646.5q-39 -21.5 -61.5 -62.5t-22.5 -96q0 -56 22 -97t60.5 -62t87.5 -21q54 0 95 22.5t63 62.5t22 92q0 46 -18 87.5t-58.5 68.5t-103.5 27q-47 0 -86 -21.5z" />
    <glyph glyph-name="colon" unicode=":" horiz-adv-x="241" 
d="M76 548h90v-92h-90v92zM76 92h90v-92h-90v92z" />
    <glyph glyph-name="semicolon" unicode=";" horiz-adv-x="241" 
d="M76 -85q17 12 26.5 26.5t9.5 33.5v25h-36v92h90v-109q0 -38 -16 -63.5t-47 -42.5zM76 548h90v-92h-90v92z" />
    <glyph glyph-name="less" unicode="&#x3c;" 
d="M58 256v56l474 211v-62l-410 -177l410 -178v-61z" />
    <glyph glyph-name="equal" unicode="=" 
d="M512 367h-459v57h459v-57zM512 167h-459v57h459v-57z" />
    <glyph glyph-name="greater" unicode="&#x3e;" 
d="M70 106l410 178l-410 177v62l474 -211v-56l-474 -211v61z" />
    <glyph glyph-name="question" unicode="?" horiz-adv-x="507" 
d="M219 215q0 47 16 84.5t51 71.5l57 53q26 25 40.5 54.5t14.5 68.5q0 36 -16.5 63.5t-47.5 42.5t-73 15q-46 0 -80 -19t-52 -54.5t-18 -84.5v-14h-72v12q0 70 28 119.5t78.5 75t116.5 25.5q59 0 105.5 -21t73.5 -61.5t27 -98.5q0 -96 -76 -166l-55 -51q-27 -25 -38 -53.5
t-11 -70.5v-25h-69v34zM208 92h91v-92h-91v92z" />
    <glyph glyph-name="at" unicode="@" horiz-adv-x="924" 
d="M609 210q-3 -18 -3 -33q0 -35 17.5 -49.5t51.5 -14.5q30 0 61.5 23t53.5 74.5t22 133.5q0 73 -37.5 141t-114 112.5t-188.5 44.5q-103 0 -185.5 -46.5t-130 -134.5t-47.5 -207q0 -103 43 -182t125 -123t194 -44q86 0 149 25t110 76h71q-56 -78 -137 -117.5t-193 -39.5
q-128 0 -224.5 52t-148.5 144t-52 209q0 134 56 235t153 155t217 54q128 0 219 -52t137 -133.5t46 -168.5q0 -99 -31 -161.5t-77.5 -90.5t-94.5 -28q-47 0 -77.5 24t-36.5 67q-27 -41 -71 -66t-93 -25q-44 0 -77.5 20.5t-53 59.5t-19.5 95q0 68 26 127.5t74.5 95.5t112.5 36
q33 0 60.5 -11t46 -30t25.5 -42l11 72h59zM492.5 145.5q37.5 30.5 57.5 80t20 104.5q0 57 -29 87.5t-78 30.5t-84 -30t-53.5 -77.5t-18.5 -99.5q0 -42 12.5 -70t34.5 -42t49 -14q52 0 89.5 30.5z" />
    <glyph glyph-name="A" unicode="A" horiz-adv-x="645" 
d="M482 213h-322l-77 -213h-78l273 713h88l274 -713h-78zM181 272h280l-141 382z" />
    <glyph glyph-name="B" unicode="B" horiz-adv-x="651" 
d="M74 713h291q225 0 225 -175q0 -67 -32 -106t-92 -55q72 -10 111 -56.5t39 -121.5q0 -98 -62 -148.5t-184 -50.5h-296v713zM366 402q74 0 113.5 32.5t39.5 93.5q0 64 -38 95t-115 31h-221v-252h221zM370 59q89 0 132 35t43 107q0 71 -43 106.5t-131 35.5h-226v-284h225z
" />
    <glyph glyph-name="C" unicode="C" horiz-adv-x="685" 
d="M193 28q-72 43 -112.5 126.5t-40.5 202.5q0 118 41.5 201.5t114 126.5t166.5 43q78 0 139.5 -26t100.5 -77.5t48 -126.5h-73q-6 53 -34 90.5t-74 57.5t-107 20q-73 0 -129 -35t-88 -104.5t-32 -169.5q0 -102 31.5 -171t87 -103.5t127.5 -34.5q99 0 156 51.5t69 142.5h73
q-8 -75 -45.5 -133t-101.5 -91t-150 -33q-95 0 -167 43z" />
    <glyph glyph-name="D" unicode="D" horiz-adv-x="688" 
d="M648 357q0 -178 -88 -267.5t-261 -89.5h-225v713h218q356 0 356 -356zM146 652v-591h156q274 0 274 296q0 153 -70.5 224t-212.5 71h-147z" />
    <glyph glyph-name="E" unicode="E" horiz-adv-x="589" 
d="M74 713h471v-60h-399v-251h371v-60h-371v-282h403v-60h-475v713z" />
    <glyph glyph-name="F" unicode="F" horiz-adv-x="542" 
d="M74 713h448v-61h-376v-251h349v-60h-349v-341h-72v713z" />
    <glyph glyph-name="G" unicode="G" horiz-adv-x="730" 
d="M670 364v-364h-51l-8 116q-29 -58 -91 -94.5t-150 -36.5q-97 0 -171.5 43t-116.5 126.5t-42 202.5q0 113 40 196.5t115.5 129t179.5 45.5q70 0 130 -23t101.5 -70.5t55.5 -119.5h-73q-18 72 -72.5 112t-142.5 40q-81 0 -140 -36.5t-90.5 -106.5t-31.5 -167
q0 -100 32.5 -170t91 -105t136.5 -35q119 0 178 65t59 191h-231v61h292z" />
    <glyph glyph-name="H" unicode="H" horiz-adv-x="697" 
d="M74 713h72v-309h405v309h71v-713h-71v341h-405v-341h-72v713z" />
    <glyph glyph-name="I" unicode="I" horiz-adv-x="220" 
d="M74 713h72v-713h-72v713z" />
    <glyph glyph-name="J" unicode="J" horiz-adv-x="572" 
d="M131.5 13q-54.5 28 -83 81.5t-28.5 127.5v24h71v-17q0 -89 42.5 -136t128.5 -47q82 0 127 51t45 151v465h70v-472q0 -83 -30 -140t-84 -86.5t-128 -29.5q-76 0 -130.5 28z" />
    <glyph glyph-name="K" unicode="K" horiz-adv-x="635" 
d="M331 418l298 -418h-85l-265 373l-133 -130v-243h-72v714h72v-384l397 384h93z" />
    <glyph glyph-name="L" unicode="L" horiz-adv-x="542" 
d="M74 713h72v-651h386v-62h-458v713z" />
    <glyph glyph-name="M" unicode="M" horiz-adv-x="834" 
d="M74 713h107l237 -627l240 627h102v-713h-70v615l-241 -615h-65l-240 615v-615h-70v713z" />
    <glyph glyph-name="N" unicode="N" horiz-adv-x="697" 
d="M74 713h80l399 -604v604h69v-713h-79l-400 604v-604h-69v713z" />
    <glyph glyph-name="O" unicode="O" horiz-adv-x="737" 
d="M199.5 28q-74.5 43 -117 127t-42.5 201q0 118 42.5 202t117 127t168.5 43t168.5 -43t117.5 -127t43 -202q0 -117 -43 -201t-117.5 -127t-168.5 -43t-168.5 43zM500 82.5q58 35.5 91.5 105t33.5 168.5q0 100 -33.5 170t-91.5 105.5t-132 35.5t-132 -35.5t-91 -105.5
t-33 -170q0 -99 33 -168.5t91 -105t132 -35.5t132 35.5z" />
    <glyph glyph-name="P" unicode="P" horiz-adv-x="602" 
d="M74 713h270q121 0 182 -52t61 -153q0 -103 -61.5 -156t-181.5 -53h-198v-299h-72v713zM343 360q86 0 129.5 36t43.5 112q0 74 -43.5 109.5t-129.5 35.5h-197v-293h197z" />
    <glyph glyph-name="Q" unicode="Q" horiz-adv-x="737" 
d="M659 -58l-100 101q-40 -28 -88.5 -43t-102.5 -15q-94 0 -168.5 43t-117 127t-42.5 201q0 118 42.5 202t117 127t168.5 43t168.5 -43t117.5 -127t43 -202q0 -88 -24.5 -157t-69.5 -118l97 -98zM145 187.5q33 -69.5 91 -105t132 -35.5q87 0 147 42l-94 95l39 39l96 -96
q34 39 51.5 96.5t17.5 132.5q0 100 -33.5 170t-91.5 105.5t-132 35.5t-132 -35.5t-91 -105.5t-33 -170q0 -99 33 -168.5z" />
    <glyph glyph-name="R" unicode="R" horiz-adv-x="656" 
d="M74 713h303q104 0 162.5 -48.5t58.5 -144.5q0 -66 -34.5 -110t-100.5 -63q51 -12 76 -41t33 -84l17 -111q5 -37 12 -61.5t16 -49.5h-73q-7 17 -12.5 39.5t-12.5 65.5l-16 103q-6 40 -21.5 63t-41.5 33t-67 10h-227v-314h-72v713zM370 375q77 0 116.5 35.5t39.5 103.5
t-39 103.5t-119 35.5h-222v-278h224z" />
    <glyph glyph-name="S" unicode="S" horiz-adv-x="632" 
d="M180 10.5q-61 25.5 -93.5 75t-32.5 120.5h73q0 -79 53.5 -120t150.5 -41q59 0 100.5 17.5t63 49t21.5 73.5q0 99 -127 129l-155 37q-87 21 -127 64.5t-40 114.5q0 57 30 102t87 70.5t133 25.5q72 0 127.5 -22.5t88 -66t35.5 -104.5h-72q-5 62 -51 97.5t-128 35.5
q-58 0 -98 -18t-60 -48.5t-20 -69.5q0 -49 29.5 -76.5t84.5 -40.5l155 -37q91 -22 135.5 -69t44.5 -122q0 -63 -32 -108.5t-91 -69.5t-137 -24q-87 0 -148 25.5z" />
    <glyph glyph-name="T" unicode="T" horiz-adv-x="571" 
d="M561 652h-240v-652h-71v652h-240v61h551v-61z" />
    <glyph glyph-name="U" unicode="U" horiz-adv-x="679" 
d="M137.5 56.5q-70.5 71.5 -70.5 205.5v451h71v-443q0 -112 50 -168t151 -56q103 0 152.5 56t49.5 167v444h70v-451q0 -134 -70 -205.5t-202 -71.5q-131 0 -201.5 71.5z" />
    <glyph glyph-name="V" unicode="V" horiz-adv-x="605" 
d="M5 713h75l224 -641l222 641h74l-257 -713h-81z" />
    <glyph glyph-name="W" unicode="W" horiz-adv-x="939" 
d="M10 713h75l163 -626l179 626h89l175 -626l167 626h71l-199 -713h-76l-185 640l-184 -640h-75z" />
    <glyph glyph-name="X" unicode="X" horiz-adv-x="588" 
d="M579 0h-81l-203 315l-207 -315h-78l244 368l-231 345h80l193 -293l190 293h79l-229 -343z" />
    <glyph glyph-name="Y" unicode="Y" horiz-adv-x="588" 
d="M259 298l-264 415h80l221 -350l221 350h77l-264 -415v-298h-71v298z" />
    <glyph glyph-name="Z" unicode="Z" horiz-adv-x="583" 
d="M33 62l433 590h-427v61h509v-62l-433 -590h442v-61h-524v62z" />
    <glyph glyph-name="bracketleft" unicode="[" horiz-adv-x="312" 
d="M93 838h186v-54h-120v-930h120v-54h-186v1038z" />
    <glyph glyph-name="backslash" unicode="\" horiz-adv-x="367" 
d="M0 733h65l302 -753h-65z" />
    <glyph glyph-name="bracketright" unicode="]" horiz-adv-x="312" 
d="M34 -200v54h120v930h-120v54h185v-1038h-185z" />
    <glyph glyph-name="asciicircum" unicode="^" 
d="M476 190l-174 380l-162 -380h-61l195 444h56l207 -444h-61z" />
    <glyph glyph-name="underscore" unicode="_" horiz-adv-x="376" 
d="M377 -128h-376v57h376v-57z" />
    <glyph glyph-name="grave" unicode="`" horiz-adv-x="247" 
d="M146 640l-130 137h83l108 -137h-61z" />
    <glyph glyph-name="a" unicode="a" horiz-adv-x="557" 
d="M117 4.5q-41 19.5 -62 55t-21 84.5q0 68 41.5 109t122.5 54l117 18q34 5 52 14t25.5 24.5t7.5 41.5q0 45 -30.5 72t-100.5 27q-135 0 -143 -105h-70q3 52 30 89t74 56t110 19q71 0 115 -20.5t64 -62t20 -107.5v-262q0 -29 9 -40t29 -11h16v-60q-18 -2 -29 -2
q-41 0 -64.5 23t-24.5 64q-27 -49 -75 -74.5t-114 -25.5q-58 0 -99 19.5zM318.5 65.5q39.5 21.5 60.5 61t21 92.5v89q-8 -14 -24.5 -21.5t-47.5 -13.5l-117 -22q-55 -10 -80 -36t-25 -70q0 -45 29.5 -73t89.5 -28q54 0 93.5 21.5z" />
    <glyph glyph-name="b" unicode="b" horiz-adv-x="599" 
d="M212 17.5q-51 32.5 -75 86.5v-104h-68v713h70v-267q24 53 75.5 84.5t114.5 31.5q70 0 123.5 -35.5t82.5 -101t29 -152.5t-29 -152t-82.5 -100.5t-123.5 -35.5q-66 0 -117 32.5zM409.5 71q39.5 26 62 77.5t22.5 124.5t-22.5 124.5t-62 78t-90.5 26.5q-52 0 -93 -26
t-64 -77.5t-23 -125.5t23 -125t63.5 -77t93.5 -26q51 0 90.5 26z" />
    <glyph glyph-name="c" unicode="c" horiz-adv-x="549" 
d="M154.5 18.5q-56.5 33.5 -88 98.5t-31.5 157t32.5 157t90 98.5t130.5 33.5q59 0 107.5 -20.5t81 -62t40.5 -101.5h-72q-12 61 -54.5 92.5t-103.5 31.5q-52 0 -93 -26t-64.5 -77.5t-23.5 -125.5t23 -125.5t63.5 -77.5t92.5 -26q64 0 106 33.5t54 102.5h72
q-10 -67 -42.5 -110.5t-81 -64.5t-108.5 -21q-74 0 -130.5 33.5z" />
    <glyph glyph-name="d" unicode="d" horiz-adv-x="599" 
d="M146.5 20.5q-53.5 35.5 -82.5 101t-29 152.5t29 152.5t82 101t123 35.5q65 0 116 -32t75 -84v266h70v-713h-68v105q-25 -55 -76 -87.5t-116 -32.5q-70 0 -123.5 35.5zM373 71q41 26 64 78t23 125q0 74 -23 125.5t-63.5 77.5t-93.5 26q-51 0 -90.5 -26.5t-62 -78
t-22.5 -124.5t22.5 -124.5t62 -78t90.5 -26.5q52 0 93 26z" />
    <glyph glyph-name="e" unicode="e" horiz-adv-x="554" 
d="M520 256h-415q2 -65 26 -113t65.5 -73t94.5 -25q59 0 99 28t55 85h71q-12 -55 -43.5 -94t-78 -59t-101.5 -20q-77 0 -135.5 34.5t-90.5 99.5t-32 155q0 91 31.5 156t86.5 99t126 34q72 0 126 -34t84.5 -100.5t30.5 -159.5v-13zM451 313q-3 54 -23.5 97.5t-58.5 69
t-90 25.5t-90.5 -25.5t-59 -69t-23.5 -97.5h345z" />
    <glyph glyph-name="f" unicode="f" horiz-adv-x="286" 
d="M180 641.5q-23 -22.5 -23 -75.5v-18h129v-59h-129v-489h-70v489h-87v59h87v22q0 75 42.5 114.5t118.5 39.5q33 0 53 -3v-57h-49q-49 0 -72 -22.5z" />
    <glyph glyph-name="g" unicode="g" horiz-adv-x="589" 
d="M520 38q0 -77 -29 -130.5t-83.5 -80.5t-129.5 -27q-65 0 -113.5 20t-76 56t-33.5 82h72q8 -46 47.5 -72.5t103.5 -26.5q80 0 126 41.5t46 130.5v115q-25 -52 -74 -83.5t-108 -31.5q-66 0 -119 30.5t-83.5 90.5t-30.5 145t30.5 145t83.5 90.5t119 30.5q62 0 110 -31.5
t74 -86.5v103h68v-510zM365.5 116.5q39.5 25.5 62 72.5t22.5 108t-22.5 108t-62 72.5t-89.5 25.5q-48 0 -86.5 -23t-61.5 -69.5t-23 -113.5t23 -113.5t61.5 -69.5t86.5 -23q50 0 89.5 25.5z" />
    <glyph glyph-name="h" unicode="h" horiz-adv-x="572" 
d="M69 713h70v-248q25 46 71.5 72t104.5 26q103 0 148 -59.5t45 -166.5v-337h-70v323q0 66 -14.5 105.5t-44 57t-76.5 17.5q-49 0 -86 -21.5t-57.5 -62.5t-20.5 -97v-322h-70v713z" />
    <glyph glyph-name="i" unicode="i" horiz-adv-x="209" 
d="M139 634h-70v100h70v-100zM69 548h70v-548h-70v548z" />
    <glyph glyph-name="j" unicode="j" horiz-adv-x="209" 
d="M139 634h-70v100h70v-100zM-25 -185v57h35q59 0 59 66v610h70v-606q0 -129 -117 -129q-23 0 -47 2z" />
    <glyph glyph-name="k" unicode="k" horiz-adv-x="532" 
d="M243 292l-104 -97v-195h-70v713h70v-436l287 271h93l-223 -209l234 -339h-84z" />
    <glyph glyph-name="l" unicode="l" horiz-adv-x="209" 
d="M69 713h70v-713h-70v713z" />
    <glyph glyph-name="m" unicode="m" horiz-adv-x="881" 
d="M69 548h68v-81q22 43 65.5 69.5t95.5 26.5q68 0 107 -31t55 -86q24 59 71.5 88t105.5 29q87 0 133 -60t46 -173v-330h-70v319q0 73 -15.5 113.5t-43 55.5t-67.5 15q-42 0 -74.5 -21.5t-50.5 -60t-18 -88.5v-333h-70v323q0 64 -13 103.5t-39.5 58t-69.5 18.5t-76.5 -21.5
t-51.5 -60t-18 -88.5v-333h-70v548z" />
    <glyph glyph-name="n" unicode="n" horiz-adv-x="572" 
d="M463 503.5q45 -59.5 45 -165.5v-338h-70v324q0 66 -14.5 105t-44 56.5t-76.5 17.5q-49 0 -86 -21.5t-57.5 -62.5t-20.5 -97v-322h-70v548h68v-84q25 46 72 72.5t106 26.5q103 0 148 -59.5z" />
    <glyph glyph-name="o" unicode="o" horiz-adv-x="571" 
d="M157.5 18.5q-57.5 33.5 -90 99t-32.5 156.5t32.5 156.5t90 99t129.5 33.5q71 0 127.5 -33.5t89.5 -99t33 -156.5t-33 -156.5t-89.5 -99t-127.5 -33.5q-72 0 -129.5 33.5zM379 70.5q41 26.5 64.5 78.5t23.5 125t-23.5 125t-64.5 78.5t-92 26.5q-53 0 -94 -26.5
t-64.5 -78.5t-23.5 -125t23.5 -125t64.5 -78.5t94 -26.5q51 0 92 26.5z" />
    <glyph glyph-name="p" unicode="p" horiz-adv-x="599" 
d="M69 548h68v-105q25 56 76 88t116 32q70 0 123.5 -35.5t82.5 -101t29 -152.5t-29.5 -152.5t-82.5 -101t-123 -35.5q-65 0 -115.5 31.5t-74.5 84.5v-286h-70v733zM409.5 71.5q39.5 26.5 62 78t22.5 124.5t-22.5 124.5t-62 78t-90.5 26.5q-52 0 -93 -26t-64 -77.5
t-23 -125.5t23 -125.5t63.5 -77.5t93.5 -26q51 0 90.5 26.5z" />
    <glyph glyph-name="q" unicode="q" horiz-adv-x="599" 
d="M460 101q-15 -34 -44 -60.5t-66.5 -41t-79.5 -14.5q-70 0 -123 35.5t-82.5 101t-29.5 152.5t29 152.5t82.5 101t123.5 35.5q66 0 117 -32.5t75 -87.5v105h68v-733h-70v286zM373.5 71q40.5 26 63.5 77.5t23 125.5t-23 125.5t-64 77.5t-93 26q-51 0 -90.5 -26.5t-62 -78
t-22.5 -124.5t22.5 -124.5t62 -78t90.5 -26.5q53 0 93.5 26z" />
    <glyph glyph-name="r" unicode="r" horiz-adv-x="338" 
d="M69 548h68v-107q23 60 62.5 86.5t98.5 26.5q18 0 30 -2v-67h-33q-46 0 -81 -23t-55 -68.5t-20 -111.5v-282h-70v548z" />
    <glyph glyph-name="s" unicode="s" horiz-adv-x="479" 
d="M129.5 7q-50.5 22 -77.5 60.5t-31 90.5h72q15 -114 160 -114q47 0 77.5 14t44.5 36t14 48q0 25 -10 42t-33 30t-63 23l-95 23q-76 18 -113 53t-37 99q0 44 24.5 78t70 53.5t106.5 19.5q89 0 145.5 -41.5t64.5 -122.5h-72q-6 54 -42.5 79.5t-95.5 25.5q-62 0 -97 -24.5
t-35 -66.5q0 -37 23 -58.5t77 -34.5l102 -24q74 -18 111.5 -53t37.5 -99q0 -44 -24 -80t-70 -57.5t-111 -21.5q-73 0 -123.5 22z" />
    <glyph glyph-name="t" unicode="t" horiz-adv-x="313" 
d="M303 57v-57q-25 -3 -55 -3q-82 0 -119 39t-37 123v330h-83v59h83v127h70v-127h135v-59h-135v-327q0 -40 9 -62.5t29 -32.5t57 -10h46z" />
    <glyph glyph-name="u" unicode="u" horiz-adv-x="570" 
d="M114.5 41q-50.5 56 -50.5 165v342h70v-330q0 -91 35 -132t104 -41q42 0 77.5 19.5t58 63.5t22.5 114v306h70v-548h-68v87q-26 -49 -70 -75.5t-101 -26.5q-97 0 -147.5 56z" />
    <glyph glyph-name="v" unicode="v" horiz-adv-x="477" 
d="M0 548h77l164 -482l164 482h73l-200 -548h-76z" />
    <glyph glyph-name="w" unicode="w" horiz-adv-x="785" 
d="M10 548h74l132 -471l141 471h75l142 -471l131 471h70l-164 -548h-75l-143 460l-140 -460h-75z" />
    <glyph glyph-name="x" unicode="x" horiz-adv-x="492" 
d="M482 0h-79l-157 233l-159 -233h-77l196 282l-184 266h79l148 -217l145 217h77l-182 -264z" />
    <glyph glyph-name="y" unicode="y" horiz-adv-x="482" 
d="M482 548l-231 -632q-20 -53 -55.5 -78.5t-91.5 -25.5q-23 0 -47 3v57h38q38 0 60.5 13.5t32.5 42.5l24 66l-212 554h77l169 -471l164 471h72z" />
    <glyph glyph-name="z" unicode="z" horiz-adv-x="478" 
d="M30 56l323 433h-321v59h410v-49l-328 -440h339v-59h-423v56z" />
    <glyph glyph-name="braceleft" unicode="{" horiz-adv-x="353" 
d="M140 -79v288q0 83 -70 83h-26v54h26q70 0 70 83v288q0 121 121 121h65v-54h-51q-38 0 -53.5 -17.5t-15.5 -61.5v-276q0 -43 -18.5 -70t-60.5 -40q41 -12 60 -39t19 -71v-276q0 -44 15.5 -61.5t53.5 -17.5h51v-54h-65q-121 0 -121 121z" />
    <glyph glyph-name="bar" unicode="|" horiz-adv-x="252" 
d="M91 778h70v-998h-70v998z" />
    <glyph glyph-name="braceright" unicode="}" horiz-adv-x="353" 
d="M27 -200v54h51q37 0 53 17.5t16 61.5v276q0 44 19 71t60 39q-42 13 -60.5 40t-18.5 70v276q0 44 -16 61.5t-53 17.5h-51v54h65q121 0 121 -121v-288q0 -83 70 -83h26v-54h-26q-70 0 -70 -83v-288q0 -121 -121 -121h-65z" />
    <glyph glyph-name="asciitilde" unicode="~" 
d="M106.5 290q14.5 27 40 43t59.5 16q27 0 49 -9t50 -26q20 -13 35 -19.5t30 -6.5q51 0 59 68h58q-3 -55 -33 -87.5t-81 -32.5q-27 0 -50.5 9t-50.5 26q-24 13 -37 19t-28 6q-51 0 -59 -66h-58q2 33 16.5 60z" />
    <glyph glyph-name="Aacute" unicode="&#xc1;" horiz-adv-x="645" 
d="M482 213h-322l-77 -213h-78l273 713h88l274 -713h-78zM181 272h280l-141 382zM410 910h87l-129 -110h-63z" />
    <glyph glyph-name="Abreve" unicode="&#x102;" horiz-adv-x="645" 
d="M482 213h-322l-77 -213h-78l273 713h88l274 -713h-78zM181 272h280l-141 382zM253 809.5q-30 14.5 -47.5 40.5t-21.5 60h51q6 -31 29 -49t58 -18t58.5 18t29.5 49h51q-4 -34 -22 -60t-48 -40.5t-69 -14.5t-69 14.5z" />
    <glyph glyph-name="Acircumflex" unicode="&#xc2;" horiz-adv-x="645" 
d="M482 213h-322l-77 -213h-78l273 713h88l274 -713h-78zM181 272h280l-141 382zM358 910l112 -120h-72l-75 80l-75 -80h-74l112 120h72z" />
    <glyph glyph-name="Adieresis" unicode="&#xc4;" horiz-adv-x="645" 
d="M482 213h-322l-77 -213h-78l273 713h88l274 -713h-78zM181 272h280l-141 382zM268 823h-79v81h79v-81zM455 823h-78v81h78v-81z" />
    <glyph glyph-name="Agrave" unicode="&#xc0;" horiz-adv-x="645" 
d="M482 213h-322l-77 -213h-78l273 713h88l274 -713h-78zM181 272h280l-141 382zM276 800l-129 110h87l105 -110h-63z" />
    <glyph glyph-name="Amacron" unicode="&#x100;" horiz-adv-x="645" 
d="M482 213h-322l-77 -213h-78l273 713h88l274 -713h-78zM181 272h280l-141 382zM450 835h-256v51h256v-51z" />
    <glyph glyph-name="Aogonek" unicode="&#x104;" horiz-adv-x="645" 
d="M655 -150v-48q-14 -4 -26.5 -6t-29.5 -2q-39 0 -69 14t-46 40t-16 59q0 37 24 65t65 41l-75 200h-322l-77 -213h-78l273 713h88l274 -713h-9q-47 0 -74 -23.5t-27 -60.5q0 -35 22 -54t56 -19q22 0 47 7zM181 272h280l-141 382z" />
    <glyph glyph-name="Aring" unicode="&#xc5;" horiz-adv-x="645" 
d="M482 213h-322l-77 -213h-78l264 689q-22 14 -35.5 36.5t-13.5 50.5t14 51t37 36.5t51 13.5t51.5 -13.5t37 -36.5t13.5 -51t-13 -50.5t-35 -36.5l264 -689h-78zM283.5 816q-15.5 -16 -15.5 -40q0 -26 15.5 -41t38.5 -15t38.5 15t15.5 41q0 24 -15.5 40t-38.5 16t-38.5 -16
zM320 654l-139 -382h280z" />
    <glyph glyph-name="Atilde" unicode="&#xc3;" horiz-adv-x="645" 
d="M482 213h-322l-77 -213h-78l273 713h88l274 -713h-78zM181 272h280l-141 382zM186.5 875q25.5 29 67.5 29q22 0 40 -7t42 -21q19 -11 30.5 -16t22.5 -5q22 0 33.5 14t14.5 41h49q-2 -47 -27 -76t-67 -29q-22 0 -40 7t-44 21q-17 10 -29 15.5t-24 5.5q-21 0 -32.5 -14
t-14.5 -41h-49q2 47 27.5 76z" />
    <glyph glyph-name="AE" unicode="&#xc6;" horiz-adv-x="908" 
d="M868 60v-60h-430v220h-260l-110 -220h-79l366 713h508v-60h-354v-251h327v-60h-327v-282h359zM438 279v374h-42l-188 -374h230z" />
    <glyph glyph-name="Cacute" unicode="&#x106;" horiz-adv-x="685" 
d="M193 28q-72 43 -112.5 126.5t-40.5 202.5q0 118 41.5 201.5t114 126.5t166.5 43q78 0 139.5 -26t100.5 -77.5t48 -126.5h-73q-6 53 -34 90.5t-74 57.5t-107 20q-73 0 -129 -35t-88 -104.5t-32 -169.5q0 -102 31.5 -171t87 -103.5t127.5 -34.5q99 0 156 51.5t69 142.5h73
q-8 -75 -45.5 -133t-101.5 -91t-150 -33q-95 0 -167 43zM452 910h87l-129 -110h-63z" />
    <glyph glyph-name="Ccaron" unicode="&#x10c;" horiz-adv-x="685" 
d="M193 28q-72 43 -112.5 126.5t-40.5 202.5q0 118 41.5 201.5t114 126.5t166.5 43q78 0 139.5 -26t100.5 -77.5t48 -126.5h-73q-6 53 -34 90.5t-74 57.5t-107 20q-73 0 -129 -35t-88 -104.5t-32 -169.5q0 -102 31.5 -171t87 -103.5t127.5 -34.5q99 0 156 51.5t69 142.5h73
q-8 -75 -45.5 -133t-101.5 -91t-150 -33q-95 0 -167 43zM217 910h74l75 -81l75 81h72l-112 -120h-72z" />
    <glyph glyph-name="Ccedilla" unicode="&#xc7;" horiz-adv-x="685" 
d="M614.5 113.5q-34.5 -56.5 -93.5 -90t-139 -37.5l-4 -31h7q47 0 73.5 -20.5t26.5 -57.5q0 -39 -29 -61t-84 -22q-39 0 -80 12v49q40 -14 78 -14q27 0 41 9.5t14 27.5q0 34 -55 34q-23 0 -45 -5l12 79q-89 5 -156 49.5t-104 126t-37 195.5q0 118 41.5 201.5t114 126.5
t166.5 43q78 0 139.5 -26t100.5 -77.5t48 -126.5h-73q-6 53 -34 90.5t-74 57.5t-107 20q-73 0 -129 -35t-88 -104.5t-32 -169.5q0 -102 31.5 -171t87 -103.5t127.5 -34.5q99 0 156 51.5t69 142.5h73q-8 -72 -42.5 -128.5z" />
    <glyph glyph-name="Ccircumflex" unicode="&#x108;" horiz-adv-x="685" 
d="M193 28q-72 43 -112.5 126.5t-40.5 202.5q0 118 41.5 201.5t114 126.5t166.5 43q78 0 139.5 -26t100.5 -77.5t48 -126.5h-73q-6 53 -34 90.5t-74 57.5t-107 20q-73 0 -129 -35t-88 -104.5t-32 -169.5q0 -102 31.5 -171t87 -103.5t127.5 -34.5q99 0 156 51.5t69 142.5h73
q-8 -75 -45.5 -133t-101.5 -91t-150 -33q-95 0 -167 43zM401 910l112 -120h-72l-75 80l-75 -80h-74l112 120h72z" />
    <glyph glyph-name="Cdotaccent" unicode="&#x10a;" horiz-adv-x="685" 
d="M193 28q-72 43 -112.5 126.5t-40.5 202.5q0 118 41.5 201.5t114 126.5t166.5 43q78 0 139.5 -26t100.5 -77.5t48 -126.5h-73q-6 53 -34 90.5t-74 57.5t-107 20q-73 0 -129 -35t-88 -104.5t-32 -169.5q0 -102 31.5 -171t87 -103.5t127.5 -34.5q99 0 156 51.5t69 142.5h73
q-8 -75 -45.5 -133t-101.5 -91t-150 -33q-95 0 -167 43zM406 813h-82v97h82v-97z" />
    <glyph glyph-name="Eth" unicode="&#xd0;" horiz-adv-x="688" 
d="M648 357q0 -178 -88 -267.5t-261 -89.5h-225v331h-51v52h51v330h218q356 0 356 -356zM576 357q0 153 -70.5 224t-212.5 71h-147v-269h226v-52h-226v-270h156q274 0 274 296z" />
    <glyph glyph-name="Dcaron" unicode="&#x10e;" horiz-adv-x="688" 
d="M648 357q0 -178 -88 -267.5t-261 -89.5h-225v713h218q356 0 356 -356zM146 652v-591h156q274 0 274 296q0 153 -70.5 224t-212.5 71h-147zM162 910h74l75 -81l75 81h72l-112 -120h-72z" />
    <glyph glyph-name="Dcroat" unicode="&#x110;" horiz-adv-x="688" 
d="M648 357q0 -178 -88 -267.5t-261 -89.5h-225v331h-51v52h51v330h218q356 0 356 -356zM576 357q0 153 -70.5 224t-212.5 71h-147v-269h226v-52h-226v-270h156q274 0 274 296z" />
    <glyph glyph-name="Eacute" unicode="&#xc9;" horiz-adv-x="589" 
d="M74 713h471v-60h-399v-251h371v-60h-371v-282h403v-60h-475v713zM403 910h87l-129 -110h-63z" />
    <glyph glyph-name="Ebreve" unicode="&#x114;" horiz-adv-x="589" 
d="M74 713h471v-60h-399v-251h371v-60h-371v-282h403v-60h-475v713zM246 809.5q-30 14.5 -47.5 40.5t-21.5 60h51q6 -31 29 -49t58 -18t58.5 18t29.5 49h51q-4 -34 -22 -60t-48 -40.5t-69 -14.5t-69 14.5z" />
    <glyph glyph-name="Ecaron" unicode="&#x11a;" horiz-adv-x="589" 
d="M74 713h471v-60h-399v-251h371v-60h-371v-282h403v-60h-475v713zM167 910h74l75 -81l75 81h72l-112 -120h-72z" />
    <glyph glyph-name="Ecircumflex" unicode="&#xca;" horiz-adv-x="589" 
d="M74 713h471v-60h-399v-251h371v-60h-371v-282h403v-60h-475v713zM351 910l112 -120h-72l-75 80l-75 -80h-74l112 120h72z" />
    <glyph glyph-name="Edieresis" unicode="&#xcb;" horiz-adv-x="589" 
d="M74 713h471v-60h-399v-251h371v-60h-371v-282h403v-60h-475v713zM261 823h-79v81h79v-81zM448 823h-78v81h78v-81z" />
    <glyph glyph-name="Edotaccent" unicode="&#x116;" horiz-adv-x="589" 
d="M74 713h471v-60h-399v-251h371v-60h-371v-282h403v-60h-475v713zM357 813h-82v97h82v-97z" />
    <glyph glyph-name="Egrave" unicode="&#xc8;" horiz-adv-x="589" 
d="M74 713h471v-60h-399v-251h371v-60h-371v-282h403v-60h-475v713zM269 800l-129 110h87l105 -110h-63z" />
    <glyph glyph-name="Emacron" unicode="&#x112;" horiz-adv-x="589" 
d="M74 713h471v-60h-399v-251h371v-60h-371v-282h403v-60h-475v713zM443 835h-256v51h256v-51z" />
    <glyph glyph-name="Eogonek" unicode="&#x118;" horiz-adv-x="589" 
d="M446 -23.5q-27 -23.5 -27 -60.5q0 -35 22 -54t56 -19q22 0 47 7v-48q-14 -4 -26.5 -6t-29.5 -2q-39 0 -69 14t-46 40t-16 59q0 30 15.5 54t42.5 39h-341v713h471v-60h-399v-251h371v-60h-371v-282h403v-60h-29q-47 0 -74 -23.5z" />
    <glyph glyph-name="Gbreve" unicode="&#x11e;" horiz-adv-x="730" 
d="M670 364v-364h-51l-8 116q-29 -58 -91 -94.5t-150 -36.5q-97 0 -171.5 43t-116.5 126.5t-42 202.5q0 113 40 196.5t115.5 129t179.5 45.5q70 0 130 -23t101.5 -70.5t55.5 -119.5h-73q-18 72 -72.5 112t-142.5 40q-81 0 -140 -36.5t-90.5 -106.5t-31.5 -167
q0 -100 32.5 -170t91 -105t136.5 -35q119 0 178 65t59 191h-231v61h292zM303 809.5q-30 14.5 -47.5 40.5t-21.5 60h51q6 -31 29 -49t58 -18t58.5 18t29.5 49h51q-4 -34 -22 -60t-48 -40.5t-69 -14.5t-69 14.5z" />
    <glyph glyph-name="Gcircumflex" unicode="&#x11c;" horiz-adv-x="730" 
d="M670 364v-364h-51l-8 116q-29 -58 -91 -94.5t-150 -36.5q-97 0 -171.5 43t-116.5 126.5t-42 202.5q0 113 40 196.5t115.5 129t179.5 45.5q70 0 130 -23t101.5 -70.5t55.5 -119.5h-73q-18 72 -72.5 112t-142.5 40q-81 0 -140 -36.5t-90.5 -106.5t-31.5 -167
q0 -100 32.5 -170t91 -105t136.5 -35q119 0 178 65t59 191h-231v61h292zM408 910l112 -120h-72l-75 80l-75 -80h-74l112 120h72z" />
    <glyph glyph-name="uni0122" unicode="&#x122;" horiz-adv-x="730" 
d="M670 364v-364h-51l-8 116q-29 -58 -91 -94.5t-150 -36.5q-97 0 -171.5 43t-116.5 126.5t-42 202.5q0 113 40 196.5t115.5 129t179.5 45.5q70 0 130 -23t101.5 -70.5t55.5 -119.5h-73q-18 72 -72.5 112t-142.5 40q-81 0 -140 -36.5t-90.5 -106.5t-31.5 -167
q0 -100 32.5 -170t91 -105t136.5 -35q119 0 178 65t59 191h-231v61h292zM340 -171q29 19 29 50h-34v79h76v-55q0 -39 -11.5 -62t-36.5 -39z" />
    <glyph glyph-name="Gdotaccent" unicode="&#x120;" horiz-adv-x="730" 
d="M670 364v-364h-51l-8 116q-29 -58 -91 -94.5t-150 -36.5q-97 0 -171.5 43t-116.5 126.5t-42 202.5q0 113 40 196.5t115.5 129t179.5 45.5q70 0 130 -23t101.5 -70.5t55.5 -119.5h-73q-18 72 -72.5 112t-142.5 40q-81 0 -140 -36.5t-90.5 -106.5t-31.5 -167
q0 -100 32.5 -170t91 -105t136.5 -35q119 0 178 65t59 191h-231v61h292zM414 813h-82v97h82v-97z" />
    <glyph glyph-name="Hbar" unicode="&#x126;" horiz-adv-x="717" 
d="M702 533h-70v-533h-71v341h-405v-341h-71v533h-70v51h70v129h71v-129h405v129h71v-129h70v-51zM561 533h-405v-129h405v129z" />
    <glyph glyph-name="Hcircumflex" unicode="&#x124;" horiz-adv-x="697" 
d="M74 713h72v-309h405v309h71v-713h-71v341h-405v-341h-72v713zM384 910l112 -120h-72l-75 80l-75 -80h-74l112 120h72z" />
    <glyph glyph-name="IJ" unicode="&#x132;" horiz-adv-x="660" 
d="M68 713h71v-318h-71v318zM191 12q-59 27 -91 78t-32 122v18h71v-3q0 -181 191 -181q95 0 143.5 49t48.5 157v461h70v-467q0 -130 -69 -195.5t-193 -65.5q-80 0 -139 27z" />
    <glyph glyph-name="Iacute" unicode="&#xcd;" horiz-adv-x="220" 
d="M74 713h72v-713h-72v713zM198 910h87l-129 -110h-63z" />
    <glyph glyph-name="Ibreve" unicode="&#x12c;" horiz-adv-x="220" 
d="M74 713h72v-713h-72v713zM41 809.5q-30 14.5 -47.5 40.5t-21.5 60h51q6 -31 29 -49t58 -18t58.5 18t29.5 49h51q-4 -34 -22 -60t-48 -40.5t-69 -14.5t-69 14.5z" />
    <glyph glyph-name="Icircumflex" unicode="&#xce;" horiz-adv-x="220" 
d="M74 713h72v-713h-72v713zM146 910l112 -120h-72l-75 80l-75 -80h-74l112 120h72z" />
    <glyph glyph-name="Idieresis" unicode="&#xcf;" horiz-adv-x="220" 
d="M74 713h72v-713h-72v713zM56 823h-79v81h79v-81zM243 823h-78v81h78v-81z" />
    <glyph glyph-name="Idotaccent" unicode="&#x130;" horiz-adv-x="220" 
d="M74 713h72v-713h-72v713zM152 813h-82v97h82v-97z" />
    <glyph glyph-name="Igrave" unicode="&#xcc;" horiz-adv-x="220" 
d="M74 713h72v-713h-72v713zM64 800l-129 110h87l105 -110h-63z" />
    <glyph glyph-name="Imacron" unicode="&#x12a;" horiz-adv-x="220" 
d="M74 713h72v-713h-72v713zM238 835h-256v51h256v-51z" />
    <glyph glyph-name="Iogonek" unicode="&#x12e;" horiz-adv-x="220" 
d="M168 -150v-48q-14 -4 -26.5 -6t-29.5 -2q-39 0 -69 14t-46 40t-16 59q0 38 25.5 66.5t67.5 41.5v698h72v-713h-2q-47 0 -74 -23.5t-27 -60.5q0 -35 22 -54t56 -19q22 0 47 7z" />
    <glyph glyph-name="Itilde" unicode="&#x128;" horiz-adv-x="220" 
d="M74 713h72v-713h-72v713zM-25.5 875q25.5 29 67.5 29q22 0 40 -7t42 -21q19 -11 30.5 -16t22.5 -5q22 0 33.5 14t14.5 41h49q-2 -47 -27 -76t-67 -29q-22 0 -40 7t-44 21q-17 10 -29 15.5t-24 5.5q-21 0 -32.5 -14t-14.5 -41h-49q2 47 27.5 76z" />
    <glyph glyph-name="Jcircumflex" unicode="&#x134;" horiz-adv-x="572" 
d="M131.5 13q-54.5 28 -83 81.5t-28.5 127.5v24h71v-17q0 -89 42.5 -136t128.5 -47q82 0 127 51t45 151v465h70v-472q0 -83 -30 -140t-84 -86.5t-128 -29.5q-76 0 -130.5 28zM506 910l112 -120h-72l-75 80l-75 -80h-74l112 120h72z" />
    <glyph glyph-name="uni0136" unicode="&#x136;" horiz-adv-x="635" 
d="M331 418l298 -418h-85l-265 373l-133 -130v-243h-72v714h72v-384l397 384h93zM307 -171q29 19 29 50h-34v79h76v-55q0 -39 -11.5 -62t-36.5 -39z" />
    <glyph glyph-name="Lacute" unicode="&#x139;" horiz-adv-x="542" 
d="M74 713h72v-651h386v-62h-458v713zM198 910h87l-129 -110h-63z" />
    <glyph glyph-name="Lcaron" unicode="&#x13d;" horiz-adv-x="542" 
d="M74 713h72v-651h386v-62h-458v713zM274 713h66l-29 -160h-44z" />
    <glyph glyph-name="uni013B" unicode="&#x13b;" horiz-adv-x="542" 
d="M74 713h72v-651h386v-62h-458v713zM270 -171q29 19 29 50h-34v79h76v-55q0 -39 -11.5 -62t-36.5 -39z" />
    <glyph glyph-name="Ldot" unicode="&#x13f;" horiz-adv-x="542" 
d="M74 713h72v-651h386v-62h-458v713zM410 340h-68v92h68v-92z" />
    <glyph glyph-name="Lslash" unicode="&#x141;" horiz-adv-x="544" 
d="M534 62v-62h-457v264l-50 -44v58l50 43v392h71v-331l182 157v-57l-182 -157v-263h386z" />
    <glyph glyph-name="Nacute" unicode="&#x143;" horiz-adv-x="697" 
d="M74 713h80l399 -604v604h69v-713h-79l-400 604v-604h-69v713zM436 910h87l-129 -110h-63z" />
    <glyph glyph-name="Ncaron" unicode="&#x147;" horiz-adv-x="697" 
d="M74 713h80l399 -604v604h69v-713h-79l-400 604v-604h-69v713zM200 910h74l75 -81l75 81h72l-112 -120h-72z" />
    <glyph glyph-name="uni0145" unicode="&#x145;" horiz-adv-x="697" 
d="M74 713h80l399 -604v604h69v-713h-79l-400 604v-604h-69v713zM315 -171q29 19 29 50h-34v79h76v-55q0 -39 -11.5 -62t-36.5 -39z" />
    <glyph glyph-name="Eng" unicode="&#x14a;" horiz-adv-x="697" 
d="M481 -140q75 0 75 65v57l-413 622v-604h-69v713h80l399 -604v604h69v-784q0 -64 -31 -96.5t-91 -32.5q-54 0 -83 5v55h64z" />
    <glyph glyph-name="Ntilde" unicode="&#xd1;" horiz-adv-x="697" 
d="M74 713h80l399 -604v604h69v-713h-79l-400 604v-604h-69v713zM212.5 875q25.5 29 67.5 29q22 0 40 -7t42 -21q19 -11 30.5 -16t22.5 -5q22 0 33.5 14t14.5 41h49q-2 -47 -27 -76t-67 -29q-22 0 -40 7t-44 21q-17 10 -29 15.5t-24 5.5q-21 0 -32.5 -14t-14.5 -41h-49
q2 47 27.5 76z" />
    <glyph glyph-name="Oacute" unicode="&#xd3;" horiz-adv-x="737" 
d="M199.5 28q-74.5 43 -117 127t-42.5 201q0 118 42.5 202t117 127t168.5 43t168.5 -43t117.5 -127t43 -202q0 -117 -43 -201t-117.5 -127t-168.5 -43t-168.5 43zM500 82.5q58 35.5 91.5 105t33.5 168.5q0 100 -33.5 170t-91.5 105.5t-132 35.5t-132 -35.5t-91 -105.5
t-33 -170q0 -99 33 -168.5t91 -105t132 -35.5t132 35.5zM456 910h87l-129 -110h-63z" />
    <glyph glyph-name="Obreve" unicode="&#x14e;" horiz-adv-x="737" 
d="M199.5 28q-74.5 43 -117 127t-42.5 201q0 118 42.5 202t117 127t168.5 43t168.5 -43t117.5 -127t43 -202q0 -117 -43 -201t-117.5 -127t-168.5 -43t-168.5 43zM500 82.5q58 35.5 91.5 105t33.5 168.5q0 100 -33.5 170t-91.5 105.5t-132 35.5t-132 -35.5t-91 -105.5
t-33 -170q0 -99 33 -168.5t91 -105t132 -35.5t132 35.5zM299 809.5q-30 14.5 -47.5 40.5t-21.5 60h51q6 -31 29 -49t58 -18t58.5 18t29.5 49h51q-4 -34 -22 -60t-48 -40.5t-69 -14.5t-69 14.5z" />
    <glyph glyph-name="Ocircumflex" unicode="&#xd4;" horiz-adv-x="737" 
d="M199.5 28q-74.5 43 -117 127t-42.5 201q0 118 42.5 202t117 127t168.5 43t168.5 -43t117.5 -127t43 -202q0 -117 -43 -201t-117.5 -127t-168.5 -43t-168.5 43zM500 82.5q58 35.5 91.5 105t33.5 168.5q0 100 -33.5 170t-91.5 105.5t-132 35.5t-132 -35.5t-91 -105.5
t-33 -170q0 -99 33 -168.5t91 -105t132 -35.5t132 35.5zM404 910l112 -120h-72l-75 80l-75 -80h-74l112 120h72z" />
    <glyph glyph-name="Odieresis" unicode="&#xd6;" horiz-adv-x="737" 
d="M199.5 28q-74.5 43 -117 127t-42.5 201q0 118 42.5 202t117 127t168.5 43t168.5 -43t117.5 -127t43 -202q0 -117 -43 -201t-117.5 -127t-168.5 -43t-168.5 43zM500 82.5q58 35.5 91.5 105t33.5 168.5q0 100 -33.5 170t-91.5 105.5t-132 35.5t-132 -35.5t-91 -105.5
t-33 -170q0 -99 33 -168.5t91 -105t132 -35.5t132 35.5zM314 823h-79v81h79v-81zM501 823h-78v81h78v-81z" />
    <glyph glyph-name="Ograve" unicode="&#xd2;" horiz-adv-x="737" 
d="M199.5 28q-74.5 43 -117 127t-42.5 201q0 118 42.5 202t117 127t168.5 43t168.5 -43t117.5 -127t43 -202q0 -117 -43 -201t-117.5 -127t-168.5 -43t-168.5 43zM500 82.5q58 35.5 91.5 105t33.5 168.5q0 100 -33.5 170t-91.5 105.5t-132 35.5t-132 -35.5t-91 -105.5
t-33 -170q0 -99 33 -168.5t91 -105t132 -35.5t132 35.5zM322 800l-129 110h87l105 -110h-63z" />
    <glyph glyph-name="Ohungarumlaut" unicode="&#x150;" horiz-adv-x="737" 
d="M199.5 28q-74.5 43 -117 127t-42.5 201q0 118 42.5 202t117 127t168.5 43t168.5 -43t117.5 -127t43 -202q0 -117 -43 -201t-117.5 -127t-168.5 -43t-168.5 43zM500 82.5q58 35.5 91.5 105t33.5 168.5q0 100 -33.5 170t-91.5 105.5t-132 35.5t-132 -35.5t-91 -105.5
t-33 -170q0 -99 33 -168.5t91 -105t132 -35.5t132 35.5zM331 910h72l-86 -115h-55zM497 910h71l-85 -115h-55z" />
    <glyph glyph-name="Omacron" unicode="&#x14c;" horiz-adv-x="737" 
d="M199.5 28q-74.5 43 -117 127t-42.5 201q0 118 42.5 202t117 127t168.5 43t168.5 -43t117.5 -127t43 -202q0 -117 -43 -201t-117.5 -127t-168.5 -43t-168.5 43zM500 82.5q58 35.5 91.5 105t33.5 168.5q0 100 -33.5 170t-91.5 105.5t-132 35.5t-132 -35.5t-91 -105.5
t-33 -170q0 -99 33 -168.5t91 -105t132 -35.5t132 35.5zM496 835h-256v51h256v-51z" />
    <glyph glyph-name="Oslash" unicode="&#xd8;" horiz-adv-x="737" 
d="M664 536.5q33 -77.5 33 -180.5q0 -117 -43 -201t-117.5 -127t-168.5 -43q-88 0 -156 37l-48 -87l-50 26l51 91q-59 48 -92 125t-33 179q0 118 42.5 202t117 127t168.5 43q87 0 156 -36l48 86l50 -26l-51 -91q60 -47 93 -124.5zM134.5 209q22.5 -62 63.5 -101l297 529
q-55 30 -127 30q-74 0 -132 -35.5t-91 -105.5t-33 -170q0 -85 22.5 -147zM500 82.5q58 35.5 91.5 105t33.5 168.5q0 86 -22.5 148.5t-64.5 101.5l-297 -529q53 -30 127 -30t132 35.5z" />
    <glyph glyph-name="Otilde" unicode="&#xd5;" horiz-adv-x="737" 
d="M199.5 28q-74.5 43 -117 127t-42.5 201q0 118 42.5 202t117 127t168.5 43t168.5 -43t117.5 -127t43 -202q0 -117 -43 -201t-117.5 -127t-168.5 -43t-168.5 43zM500 82.5q58 35.5 91.5 105t33.5 168.5q0 100 -33.5 170t-91.5 105.5t-132 35.5t-132 -35.5t-91 -105.5
t-33 -170q0 -99 33 -168.5t91 -105t132 -35.5t132 35.5zM232.5 875q25.5 29 67.5 29q22 0 40 -7t42 -21q19 -11 30.5 -16t22.5 -5q22 0 33.5 14t14.5 41h49q-2 -47 -27 -76t-67 -29q-22 0 -40 7t-44 21q-17 10 -29 15.5t-24 5.5q-21 0 -32.5 -14t-14.5 -41h-49q2 47 27.5 76
z" />
    <glyph glyph-name="OE" unicode="&#x152;" horiz-adv-x="1069" 
d="M1029 60v-60h-457v60q-37 -38 -90.5 -56.5t-113.5 -18.5q-94 0 -168.5 43t-117 127t-42.5 201q0 118 43 202t117.5 127t168.5 43q61 0 113.5 -18t89.5 -56v59h453v-60h-383v-251h355v-60h-355v-282h387zM487 70q52 23 85 72v430q-33 49 -85 72t-118 23
q-74 0 -132.5 -35.5t-91.5 -105.5t-33 -170q0 -99 33 -168.5t91.5 -105t132.5 -35.5q66 0 118 23z" />
    <glyph glyph-name="Thorn" unicode="&#xde;" horiz-adv-x="607" 
d="M74 713h72v-133h198q121 0 182 -52t61 -153q0 -103 -61.5 -156t-181.5 -53h-198v-166h-72v713zM343 226q85 0 129 36.5t44 112.5q0 74 -43.5 109.5t-129.5 35.5h-197v-294h197z" />
    <glyph glyph-name="R.ss01" horiz-adv-x="652" 
d="M546 0l-185 305h-215v-305h-72v713h297q67 0 118 -22.5t80 -68.5t29 -114q0 -83 -42.5 -132t-118.5 -64l191 -312h-82zM146 365h215q81 0 123 34.5t42 108.5q0 68 -43 106.5t-122 38.5h-215v-288z" />
    <glyph glyph-name="Racute" unicode="&#x154;" horiz-adv-x="656" 
d="M74 713h303q104 0 162.5 -48.5t58.5 -144.5q0 -66 -34.5 -110t-100.5 -63q51 -12 76 -41t33 -84l17 -111q5 -37 12 -61.5t16 -49.5h-73q-7 17 -12.5 39.5t-12.5 65.5l-16 103q-6 40 -21.5 63t-41.5 33t-67 10h-227v-314h-72v713zM370 375q77 0 116.5 35.5t39.5 103.5
t-39 103.5t-119 35.5h-222v-278h224zM396 910h87l-129 -110h-63z" />
    <glyph glyph-name="Racute.ss01" horiz-adv-x="652" 
d="M546 0l-185 305h-215v-305h-72v713h297q67 0 118 -22.5t80 -68.5t29 -114q0 -83 -42.5 -132t-118.5 -64l191 -312h-82zM146 365h215q81 0 123 34.5t42 108.5q0 68 -43 106.5t-122 38.5h-215v-288zM393 910h87l-129 -110h-63z" />
    <glyph glyph-name="Rcaron" unicode="&#x158;" horiz-adv-x="656" 
d="M74 713h303q104 0 162.5 -48.5t58.5 -144.5q0 -66 -34.5 -110t-100.5 -63q51 -12 76 -41t33 -84l17 -111q5 -37 12 -61.5t16 -49.5h-73q-7 17 -12.5 39.5t-12.5 65.5l-16 103q-6 40 -21.5 63t-41.5 33t-67 10h-227v-314h-72v713zM370 375q77 0 116.5 35.5t39.5 103.5
t-39 103.5t-119 35.5h-222v-278h224zM161 910h74l75 -81l75 81h72l-112 -120h-72z" />
    <glyph glyph-name="Rcaron.ss01" horiz-adv-x="652" 
d="M546 0l-185 305h-215v-305h-72v713h297q67 0 118 -22.5t80 -68.5t29 -114q0 -83 -42.5 -132t-118.5 -64l191 -312h-82zM146 365h215q81 0 123 34.5t42 108.5q0 68 -43 106.5t-122 38.5h-215v-288zM158 910h74l75 -81l75 81h72l-112 -120h-72z" />
    <glyph glyph-name="uni0156" unicode="&#x156;" horiz-adv-x="656" 
d="M74 713h303q104 0 162.5 -48.5t58.5 -144.5q0 -66 -34.5 -110t-100.5 -63q51 -12 76 -41t33 -84l17 -111q5 -37 12 -61.5t16 -49.5h-73q-7 17 -12.5 39.5t-12.5 65.5l-16 103q-6 40 -21.5 63t-41.5 33t-67 10h-227v-314h-72v713zM370 375q77 0 116.5 35.5t39.5 103.5
t-39 103.5t-119 35.5h-222v-278h224zM300 -171q29 19 29 50h-34v79h76v-55q0 -39 -11.5 -62t-36.5 -39z" />
    <glyph glyph-name="uni0156.ss01" horiz-adv-x="652" 
d="M546 0l-185 305h-215v-305h-72v713h297q67 0 118 -22.5t80 -68.5t29 -114q0 -83 -42.5 -132t-118.5 -64l191 -312h-82zM146 365h215q81 0 123 34.5t42 108.5q0 68 -43 106.5t-122 38.5h-215v-288zM303 -171q29 19 29 50h-34v79h76v-55q0 -39 -11.5 -62t-36.5 -39z" />
    <glyph glyph-name="Sacute" unicode="&#x15a;" horiz-adv-x="632" 
d="M180 10.5q-61 25.5 -93.5 75t-32.5 120.5h73q0 -79 53.5 -120t150.5 -41q59 0 100.5 17.5t63 49t21.5 73.5q0 99 -127 129l-155 37q-87 21 -127 64.5t-40 114.5q0 57 30 102t87 70.5t133 25.5q72 0 127.5 -22.5t88 -66t35.5 -104.5h-72q-5 62 -51 97.5t-128 35.5
q-58 0 -98 -18t-60 -48.5t-20 -69.5q0 -49 29.5 -76.5t84.5 -40.5l155 -37q91 -22 135.5 -69t44.5 -122q0 -63 -32 -108.5t-91 -69.5t-137 -24q-87 0 -148 25.5zM405 910h87l-129 -110h-63z" />
    <glyph glyph-name="Scaron" unicode="&#x160;" horiz-adv-x="632" 
d="M180 10.5q-61 25.5 -93.5 75t-32.5 120.5h73q0 -79 53.5 -120t150.5 -41q59 0 100.5 17.5t63 49t21.5 73.5q0 99 -127 129l-155 37q-87 21 -127 64.5t-40 114.5q0 57 30 102t87 70.5t133 25.5q72 0 127.5 -22.5t88 -66t35.5 -104.5h-72q-5 62 -51 97.5t-128 35.5
q-58 0 -98 -18t-60 -48.5t-20 -69.5q0 -49 29.5 -76.5t84.5 -40.5l155 -37q91 -22 135.5 -69t44.5 -122q0 -63 -32 -108.5t-91 -69.5t-137 -24q-87 0 -148 25.5zM169 910h74l75 -81l75 81h72l-112 -120h-72z" />
    <glyph glyph-name="Scedilla" unicode="&#x15e;" horiz-adv-x="632" 
d="M558 81.5q-30 -44.5 -85 -69.5t-129 -27l-4 -30h7q47 0 73.5 -20.5t26.5 -57.5q0 -39 -29 -61t-84 -22q-39 0 -80 12v49q40 -14 78 -14q27 0 41 9.5t14 27.5q0 34 -55 34q-23 0 -45 -5l12 79q-117 6 -181 62.5t-64 157.5h73q0 -79 53.5 -120t150.5 -41q59 0 100.5 17.5
t63 49t21.5 73.5q0 99 -127 129l-155 37q-87 21 -127 64.5t-40 114.5q0 57 30 102t87 70.5t133 25.5q72 0 127.5 -22.5t88 -66t35.5 -104.5h-72q-5 62 -51 97.5t-128 35.5q-58 0 -98 -18t-60 -48.5t-20 -69.5q0 -49 29.5 -76.5t84.5 -40.5l155 -37q91 -22 135.5 -69
t44.5 -122q0 -61 -30 -105.5z" />
    <glyph glyph-name="Scircumflex" unicode="&#x15c;" horiz-adv-x="632" 
d="M180 10.5q-61 25.5 -93.5 75t-32.5 120.5h73q0 -79 53.5 -120t150.5 -41q59 0 100.5 17.5t63 49t21.5 73.5q0 99 -127 129l-155 37q-87 21 -127 64.5t-40 114.5q0 57 30 102t87 70.5t133 25.5q72 0 127.5 -22.5t88 -66t35.5 -104.5h-72q-5 62 -51 97.5t-128 35.5
q-58 0 -98 -18t-60 -48.5t-20 -69.5q0 -49 29.5 -76.5t84.5 -40.5l155 -37q91 -22 135.5 -69t44.5 -122q0 -63 -32 -108.5t-91 -69.5t-137 -24q-87 0 -148 25.5zM353 910l112 -120h-72l-75 80l-75 -80h-74l112 120h72z" />
    <glyph glyph-name="uni0218" unicode="&#x218;" horiz-adv-x="632" 
d="M180 10.5q-61 25.5 -93.5 75t-32.5 120.5h73q0 -79 53.5 -120t150.5 -41q59 0 100.5 17.5t63 49t21.5 73.5q0 99 -127 129l-155 37q-87 21 -127 64.5t-40 114.5q0 57 30 102t87 70.5t133 25.5q72 0 127.5 -22.5t88 -66t35.5 -104.5h-72q-5 62 -51 97.5t-128 35.5
q-58 0 -98 -18t-60 -48.5t-20 -69.5q0 -49 29.5 -76.5t84.5 -40.5l155 -37q91 -22 135.5 -69t44.5 -122q0 -63 -32 -108.5t-91 -69.5t-137 -24q-87 0 -148 25.5zM295 -171q29 19 29 50h-34v79h76v-55q0 -39 -11.5 -62t-36.5 -39z" />
    <glyph glyph-name="uni1E9E" unicode="&#x1e9e;" horiz-adv-x="651" 
d="M74 450q0 135 70.5 206.5t202.5 71.5q81 0 142 -29.5t93 -85.5l-171 -209q96 -5 150.5 -55t54.5 -149q0 -98 -61.5 -149t-184.5 -51h-56v59h55q89 0 132.5 35t43.5 107q0 142 -167 142h-56v58l174 213q-25 27 -63 40.5t-86 13.5q-201 0 -201 -226v-442h-72v450z" />
    <glyph glyph-name="Tbar" unicode="&#x166;" horiz-adv-x="581" 
d="M326 652v-225h140v-52h-140v-375h-71v375h-140v52h140v225h-240v61h551v-61h-240z" />
    <glyph glyph-name="Tcaron" unicode="&#x164;" horiz-adv-x="571" 
d="M561 652h-240v-652h-71v652h-240v61h551v-61zM137 910h74l75 -81l75 81h72l-112 -120h-72z" />
    <glyph glyph-name="uni0162" unicode="&#x162;" horiz-adv-x="571" 
d="M561 652h-240v-652h-71v652h-240v61h551v-61zM252 -171q29 19 29 50h-34v79h76v-55q0 -39 -11.5 -62t-36.5 -39z" />
    <glyph glyph-name="uni021A" unicode="&#x21a;" horiz-adv-x="571" 
d="M561 652h-240v-652h-71v652h-240v61h551v-61zM252 -171q29 19 29 50h-34v79h76v-55q0 -39 -11.5 -62t-36.5 -39z" />
    <glyph glyph-name="Uacute" unicode="&#xda;" horiz-adv-x="679" 
d="M137.5 56.5q-70.5 71.5 -70.5 205.5v451h71v-443q0 -112 50 -168t151 -56q103 0 152.5 56t49.5 167v444h70v-451q0 -134 -70 -205.5t-202 -71.5q-131 0 -201.5 71.5zM427 910h87l-129 -110h-63z" />
    <glyph glyph-name="Ubreve" unicode="&#x16c;" horiz-adv-x="679" 
d="M137.5 56.5q-70.5 71.5 -70.5 205.5v451h71v-443q0 -112 50 -168t151 -56q103 0 152.5 56t49.5 167v444h70v-451q0 -134 -70 -205.5t-202 -71.5q-131 0 -201.5 71.5zM270 809.5q-30 14.5 -47.5 40.5t-21.5 60h51q6 -31 29 -49t58 -18t58.5 18t29.5 49h51q-4 -34 -22 -60
t-48 -40.5t-69 -14.5t-69 14.5z" />
    <glyph glyph-name="Ucircumflex" unicode="&#xdb;" horiz-adv-x="679" 
d="M137.5 56.5q-70.5 71.5 -70.5 205.5v451h71v-443q0 -112 50 -168t151 -56q103 0 152.5 56t49.5 167v444h70v-451q0 -134 -70 -205.5t-202 -71.5q-131 0 -201.5 71.5zM375 910l112 -120h-72l-75 80l-75 -80h-74l112 120h72z" />
    <glyph glyph-name="Udieresis" unicode="&#xdc;" horiz-adv-x="679" 
d="M137.5 56.5q-70.5 71.5 -70.5 205.5v451h71v-443q0 -112 50 -168t151 -56q103 0 152.5 56t49.5 167v444h70v-451q0 -134 -70 -205.5t-202 -71.5q-131 0 -201.5 71.5zM285 823h-79v81h79v-81zM472 823h-78v81h78v-81z" />
    <glyph glyph-name="Ugrave" unicode="&#xd9;" horiz-adv-x="679" 
d="M137.5 56.5q-70.5 71.5 -70.5 205.5v451h71v-443q0 -112 50 -168t151 -56q103 0 152.5 56t49.5 167v444h70v-451q0 -134 -70 -205.5t-202 -71.5q-131 0 -201.5 71.5zM294 800l-129 110h87l105 -110h-63z" />
    <glyph glyph-name="Uhungarumlaut" unicode="&#x170;" horiz-adv-x="679" 
d="M137.5 56.5q-70.5 71.5 -70.5 205.5v451h71v-443q0 -112 50 -168t151 -56q103 0 152.5 56t49.5 167v444h70v-451q0 -134 -70 -205.5t-202 -71.5q-131 0 -201.5 71.5zM302 910h72l-86 -115h-55zM468 910h71l-85 -115h-55z" />
    <glyph glyph-name="Umacron" unicode="&#x16a;" horiz-adv-x="679" 
d="M137.5 56.5q-70.5 71.5 -70.5 205.5v451h71v-443q0 -112 50 -168t151 -56q103 0 152.5 56t49.5 167v444h70v-451q0 -134 -70 -205.5t-202 -71.5q-131 0 -201.5 71.5zM467 835h-256v51h256v-51z" />
    <glyph glyph-name="Uogonek" unicode="&#x172;" horiz-adv-x="679" 
d="M368.5 -192.5q-29.5 13.5 -45.5 38t-16 56.5q0 26 11.5 47.5t32.5 35.5q-142 0 -213 70.5t-71 206.5v451h71v-443q0 -112 50 -168t151 -56q103 0 152.5 56t49.5 167v444h70v-451q0 -111 -45.5 -177t-135.5 -91q-30 -8 -46 -28.5t-16 -48.5q0 -36 22 -55t56 -19q23 0 48 7
v-48q-15 -5 -27 -6.5t-29 -1.5q-40 0 -69.5 13.5z" />
    <glyph glyph-name="Uring" unicode="&#x16e;" horiz-adv-x="679" 
d="M137.5 56.5q-70.5 71.5 -70.5 205.5v451h71v-443q0 -112 50 -168t151 -56q103 0 152.5 56t49.5 167v444h70v-451q0 -134 -70 -205.5t-202 -71.5q-131 0 -201.5 71.5zM288 755.5q-23 13.5 -37 36.5t-14 51t13.5 51.5t37 36.5t51.5 13t51.5 -13t37 -36.5t13.5 -51.5
t-13.5 -51t-37 -36.5t-51.5 -13.5t-51 13.5zM377.5 802q15.5 15 15.5 41q0 24 -15.5 40t-38.5 16q-22 0 -37.5 -16t-15.5 -40q0 -25 15 -40.5t38 -15.5t38.5 15z" />
    <glyph glyph-name="Utilde" unicode="&#x168;" horiz-adv-x="679" 
d="M137.5 56.5q-70.5 71.5 -70.5 205.5v451h71v-443q0 -112 50 -168t151 -56q103 0 152.5 56t49.5 167v444h70v-451q0 -134 -70 -205.5t-202 -71.5q-131 0 -201.5 71.5zM203.5 875q25.5 29 67.5 29q22 0 40 -7t42 -21q19 -11 30.5 -16t22.5 -5q22 0 33.5 14t14.5 41h49
q-2 -47 -27 -76t-67 -29q-22 0 -40 7t-44 21q-17 10 -29 15.5t-24 5.5q-21 0 -32.5 -14t-14.5 -41h-49q2 47 27.5 76z" />
    <glyph glyph-name="Wacute" unicode="&#x1e82;" horiz-adv-x="939" 
d="M10 713h75l163 -626l179 626h89l175 -626l167 626h71l-199 -713h-76l-185 640l-184 -640h-75zM559 910h87l-129 -110h-63z" />
    <glyph glyph-name="Wcircumflex" unicode="&#x174;" horiz-adv-x="939" 
d="M10 713h75l163 -626l179 626h89l175 -626l167 626h71l-199 -713h-76l-185 640l-184 -640h-75zM507 910l112 -120h-72l-75 80l-75 -80h-74l112 120h72z" />
    <glyph glyph-name="Wdieresis" unicode="&#x1e84;" horiz-adv-x="939" 
d="M10 713h75l163 -626l179 626h89l175 -626l167 626h71l-199 -713h-76l-185 640l-184 -640h-75zM417 823h-79v81h79v-81zM604 823h-78v81h78v-81z" />
    <glyph glyph-name="Wgrave" unicode="&#x1e80;" horiz-adv-x="939" 
d="M10 713h75l163 -626l179 626h89l175 -626l167 626h71l-199 -713h-76l-185 640l-184 -640h-75zM425 800l-129 110h87l105 -110h-63z" />
    <glyph glyph-name="Yacute" unicode="&#xdd;" horiz-adv-x="588" 
d="M259 298l-264 415h80l221 -350l221 350h77l-264 -415v-298h-71v298zM382 910h87l-129 -110h-63z" />
    <glyph glyph-name="Ycircumflex" unicode="&#x176;" horiz-adv-x="588" 
d="M259 298l-264 415h80l221 -350l221 350h77l-264 -415v-298h-71v298zM330 910l112 -120h-72l-75 80l-75 -80h-74l112 120h72z" />
    <glyph glyph-name="Ydieresis" unicode="&#x178;" horiz-adv-x="588" 
d="M259 298l-264 415h80l221 -350l221 350h77l-264 -415v-298h-71v298zM240 823h-79v81h79v-81zM427 823h-78v81h78v-81z" />
    <glyph glyph-name="Ygrave" unicode="&#x1ef2;" horiz-adv-x="588" 
d="M259 298l-264 415h80l221 -350l221 350h77l-264 -415v-298h-71v298zM248 800l-129 110h87l105 -110h-63z" />
    <glyph glyph-name="Zacute" unicode="&#x179;" horiz-adv-x="583" 
d="M33 62l433 590h-427v61h509v-62l-433 -590h442v-61h-524v62zM382 910h87l-129 -110h-63z" />
    <glyph glyph-name="Zcaron" unicode="&#x17d;" horiz-adv-x="583" 
d="M33 62l433 590h-427v61h509v-62l-433 -590h442v-61h-524v62zM146 910h74l75 -81l75 81h72l-112 -120h-72z" />
    <glyph glyph-name="Zdotaccent" unicode="&#x17b;" horiz-adv-x="583" 
d="M33 62l433 590h-427v61h509v-62l-433 -590h442v-61h-524v62zM336 813h-82v97h82v-97z" />
    <glyph glyph-name="aacute" unicode="&#xe1;" horiz-adv-x="557" 
d="M117 4.5q-41 19.5 -62 55t-21 84.5q0 68 41.5 109t122.5 54l117 18q34 5 52 14t25.5 24.5t7.5 41.5q0 45 -30.5 72t-100.5 27q-135 0 -143 -105h-70q3 52 30 89t74 56t110 19q71 0 115 -20.5t64 -62t20 -107.5v-262q0 -29 9 -40t29 -11h16v-60q-18 -2 -29 -2
q-41 0 -64.5 23t-24.5 64q-27 -49 -75 -74.5t-114 -25.5q-58 0 -99 19.5zM318.5 65.5q39.5 21.5 60.5 61t21 92.5v89q-8 -14 -24.5 -21.5t-47.5 -13.5l-117 -22q-55 -10 -80 -36t-25 -70q0 -45 29.5 -73t89.5 -28q54 0 93.5 21.5zM358 777h83l-130 -137h-61z" />
    <glyph glyph-name="abreve" unicode="&#x103;" horiz-adv-x="557" 
d="M117 4.5q-41 19.5 -62 55t-21 84.5q0 68 41.5 109t122.5 54l117 18q34 5 52 14t25.5 24.5t7.5 41.5q0 45 -30.5 72t-100.5 27q-135 0 -143 -105h-70q3 52 30 89t74 56t110 19q71 0 115 -20.5t64 -62t20 -107.5v-262q0 -29 9 -40t29 -11h16v-60q-18 -2 -29 -2
q-41 0 -64.5 23t-24.5 64q-27 -49 -75 -74.5t-114 -25.5q-58 0 -99 19.5zM318.5 65.5q39.5 21.5 60.5 61t21 92.5v89q-8 -14 -24.5 -21.5t-47.5 -13.5l-117 -22q-55 -10 -80 -36t-25 -70q0 -45 29.5 -73t89.5 -28q54 0 93.5 21.5zM388.5 704.5q-18.5 -30.5 -48.5 -46.5
t-68 -16q-37 0 -67 16t-48.5 46.5t-21.5 72.5h52q6 -43 28.5 -64t56.5 -21t57 21t29 64h51q-2 -42 -20.5 -72.5z" />
    <glyph glyph-name="acircumflex" unicode="&#xe2;" horiz-adv-x="557" 
d="M117 4.5q-41 19.5 -62 55t-21 84.5q0 68 41.5 109t122.5 54l117 18q34 5 52 14t25.5 24.5t7.5 41.5q0 45 -30.5 72t-100.5 27q-135 0 -143 -105h-70q3 52 30 89t74 56t110 19q71 0 115 -20.5t64 -62t20 -107.5v-262q0 -29 9 -40t29 -11h16v-60q-18 -2 -29 -2
q-41 0 -64.5 23t-24.5 64q-27 -49 -75 -74.5t-114 -25.5q-58 0 -99 19.5zM318.5 65.5q39.5 21.5 60.5 61t21 92.5v89q-8 -14 -24.5 -21.5t-47.5 -13.5l-117 -22q-55 -10 -80 -36t-25 -70q0 -45 29.5 -73t89.5 -28q54 0 93.5 21.5zM308 777l112 -133h-69l-78 91l-77 -91h-71
l111 133h72z" />
    <glyph glyph-name="adieresis" unicode="&#xe4;" horiz-adv-x="557" 
d="M117 4.5q-41 19.5 -62 55t-21 84.5q0 68 41.5 109t122.5 54l117 18q34 5 52 14t25.5 24.5t7.5 41.5q0 45 -30.5 72t-100.5 27q-135 0 -143 -105h-70q3 52 30 89t74 56t110 19q71 0 115 -20.5t64 -62t20 -107.5v-262q0 -29 9 -40t29 -11h16v-60q-18 -2 -29 -2
q-41 0 -64.5 23t-24.5 64q-27 -49 -75 -74.5t-114 -25.5q-58 0 -99 19.5zM318.5 65.5q39.5 21.5 60.5 61t21 92.5v89q-8 -14 -24.5 -21.5t-47.5 -13.5l-117 -22q-55 -10 -80 -36t-25 -70q0 -45 29.5 -73t89.5 -28q54 0 93.5 21.5zM222 683h-78v81h78v-81zM400 683h-77v81h77
v-81z" />
    <glyph glyph-name="agrave" unicode="&#xe0;" horiz-adv-x="557" 
d="M117 4.5q-41 19.5 -62 55t-21 84.5q0 68 41.5 109t122.5 54l117 18q34 5 52 14t25.5 24.5t7.5 41.5q0 45 -30.5 72t-100.5 27q-135 0 -143 -105h-70q3 52 30 89t74 56t110 19q71 0 115 -20.5t64 -62t20 -107.5v-262q0 -29 9 -40t29 -11h16v-60q-18 -2 -29 -2
q-41 0 -64.5 23t-24.5 64q-27 -49 -75 -74.5t-114 -25.5q-58 0 -99 19.5zM318.5 65.5q39.5 21.5 60.5 61t21 92.5v89q-8 -14 -24.5 -21.5t-47.5 -13.5l-117 -22q-55 -10 -80 -36t-25 -70q0 -45 29.5 -73t89.5 -28q54 0 93.5 21.5zM264 640l-130 137h83l108 -137h-61z" />
    <glyph glyph-name="amacron" unicode="&#x101;" horiz-adv-x="557" 
d="M117 4.5q-41 19.5 -62 55t-21 84.5q0 68 41.5 109t122.5 54l117 18q34 5 52 14t25.5 24.5t7.5 41.5q0 45 -30.5 72t-100.5 27q-135 0 -143 -105h-70q3 52 30 89t74 56t110 19q71 0 115 -20.5t64 -62t20 -107.5v-262q0 -29 9 -40t29 -11h16v-60q-18 -2 -29 -2
q-41 0 -64.5 23t-24.5 64q-27 -49 -75 -74.5t-114 -25.5q-58 0 -99 19.5zM318.5 65.5q39.5 21.5 60.5 61t21 92.5v89q-8 -14 -24.5 -21.5t-47.5 -13.5l-117 -22q-55 -10 -80 -36t-25 -70q0 -45 29.5 -73t89.5 -28q54 0 93.5 21.5zM400 683h-256v51h256v-51z" />
    <glyph glyph-name="aogonek" unicode="&#x105;" horiz-adv-x="557" 
d="M546 -150v-48q-14 -4 -26.5 -6t-29.5 -2q-39 0 -69 14t-46 40t-16 59q0 36 22.5 63t60.5 41q-36 23 -37 74q-27 -49 -75 -74.5t-114 -25.5q-58 0 -99 19.5t-62 55t-21 84.5q0 68 41.5 109t122.5 54l117 18q34 5 52 14t25.5 24.5t7.5 41.5q0 45 -30.5 72t-100.5 27
q-135 0 -143 -105h-70q3 52 30 89t74 56t110 19q71 0 115 -20.5t64 -62t20 -107.5v-262q0 -29 9 -40t29 -11h16v-60q-16 -2 -27 -2q-35 -6 -55 -28t-20 -54q0 -35 22 -54t56 -19q22 0 47 7zM400 308q-8 -14 -24.5 -21.5t-47.5 -13.5l-117 -22q-55 -10 -80 -36t-25 -70
q0 -45 29.5 -73t89.5 -28q54 0 93.5 21.5t60.5 61t21 92.5v89z" />
    <glyph glyph-name="aring" unicode="&#xe5;" horiz-adv-x="557" 
d="M117 4.5q-41 19.5 -62 55t-21 84.5q0 68 41.5 109t122.5 54l117 18q34 5 52 14t25.5 24.5t7.5 41.5q0 45 -30.5 72t-100.5 27q-135 0 -143 -105h-70q3 52 30 89t74 56t110 19q71 0 115 -20.5t64 -62t20 -107.5v-262q0 -29 9 -40t29 -11h16v-60q-18 -2 -29 -2
q-41 0 -64.5 23t-24.5 64q-27 -49 -75 -74.5t-114 -25.5q-58 0 -99 19.5zM318.5 65.5q39.5 21.5 60.5 61t21 92.5v89q-8 -14 -24.5 -21.5t-47.5 -13.5l-117 -22q-55 -10 -80 -36t-25 -70q0 -45 29.5 -73t89.5 -28q54 0 93.5 21.5zM221 654q-23 13 -36.5 36.5t-13.5 51.5
t13.5 51t36.5 36t51 13t51 -13t36.5 -36t13.5 -51t-13.5 -51.5t-36.5 -36.5t-51 -13t-51 13zM310.5 701q15.5 15 15.5 40q0 24 -15.5 40t-38.5 16t-38.5 -16t-15.5 -40q0 -25 15.5 -40t38.5 -15t38.5 15z" />
    <glyph glyph-name="atilde" unicode="&#xe3;" horiz-adv-x="557" 
d="M117 4.5q-41 19.5 -62 55t-21 84.5q0 68 41.5 109t122.5 54l117 18q34 5 52 14t25.5 24.5t7.5 41.5q0 45 -30.5 72t-100.5 27q-135 0 -143 -105h-70q3 52 30 89t74 56t110 19q71 0 115 -20.5t64 -62t20 -107.5v-262q0 -29 9 -40t29 -11h16v-60q-18 -2 -29 -2
q-41 0 -64.5 23t-24.5 64q-27 -49 -75 -74.5t-114 -25.5q-58 0 -99 19.5zM318.5 65.5q39.5 21.5 60.5 61t21 92.5v89q-8 -14 -24.5 -21.5t-47.5 -13.5l-117 -22q-55 -10 -80 -36t-25 -70q0 -45 29.5 -73t89.5 -28q54 0 93.5 21.5zM127.5 742q25.5 29 68.5 29q22 0 40 -7.5
t41 -21.5q19 -11 30.5 -16t23.5 -5q21 0 33 14.5t14 41.5h50q-2 -46 -27.5 -75.5t-66.5 -29.5q-22 0 -40 7t-44 21q-17 10 -29 15.5t-24 5.5q-22 0 -33.5 -14t-14.5 -41h-49q2 47 27.5 76z" />
    <glyph glyph-name="ae" unicode="&#xe6;" horiz-adv-x="904" 
d="M464 277v-2q2 -75 25.5 -126.5t64 -77.5t92.5 -26q56 0 94.5 29.5t53.5 89.5h71q-11 -59 -42 -99.5t-76 -60t-99 -19.5q-77 0 -131.5 36.5t-80.5 104.5q-31 -84 -90 -112.5t-120 -28.5q-59 0 -102.5 19.5t-66.5 55.5t-23 84q0 71 45.5 111t125.5 51l196 25v55
q0 59 -30 88.5t-102 29.5q-135 0 -143 -105h-70q3 52 30 89t74 56t110 19q74 0 119 -29t61 -81q29 54 77.5 82t111.5 28q67 0 119 -33.5t81.5 -96.5t29.5 -146v-10h-405zM549.5 480q-38.5 -25 -60 -65t-24.5 -84h335q-3 45 -22.5 85t-55 64.5t-83.5 24.5q-51 0 -89.5 -25z
M400 276l-189 -25q-55 -7 -80 -34t-25 -72q0 -29 14.5 -51.5t43 -36t70.5 -13.5q81 0 123.5 46.5t42.5 129.5v56z" />
    <glyph glyph-name="cacute" unicode="&#x107;" horiz-adv-x="549" 
d="M154.5 18.5q-56.5 33.5 -88 98.5t-31.5 157t32.5 157t90 98.5t130.5 33.5q59 0 107.5 -20.5t81 -62t40.5 -101.5h-72q-12 61 -54.5 92.5t-103.5 31.5q-52 0 -93 -26t-64.5 -77.5t-23.5 -125.5t23 -125.5t63.5 -77.5t92.5 -26q64 0 106 33.5t54 102.5h72
q-10 -67 -42.5 -110.5t-81 -64.5t-108.5 -21q-74 0 -130.5 33.5zM373 777h83l-130 -137h-61z" />
    <glyph glyph-name="ccaron" unicode="&#x10d;" horiz-adv-x="549" 
d="M154.5 18.5q-56.5 33.5 -88 98.5t-31.5 157t32.5 157t90 98.5t130.5 33.5q59 0 107.5 -20.5t81 -62t40.5 -101.5h-72q-12 61 -54.5 92.5t-103.5 31.5q-52 0 -93 -26t-64.5 -77.5t-23.5 -125.5t23 -125.5t63.5 -77.5t92.5 -26q64 0 106 33.5t54 102.5h72
q-10 -67 -42.5 -110.5t-81 -64.5t-108.5 -21q-74 0 -130.5 33.5zM141 777h71l77 -91l78 91h69l-112 -133h-72z" />
    <glyph glyph-name="ccedilla" unicode="&#xe7;" horiz-adv-x="549" 
d="M391 78.5q42 33.5 54 102.5h72q-14 -94 -71.5 -142.5t-142.5 -52.5l-4 -31h7q47 0 73.5 -20.5t26.5 -57.5q0 -39 -29 -61t-84 -22q-39 0 -80 12v49q40 -14 78 -14q27 0 41 9.5t14 27.5q0 34 -55 34q-23 0 -45 -5l12 79q-67 6 -117 41t-78 98t-28 149q0 92 32.5 157
t90 98.5t130.5 33.5q59 0 107.5 -20.5t81 -62t40.5 -101.5h-72q-12 61 -54.5 92.5t-103.5 31.5q-52 0 -93 -26t-64.5 -77.5t-23.5 -125.5t23 -125.5t63.5 -77.5t92.5 -26q64 0 106 33.5z" />
    <glyph glyph-name="ccircumflex" unicode="&#x109;" horiz-adv-x="549" 
d="M154.5 18.5q-56.5 33.5 -88 98.5t-31.5 157t32.5 157t90 98.5t130.5 33.5q59 0 107.5 -20.5t81 -62t40.5 -101.5h-72q-12 61 -54.5 92.5t-103.5 31.5q-52 0 -93 -26t-64.5 -77.5t-23.5 -125.5t23 -125.5t63.5 -77.5t92.5 -26q64 0 106 33.5t54 102.5h72
q-10 -67 -42.5 -110.5t-81 -64.5t-108.5 -21q-74 0 -130.5 33.5zM323 777l112 -133h-69l-78 91l-77 -91h-71l111 133h72z" />
    <glyph glyph-name="cdotaccent" unicode="&#x10b;" horiz-adv-x="549" 
d="M154.5 18.5q-56.5 33.5 -88 98.5t-31.5 157t32.5 157t90 98.5t130.5 33.5q59 0 107.5 -20.5t81 -62t40.5 -101.5h-72q-12 61 -54.5 92.5t-103.5 31.5q-52 0 -93 -26t-64.5 -77.5t-23.5 -125.5t23 -125.5t63.5 -77.5t92.5 -26q64 0 106 33.5t54 102.5h72
q-10 -67 -42.5 -110.5t-81 -64.5t-108.5 -21q-74 0 -130.5 33.5zM322 634h-70v100h70v-100z" />
    <glyph glyph-name="eth" unicode="&#xf0;" horiz-adv-x="585" 
d="M537 310q0 -111 -31 -183.5t-87 -107t-132 -34.5q-74 0 -131 31.5t-89 92.5t-32 146q0 86 32.5 147.5t88.5 92.5t125 31q58 0 102 -22t76 -70q-19 143 -98 197l-2 -2l-73 -57l-34 42l55 43q-46 13 -112 13h-47v52q35 6 64 6q90 0 150 -27l74 58l36 -42l-59 -46
q124 -96 124 -361zM380.5 70.5q40.5 26.5 63 77.5t22.5 123q0 63 -23.5 107t-64 66t-92.5 22q-53 0 -94 -24.5t-64 -73t-23 -117.5q0 -66 23 -112.5t63.5 -70.5t93.5 -24q55 0 95.5 26.5z" />
    <glyph glyph-name="dcaron" unicode="&#x10f;" horiz-adv-x="599" 
d="M146.5 20.5q-53.5 35.5 -82.5 101t-29 152.5t29 152.5t82 101t123 35.5q65 0 116 -32t75 -84v266h70v-713h-68v105q-25 -55 -76 -87.5t-116 -32.5q-70 0 -123.5 35.5zM373 71q41 26 64 78t23 125q0 74 -23 125.5t-63.5 77.5t-93.5 26q-51 0 -90.5 -26.5t-62 -78
t-22.5 -124.5t22.5 -124.5t62 -78t90.5 -26.5q52 0 93 26zM593 713h66l-29 -160h-44z" />
    <glyph glyph-name="dcroat" unicode="&#x111;" horiz-adv-x="599" 
d="M603 603h-73v-603h-68v105q-25 -55 -76 -87.5t-116 -32.5q-70 0 -123.5 35.5t-82.5 101t-29 152.5t29 152.5t82 101t123 35.5q65 0 116 -32t75 -84v156h-128v43h128v67h70v-67h73v-43zM373 71q41 26 64 78t23 125q0 74 -23 125.5t-63.5 77.5t-93.5 26q-51 0 -90.5 -26.5
t-62 -78t-22.5 -124.5t22.5 -124.5t62 -78t90.5 -26.5q52 0 93 26z" />
    <glyph glyph-name="eacute" unicode="&#xe9;" horiz-adv-x="554" 
d="M520 256h-415q2 -65 26 -113t65.5 -73t94.5 -25q59 0 99 28t55 85h71q-12 -55 -43.5 -94t-78 -59t-101.5 -20q-77 0 -135.5 34.5t-90.5 99.5t-32 155q0 91 31.5 156t86.5 99t126 34q72 0 126 -34t84.5 -100.5t30.5 -159.5v-13zM451 313q-3 54 -23.5 97.5t-58.5 69
t-90 25.5t-90.5 -25.5t-59 -69t-23.5 -97.5h345zM363 777h83l-130 -137h-61z" />
    <glyph glyph-name="ebreve" unicode="&#x115;" horiz-adv-x="554" 
d="M520 256h-415q2 -65 26 -113t65.5 -73t94.5 -25q59 0 99 28t55 85h71q-12 -55 -43.5 -94t-78 -59t-101.5 -20q-77 0 -135.5 34.5t-90.5 99.5t-32 155q0 91 31.5 156t86.5 99t126 34q72 0 126 -34t84.5 -100.5t30.5 -159.5v-13zM451 313q-3 54 -23.5 97.5t-58.5 69
t-90 25.5t-90.5 -25.5t-59 -69t-23.5 -97.5h345zM393.5 704.5q-18.5 -30.5 -48.5 -46.5t-68 -16q-37 0 -67 16t-48.5 46.5t-21.5 72.5h52q6 -43 28.5 -64t56.5 -21t57 21t29 64h51q-2 -42 -20.5 -72.5z" />
    <glyph glyph-name="ecaron" unicode="&#x11b;" horiz-adv-x="554" 
d="M520 256h-415q2 -65 26 -113t65.5 -73t94.5 -25q59 0 99 28t55 85h71q-12 -55 -43.5 -94t-78 -59t-101.5 -20q-77 0 -135.5 34.5t-90.5 99.5t-32 155q0 91 31.5 156t86.5 99t126 34q72 0 126 -34t84.5 -100.5t30.5 -159.5v-13zM451 313q-3 54 -23.5 97.5t-58.5 69
t-90 25.5t-90.5 -25.5t-59 -69t-23.5 -97.5h345zM131 777h71l77 -91l78 91h69l-112 -133h-72z" />
    <glyph glyph-name="ecircumflex" unicode="&#xea;" horiz-adv-x="554" 
d="M520 256h-415q2 -65 26 -113t65.5 -73t94.5 -25q59 0 99 28t55 85h71q-12 -55 -43.5 -94t-78 -59t-101.5 -20q-77 0 -135.5 34.5t-90.5 99.5t-32 155q0 91 31.5 156t86.5 99t126 34q72 0 126 -34t84.5 -100.5t30.5 -159.5v-13zM451 313q-3 54 -23.5 97.5t-58.5 69
t-90 25.5t-90.5 -25.5t-59 -69t-23.5 -97.5h345zM313 777l112 -133h-69l-78 91l-77 -91h-71l111 133h72z" />
    <glyph glyph-name="edieresis" unicode="&#xeb;" horiz-adv-x="554" 
d="M520 256h-415q2 -65 26 -113t65.5 -73t94.5 -25q59 0 99 28t55 85h71q-12 -55 -43.5 -94t-78 -59t-101.5 -20q-77 0 -135.5 34.5t-90.5 99.5t-32 155q0 91 31.5 156t86.5 99t126 34q72 0 126 -34t84.5 -100.5t30.5 -159.5v-13zM451 313q-3 54 -23.5 97.5t-58.5 69
t-90 25.5t-90.5 -25.5t-59 -69t-23.5 -97.5h345zM227 683h-78v81h78v-81zM405 683h-77v81h77v-81z" />
    <glyph glyph-name="edotaccent" unicode="&#x117;" horiz-adv-x="554" 
d="M520 256h-415q2 -65 26 -113t65.5 -73t94.5 -25q59 0 99 28t55 85h71q-12 -55 -43.5 -94t-78 -59t-101.5 -20q-77 0 -135.5 34.5t-90.5 99.5t-32 155q0 91 31.5 156t86.5 99t126 34q72 0 126 -34t84.5 -100.5t30.5 -159.5v-13zM451 313q-3 54 -23.5 97.5t-58.5 69
t-90 25.5t-90.5 -25.5t-59 -69t-23.5 -97.5h345zM312 634h-70v100h70v-100z" />
    <glyph glyph-name="egrave" unicode="&#xe8;" horiz-adv-x="554" 
d="M520 256h-415q2 -65 26 -113t65.5 -73t94.5 -25q59 0 99 28t55 85h71q-12 -55 -43.5 -94t-78 -59t-101.5 -20q-77 0 -135.5 34.5t-90.5 99.5t-32 155q0 91 31.5 156t86.5 99t126 34q72 0 126 -34t84.5 -100.5t30.5 -159.5v-13zM451 313q-3 54 -23.5 97.5t-58.5 69
t-90 25.5t-90.5 -25.5t-59 -69t-23.5 -97.5h345zM269 640l-130 137h83l108 -137h-61z" />
    <glyph glyph-name="emacron" unicode="&#x113;" horiz-adv-x="554" 
d="M520 256h-415q2 -65 26 -113t65.5 -73t94.5 -25q59 0 99 28t55 85h71q-12 -55 -43.5 -94t-78 -59t-101.5 -20q-77 0 -135.5 34.5t-90.5 99.5t-32 155q0 91 31.5 156t86.5 99t126 34q72 0 126 -34t84.5 -100.5t30.5 -159.5v-13zM451 313q-3 54 -23.5 97.5t-58.5 69
t-90 25.5t-90.5 -25.5t-59 -69t-23.5 -97.5h345zM405 683h-256v51h256v-51z" />
    <glyph glyph-name="eogonek" unicode="&#x119;" horiz-adv-x="554" 
d="M319.5 -192.5q-29.5 13.5 -45.5 37.5t-16 54q0 26 11.5 49t31.5 37q-84 0 -144 35t-91 100t-31 154q0 91 31.5 156t86.5 99t126 34q72 0 126 -34t84.5 -100.5t30.5 -159.5v-13h-415q2 -65 26 -113t65 -73t95 -25q59 0 99 28t55 85h71q-12 -61 -47 -99.5t-86 -58.5
q-33 -13 -48.5 -36.5t-15.5 -54.5t22 -48.5t56 -17.5q23 0 47 7v-48q-14 -4 -26 -6t-29 -2q-40 0 -69.5 13.5zM451 313q-3 54 -23.5 97.5t-58.5 69t-90 25.5t-90.5 -25.5t-59 -69t-23.5 -97.5h345z" />
    <glyph glyph-name="gbreve" unicode="&#x11f;" horiz-adv-x="589" 
d="M520 38q0 -77 -29 -130.5t-83.5 -80.5t-129.5 -27q-65 0 -113.5 20t-76 56t-33.5 82h72q8 -46 47.5 -72.5t103.5 -26.5q80 0 126 41.5t46 130.5v115q-25 -52 -74 -83.5t-108 -31.5q-66 0 -119 30.5t-83.5 90.5t-30.5 145t30.5 145t83.5 90.5t119 30.5q62 0 110 -31.5
t74 -86.5v103h68v-510zM365.5 116.5q39.5 25.5 62 72.5t22.5 108t-22.5 108t-62 72.5t-89.5 25.5q-48 0 -86.5 -23t-61.5 -69.5t-23 -113.5t23 -113.5t61.5 -69.5t86.5 -23q50 0 89.5 25.5zM401.5 704.5q-18.5 -30.5 -48.5 -46.5t-68 -16q-37 0 -67 16t-48.5 46.5
t-21.5 72.5h52q6 -43 28.5 -64t56.5 -21t57 21t29 64h51q-2 -42 -20.5 -72.5z" />
    <glyph glyph-name="gcircumflex" unicode="&#x11d;" horiz-adv-x="589" 
d="M520 38q0 -77 -29 -130.5t-83.5 -80.5t-129.5 -27q-65 0 -113.5 20t-76 56t-33.5 82h72q8 -46 47.5 -72.5t103.5 -26.5q80 0 126 41.5t46 130.5v115q-25 -52 -74 -83.5t-108 -31.5q-66 0 -119 30.5t-83.5 90.5t-30.5 145t30.5 145t83.5 90.5t119 30.5q62 0 110 -31.5
t74 -86.5v103h68v-510zM365.5 116.5q39.5 25.5 62 72.5t22.5 108t-22.5 108t-62 72.5t-89.5 25.5q-48 0 -86.5 -23t-61.5 -69.5t-23 -113.5t23 -113.5t61.5 -69.5t86.5 -23q50 0 89.5 25.5zM321 777l112 -133h-69l-78 91l-77 -91h-71l111 133h72z" />
    <glyph glyph-name="uni0123" unicode="&#x123;" horiz-adv-x="589" 
d="M520 38q0 -77 -29 -130.5t-83.5 -80.5t-129.5 -27q-65 0 -113.5 20t-76 56t-33.5 82h72q8 -46 47.5 -72.5t103.5 -26.5q80 0 126 41.5t46 130.5v115q-25 -52 -74 -83.5t-108 -31.5q-66 0 -119 30.5t-83.5 90.5t-30.5 145t30.5 145t83.5 90.5t119 30.5q62 0 110 -31.5
t74 -86.5v103h68v-510zM365.5 116.5q39.5 25.5 62 72.5t22.5 108t-22.5 108t-62 72.5t-89.5 25.5q-48 0 -86.5 -23t-61.5 -69.5t-23 -113.5t23 -113.5t61.5 -69.5t86.5 -23q50 0 89.5 25.5zM324 679h-77v55q0 38 12 61.5t37 39.5l23 -27q-14 -10 -21.5 -22.5t-7.5 -28.5h34
v-78z" />
    <glyph glyph-name="gdotaccent" unicode="&#x121;" horiz-adv-x="589" 
d="M520 38q0 -77 -29 -130.5t-83.5 -80.5t-129.5 -27q-65 0 -113.5 20t-76 56t-33.5 82h72q8 -46 47.5 -72.5t103.5 -26.5q80 0 126 41.5t46 130.5v115q-25 -52 -74 -83.5t-108 -31.5q-66 0 -119 30.5t-83.5 90.5t-30.5 145t30.5 145t83.5 90.5t119 30.5q62 0 110 -31.5
t74 -86.5v103h68v-510zM365.5 116.5q39.5 25.5 62 72.5t22.5 108t-22.5 108t-62 72.5t-89.5 25.5q-48 0 -86.5 -23t-61.5 -69.5t-23 -113.5t23 -113.5t61.5 -69.5t86.5 -23q50 0 89.5 25.5zM320 634h-70v100h70v-100z" />
    <glyph glyph-name="hbar" unicode="&#x127;" horiz-adv-x="563" 
d="M453 503.5q45 -59.5 45 -166.5v-337h-70v323q0 66 -14.5 105.5t-44 57t-76.5 17.5q-49 0 -85.5 -21.5t-57 -62t-20.5 -97.5v-322h-70v603h-60v41h60v69h70v-69h146v-41h-146v-138q24 46 70 72t105 26q103 0 148 -59.5z" />
    <glyph glyph-name="hcircumflex" unicode="&#x125;" horiz-adv-x="572" 
d="M69 713h70v-248q25 46 71.5 72t104.5 26q103 0 148 -59.5t45 -166.5v-337h-70v323q0 66 -14.5 105.5t-44 57t-76.5 17.5q-49 0 -86 -21.5t-57.5 -62.5t-20.5 -97v-322h-70v713zM325 910l112 -120h-72l-75 80l-75 -80h-74l112 120h72z" />
    <glyph glyph-name="dotlessi" unicode="&#x131;" horiz-adv-x="209" 
d="M69 548h70v-548h-70v548z" />
    <glyph glyph-name="iacute" unicode="&#xed;" horiz-adv-x="209" 
d="M69 548h70v-548h-70v548zM170 777h77l-106 -130h-58z" />
    <glyph glyph-name="ibreve" unicode="&#x12d;" horiz-adv-x="209" 
d="M69 548h70v-548h-70v548zM46 664.5q-26 13.5 -41 42t-15 70.5h50q1 -42 19 -60.5t46 -18.5t46.5 18.5t19.5 60.5h49q0 -62 -32 -94t-83 -32q-33 0 -59 13.5z" />
    <glyph glyph-name="icircumflex" unicode="&#xee;" horiz-adv-x="209" 
d="M69 548h70v-548h-70v548zM141 777l92 -129h-62l-65 90l-64 -90h-64l91 129h72z" />
    <glyph glyph-name="idieresis" unicode="&#xef;" horiz-adv-x="209" 
d="M69 548h70v-548h-70v548zM74 682h-77v81h77v-81zM213 682h-77v81h77v-81z" />
    <glyph glyph-name="i.locl" horiz-adv-x="209" 
d="M139 634h-70v100h70v-100zM69 548h70v-548h-70v548z" />
    <glyph glyph-name="igrave" unicode="&#xec;" horiz-adv-x="209" 
d="M69 548h70v-548h-70v548zM72 647l-106 130h77l87 -130h-58z" />
    <glyph glyph-name="ij" unicode="&#x133;" horiz-adv-x="418" 
d="M139 634h-70v100h70v-100zM69 548h70v-548h-70v548zM348 634h-70v100h70v-100zM184 -185v57h35q59 0 59 66v610h70v-606q0 -129 -117 -129q-23 0 -47 2z" />
    <glyph glyph-name="imacron" unicode="&#x12b;" horiz-adv-x="209" 
d="M69 548h70v-548h-70v548zM213 683h-216v51h216v-51z" />
    <glyph glyph-name="iogonek" unicode="&#x12f;" horiz-adv-x="209" 
d="M140 634h-70v100h70v-100zM158 -150v-48q-24 -8 -51 -8q-34 0 -61.5 13.5t-42.5 38.5t-15 58q0 41 22 69.5t59 41.5v533h70v-548h-1q-41 0 -64.5 -22.5t-23.5 -62.5q0 -36 18 -54t48 -18q20 0 42 7z" />
    <glyph glyph-name="itilde" unicode="&#x129;" horiz-adv-x="209" 
d="M69 548h70v-548h-70v548zM-27.5 711.5q10.5 23.5 29.5 37t44 13.5q23 0 38.5 -7.5t34.5 -20.5q15 -10 24 -15t21 -5q37 0 40 53h47q0 -30 -10.5 -53.5t-29.5 -37t-45 -13.5q-23 0 -38.5 7t-34.5 21q-13 10 -22.5 15t-21.5 5q-37 0 -40 -53h-47q0 30 10.5 53.5z" />
    <glyph glyph-name="uni0237" unicode="&#x237;" horiz-adv-x="209" 
d="M-25 -185v57h35q59 0 59 66v610h70v-606q0 -129 -117 -129q-23 0 -47 2z" />
    <glyph glyph-name="jcircumflex" unicode="&#x135;" horiz-adv-x="209" 
d="M-25 -185v57h35q59 0 59 66v610h70v-606q0 -129 -117 -129q-23 0 -47 2zM141 777l92 -129h-62l-65 90l-64 -90h-64l91 129h72z" />
    <glyph glyph-name="uni0137" unicode="&#x137;" horiz-adv-x="532" 
d="M243 292l-104 -97v-195h-70v713h70v-436l287 271h93l-223 -209l234 -339h-84zM249 -171q29 19 29 50h-34v79h76v-55q0 -39 -11.5 -62t-36.5 -39z" />
    <glyph glyph-name="kgreenlandic" unicode="&#x138;" horiz-adv-x="532" 
d="M243 292l-104 -97v-195h-70v548h70v-271l287 271h93l-223 -209l234 -339h-84z" />
    <glyph glyph-name="lacute" unicode="&#x13a;" horiz-adv-x="209" 
d="M69 713h70v-713h-70v713zM191 942h83l-130 -137h-61z" />
    <glyph glyph-name="lcaron" unicode="&#x13e;" horiz-adv-x="209" 
d="M69 713h70v-713h-70v713zM203 713h66l-29 -160h-44z" />
    <glyph glyph-name="uni013C" unicode="&#x13c;" horiz-adv-x="209" 
d="M69 713h70v-713h-70v713zM72 -171q29 19 29 50h-34v79h76v-55q0 -39 -11.5 -62t-36.5 -39z" />
    <glyph glyph-name="ldot" unicode="&#x140;" horiz-adv-x="231" 
d="M69 713h70v-713h-70v713zM254 348h-68v92h68v-92z" />
    <glyph glyph-name="lslash" unicode="&#x142;" horiz-adv-x="222" 
d="M222 440l-87 -75v-365h-70v304l-65 -57v55l65 57v354h70v-293l87 76v-56z" />
    <glyph glyph-name="nacute" unicode="&#x144;" horiz-adv-x="572" 
d="M463 503.5q45 -59.5 45 -165.5v-338h-70v324q0 66 -14.5 105t-44 56.5t-76.5 17.5q-49 0 -86 -21.5t-57.5 -62.5t-20.5 -97v-322h-70v548h68v-84q25 46 72 72.5t106 26.5q103 0 148 -59.5zM374 777h83l-130 -137h-61z" />
    <glyph glyph-name="napostrophe" unicode="&#x149;" horiz-adv-x="572" 
d="M463 503.5q45 -59.5 45 -165.5v-338h-70v324q0 66 -14.5 105t-44 56.5t-76.5 17.5q-49 0 -86 -21.5t-57.5 -62.5t-20.5 -97v-322h-70v548h68v-84q25 46 72 72.5t106 26.5q103 0 148 -59.5zM-91 583q19 13 30 32.5t11 41.5v17h-41v92h91v-95q0 -45 -15.5 -74.5
t-44.5 -47.5z" />
    <glyph glyph-name="ncaron" unicode="&#x148;" horiz-adv-x="572" 
d="M463 503.5q45 -59.5 45 -165.5v-338h-70v324q0 66 -14.5 105t-44 56.5t-76.5 17.5q-49 0 -86 -21.5t-57.5 -62.5t-20.5 -97v-322h-70v548h68v-84q25 46 72 72.5t106 26.5q103 0 148 -59.5zM142 777h71l77 -91l78 91h69l-112 -133h-72z" />
    <glyph glyph-name="uni0146" unicode="&#x146;" horiz-adv-x="572" 
d="M463 503.5q45 -59.5 45 -165.5v-338h-70v324q0 66 -14.5 105t-44 56.5t-76.5 17.5q-49 0 -86 -21.5t-57.5 -62.5t-20.5 -97v-322h-70v548h68v-84q25 46 72 72.5t106 26.5q103 0 148 -59.5zM253 -171q29 19 29 50h-34v79h76v-55q0 -39 -11.5 -62t-36.5 -39z" />
    <glyph glyph-name="eng" unicode="&#x14b;" horiz-adv-x="572" 
d="M137 464q25 46 72 72.5t106 26.5q103 0 148 -59.5t45 -166.5v-391q0 -133 -118 -133q-30 0 -54 2v57h43q59 0 59 66v385q0 66 -14.5 105.5t-44 57t-76.5 17.5q-49 0 -86 -21.5t-57.5 -62.5t-20.5 -97v-322h-70v548h68v-84z" />
    <glyph glyph-name="ntilde" unicode="&#xf1;" horiz-adv-x="572" 
d="M463 503.5q45 -59.5 45 -165.5v-338h-70v324q0 66 -14.5 105t-44 56.5t-76.5 17.5q-49 0 -86 -21.5t-57.5 -62.5t-20.5 -97v-322h-70v548h68v-84q25 46 72 72.5t106 26.5q103 0 148 -59.5zM143.5 742q25.5 29 68.5 29q22 0 40 -7.5t41 -21.5q19 -11 30.5 -16t23.5 -5
q21 0 33 14.5t14 41.5h50q-2 -46 -27.5 -75.5t-66.5 -29.5q-22 0 -40 7t-44 21q-17 10 -29 15.5t-24 5.5q-22 0 -33.5 -14t-14.5 -41h-49q2 47 27.5 76z" />
    <glyph glyph-name="oacute" unicode="&#xf3;" horiz-adv-x="571" 
d="M157.5 18.5q-57.5 33.5 -90 99t-32.5 156.5t32.5 156.5t90 99t129.5 33.5q71 0 127.5 -33.5t89.5 -99t33 -156.5t-33 -156.5t-89.5 -99t-127.5 -33.5q-72 0 -129.5 33.5zM379 70.5q41 26.5 64.5 78.5t23.5 125t-23.5 125t-64.5 78.5t-92 26.5q-53 0 -94 -26.5
t-64.5 -78.5t-23.5 -125t23.5 -125t64.5 -78.5t94 -26.5q51 0 92 26.5zM371 777h83l-130 -137h-61z" />
    <glyph glyph-name="obreve" unicode="&#x14f;" horiz-adv-x="571" 
d="M157.5 18.5q-57.5 33.5 -90 99t-32.5 156.5t32.5 156.5t90 99t129.5 33.5q71 0 127.5 -33.5t89.5 -99t33 -156.5t-33 -156.5t-89.5 -99t-127.5 -33.5q-72 0 -129.5 33.5zM379 70.5q41 26.5 64.5 78.5t23.5 125t-23.5 125t-64.5 78.5t-92 26.5q-53 0 -94 -26.5
t-64.5 -78.5t-23.5 -125t23.5 -125t64.5 -78.5t94 -26.5q51 0 92 26.5zM401.5 704.5q-18.5 -30.5 -48.5 -46.5t-68 -16q-37 0 -67 16t-48.5 46.5t-21.5 72.5h52q6 -43 28.5 -64t56.5 -21t57 21t29 64h51q-2 -42 -20.5 -72.5z" />
    <glyph glyph-name="ocircumflex" unicode="&#xf4;" horiz-adv-x="571" 
d="M157.5 18.5q-57.5 33.5 -90 99t-32.5 156.5t32.5 156.5t90 99t129.5 33.5q71 0 127.5 -33.5t89.5 -99t33 -156.5t-33 -156.5t-89.5 -99t-127.5 -33.5q-72 0 -129.5 33.5zM379 70.5q41 26.5 64.5 78.5t23.5 125t-23.5 125t-64.5 78.5t-92 26.5q-53 0 -94 -26.5
t-64.5 -78.5t-23.5 -125t23.5 -125t64.5 -78.5t94 -26.5q51 0 92 26.5zM321 777l112 -133h-69l-78 91l-77 -91h-71l111 133h72z" />
    <glyph glyph-name="odieresis" unicode="&#xf6;" horiz-adv-x="571" 
d="M157.5 18.5q-57.5 33.5 -90 99t-32.5 156.5t32.5 156.5t90 99t129.5 33.5q71 0 127.5 -33.5t89.5 -99t33 -156.5t-33 -156.5t-89.5 -99t-127.5 -33.5q-72 0 -129.5 33.5zM379 70.5q41 26.5 64.5 78.5t23.5 125t-23.5 125t-64.5 78.5t-92 26.5q-53 0 -94 -26.5
t-64.5 -78.5t-23.5 -125t23.5 -125t64.5 -78.5t94 -26.5q51 0 92 26.5zM235 683h-78v81h78v-81zM413 683h-77v81h77v-81z" />
    <glyph glyph-name="ograve" unicode="&#xf2;" horiz-adv-x="571" 
d="M157.5 18.5q-57.5 33.5 -90 99t-32.5 156.5t32.5 156.5t90 99t129.5 33.5q71 0 127.5 -33.5t89.5 -99t33 -156.5t-33 -156.5t-89.5 -99t-127.5 -33.5q-72 0 -129.5 33.5zM379 70.5q41 26.5 64.5 78.5t23.5 125t-23.5 125t-64.5 78.5t-92 26.5q-53 0 -94 -26.5
t-64.5 -78.5t-23.5 -125t23.5 -125t64.5 -78.5t94 -26.5q51 0 92 26.5zM277 640l-130 137h83l108 -137h-61z" />
    <glyph glyph-name="ohungarumlaut" unicode="&#x151;" horiz-adv-x="571" 
d="M157.5 18.5q-57.5 33.5 -90 99t-32.5 156.5t32.5 156.5t90 99t129.5 33.5q71 0 127.5 -33.5t89.5 -99t33 -156.5t-33 -156.5t-89.5 -99t-127.5 -33.5q-72 0 -129.5 33.5zM379 70.5q41 26.5 64.5 78.5t23.5 125t-23.5 125t-64.5 78.5t-92 26.5q-53 0 -94 -26.5
t-64.5 -78.5t-23.5 -125t23.5 -125t64.5 -78.5t94 -26.5q51 0 92 26.5zM249 777h74l-86 -137h-57zM411 777h73l-85 -137h-57z" />
    <glyph glyph-name="omacron" unicode="&#x14d;" horiz-adv-x="571" 
d="M157.5 18.5q-57.5 33.5 -90 99t-32.5 156.5t32.5 156.5t90 99t129.5 33.5q71 0 127.5 -33.5t89.5 -99t33 -156.5t-33 -156.5t-89.5 -99t-127.5 -33.5q-72 0 -129.5 33.5zM379 70.5q41 26.5 64.5 78.5t23.5 125t-23.5 125t-64.5 78.5t-92 26.5q-53 0 -94 -26.5
t-64.5 -78.5t-23.5 -125t23.5 -125t64.5 -78.5t94 -26.5q51 0 92 26.5zM413 683h-256v51h256v-51z" />
    <glyph glyph-name="oslash" unicode="&#xf8;" horiz-adv-x="571" 
d="M513.5 409.5q23.5 -58.5 23.5 -135.5q0 -91 -33 -156.5t-89.5 -99t-127.5 -33.5q-63 0 -117 26l-46 -83l-49 26l49 89q-42 37 -65.5 95.5t-23.5 135.5q0 91 32.5 156.5t90 99t129.5 33.5q61 0 113 -26l46 82l51 -26l-50 -88q43 -37 66.5 -95.5zM157 99l215 384
q-37 21 -85 21q-53 0 -94 -26.5t-64.5 -78.5t-23.5 -125q0 -115 52 -175zM379 70.5q41 26.5 64.5 78.5t23.5 125q0 59 -14 102.5t-39 72.5l-215 -384q37 -21 88 -21t92 26.5z" />
    <glyph glyph-name="otilde" unicode="&#xf5;" horiz-adv-x="571" 
d="M157.5 18.5q-57.5 33.5 -90 99t-32.5 156.5t32.5 156.5t90 99t129.5 33.5q71 0 127.5 -33.5t89.5 -99t33 -156.5t-33 -156.5t-89.5 -99t-127.5 -33.5q-72 0 -129.5 33.5zM379 70.5q41 26.5 64.5 78.5t23.5 125t-23.5 125t-64.5 78.5t-92 26.5q-53 0 -94 -26.5
t-64.5 -78.5t-23.5 -125t23.5 -125t64.5 -78.5t94 -26.5q51 0 92 26.5zM140.5 742q25.5 29 68.5 29q22 0 40 -7.5t41 -21.5q19 -11 30.5 -16t23.5 -5q21 0 33 14.5t14 41.5h50q-2 -46 -27.5 -75.5t-66.5 -29.5q-22 0 -40 7t-44 21q-17 10 -29 15.5t-24 5.5q-22 0 -33.5 -14
t-14.5 -41h-49q2 47 27.5 76z" />
    <glyph glyph-name="oe" unicode="&#x153;" horiz-adv-x="958" 
d="M923 256h-405q2 -65 26 -113t64.5 -73t91.5 -25q55 0 94 28.5t54 84.5h71q-11 -56 -42 -95t-76 -58.5t-99 -19.5q-79 0 -134 38t-81 110q-26 -72 -79.5 -110t-125.5 -38q-70 0 -126 33.5t-88.5 99t-32.5 156.5t32.5 156.5t88.5 99t126 33.5q72 0 125.5 -38t79.5 -109
q26 72 79.5 109.5t126.5 37.5q68 0 120 -34.5t81 -100.5t29 -159v-13zM854 313q-3 54 -22.5 97.5t-55 69t-83.5 25.5q-51 0 -89.5 -25.5t-60 -69t-24.5 -97.5h335zM370.5 70.5q39.5 26.5 63 78.5t23.5 125t-23.5 125t-63 78.5t-88.5 26.5q-50 0 -90.5 -26.5t-63.5 -78.5
t-23 -125t23 -125t63.5 -78.5t90.5 -26.5q49 0 88.5 26.5z" />
    <glyph glyph-name="thorn" unicode="&#xfe;" horiz-adv-x="599" 
d="M69 713h70v-270q25 56 75 88t115 32q70 0 123.5 -35.5t82.5 -101t29 -152.5t-29 -152.5t-82.5 -101t-123.5 -35.5q-65 0 -115.5 31.5t-74.5 84.5v-286h-70v898zM409.5 71.5q39.5 26.5 62 78t22.5 124.5t-22.5 124.5t-62 78t-90.5 26.5q-53 0 -93.5 -26t-63.5 -77.5
t-23 -125.5t23 -125.5t63.5 -77.5t93.5 -26q51 0 90.5 26.5z" />
    <glyph glyph-name="racute" unicode="&#x155;" horiz-adv-x="338" 
d="M69 548h68v-107q23 60 62.5 86.5t98.5 26.5q18 0 30 -2v-67h-33q-46 0 -81 -23t-55 -68.5t-20 -111.5v-282h-70v548zM278 777h83l-130 -137h-61z" />
    <glyph glyph-name="rcaron" unicode="&#x159;" horiz-adv-x="338" 
d="M69 548h68v-107q23 60 62.5 86.5t98.5 26.5q18 0 30 -2v-67h-33q-46 0 -81 -23t-55 -68.5t-20 -111.5v-282h-70v548zM45 777h71l77 -91l78 91h69l-112 -133h-72z" />
    <glyph glyph-name="uni0157" unicode="&#x157;" horiz-adv-x="338" 
d="M69 548h68v-107q23 60 62.5 86.5t98.5 26.5q18 0 30 -2v-67h-33q-46 0 -81 -23t-55 -68.5t-20 -111.5v-282h-70v548zM72 -171q29 19 29 50h-34v79h76v-55q0 -39 -11.5 -62t-36.5 -39z" />
    <glyph glyph-name="sacute" unicode="&#x15b;" horiz-adv-x="479" 
d="M129.5 7q-50.5 22 -77.5 60.5t-31 90.5h72q15 -114 160 -114q47 0 77.5 14t44.5 36t14 48q0 25 -10 42t-33 30t-63 23l-95 23q-76 18 -113 53t-37 99q0 44 24.5 78t70 53.5t106.5 19.5q89 0 145.5 -41.5t64.5 -122.5h-72q-6 54 -42.5 79.5t-95.5 25.5q-62 0 -97 -24.5
t-35 -66.5q0 -37 23 -58.5t77 -34.5l102 -24q74 -18 111.5 -53t37.5 -99q0 -44 -24 -80t-70 -57.5t-111 -21.5q-73 0 -123.5 22zM327 777h83l-130 -137h-61z" />
    <glyph glyph-name="scaron" unicode="&#x161;" horiz-adv-x="479" 
d="M129.5 7q-50.5 22 -77.5 60.5t-31 90.5h72q15 -114 160 -114q47 0 77.5 14t44.5 36t14 48q0 25 -10 42t-33 30t-63 23l-95 23q-76 18 -113 53t-37 99q0 44 24.5 78t70 53.5t106.5 19.5q89 0 145.5 -41.5t64.5 -122.5h-72q-6 54 -42.5 79.5t-95.5 25.5q-62 0 -97 -24.5
t-35 -66.5q0 -37 23 -58.5t77 -34.5l102 -24q74 -18 111.5 -53t37.5 -99q0 -44 -24 -80t-70 -57.5t-111 -21.5q-73 0 -123.5 22zM94 777h71l77 -91l78 91h69l-112 -133h-72z" />
    <glyph glyph-name="scedilla" unicode="&#x15f;" horiz-adv-x="479" 
d="M436 67q-22 -35 -64.5 -57t-102.5 -25l-4 -30h7q47 0 73.5 -20.5t26.5 -57.5q0 -39 -29 -61t-84 -22q-39 0 -80 12v49q40 -14 78 -14q27 0 41 9.5t14 27.5q0 34 -55 34q-23 0 -45 -5l12 79q-95 7 -146.5 53t-56.5 119h72q15 -114 160 -114q47 0 77.5 14t44.5 36t14 48
q0 25 -10 42t-33 30t-63 23l-95 23q-76 18 -113 53t-37 99q0 44 24.5 78t70 53.5t106.5 19.5q89 0 145.5 -41.5t64.5 -122.5h-72q-6 54 -42.5 79.5t-95.5 25.5q-62 0 -97 -24.5t-35 -66.5q0 -37 23 -58.5t77 -34.5l102 -24q74 -18 111.5 -53t37.5 -99q0 -42 -22 -77z" />
    <glyph glyph-name="scircumflex" unicode="&#x15d;" horiz-adv-x="479" 
d="M129.5 7q-50.5 22 -77.5 60.5t-31 90.5h72q15 -114 160 -114q47 0 77.5 14t44.5 36t14 48q0 25 -10 42t-33 30t-63 23l-95 23q-76 18 -113 53t-37 99q0 44 24.5 78t70 53.5t106.5 19.5q89 0 145.5 -41.5t64.5 -122.5h-72q-6 54 -42.5 79.5t-95.5 25.5q-62 0 -97 -24.5
t-35 -66.5q0 -37 23 -58.5t77 -34.5l102 -24q74 -18 111.5 -53t37.5 -99q0 -44 -24 -80t-70 -57.5t-111 -21.5q-73 0 -123.5 22zM277 777l112 -133h-69l-78 91l-77 -91h-71l111 133h72z" />
    <glyph glyph-name="uni0219" unicode="&#x219;" horiz-adv-x="479" 
d="M129.5 7q-50.5 22 -77.5 60.5t-31 90.5h72q15 -114 160 -114q47 0 77.5 14t44.5 36t14 48q0 25 -10 42t-33 30t-63 23l-95 23q-76 18 -113 53t-37 99q0 44 24.5 78t70 53.5t106.5 19.5q89 0 145.5 -41.5t64.5 -122.5h-72q-6 54 -42.5 79.5t-95.5 25.5q-62 0 -97 -24.5
t-35 -66.5q0 -37 23 -58.5t77 -34.5l102 -24q74 -18 111.5 -53t37.5 -99q0 -44 -24 -80t-70 -57.5t-111 -21.5q-73 0 -123.5 22zM220 -171q29 19 29 50h-34v79h76v-55q0 -39 -11.5 -62t-36.5 -39z" />
    <glyph glyph-name="germandbls" unicode="&#xdf;" horiz-adv-x="536" 
d="M235 56h34q79 0 125.5 36.5t46.5 116.5q0 81 -48.5 118t-132.5 37h-25v59h19q69 0 106.5 33t37.5 97q0 53 -31 84.5t-87 31.5q-70 0 -105.5 -42.5t-35.5 -128.5v-498h-70v506q0 68 26 118t73 76.5t109 26.5q58 0 101 -21t66 -60t23 -91q0 -60 -32 -100.5t-89 -56.5
q80 -11 122.5 -60.5t42.5 -127.5q0 -66 -28 -114t-79.5 -73.5t-121.5 -25.5q-28 0 -47 3v56z" />
    <glyph glyph-name="tbar" unicode="&#x167;" horiz-adv-x="323" 
d="M308 57v-57q-25 -3 -55 -3q-82 0 -119 39t-37 123v148h-70v49h70v133h-83v59h83v127h70v-127h135v-59h-135v-133h104v-49h-104v-145q0 -40 9 -62.5t29 -32.5t57 -10h46z" />
    <glyph glyph-name="tcaron" unicode="&#x165;" horiz-adv-x="313" 
d="M278 576h-44l6 137h67zM171 99.5q9 -22.5 29 -32.5t57 -10h46v-57q-25 -3 -55 -3q-82 0 -119 39t-37 123v330h-83v59h83v127h70v-127h135v-59h-135v-327q0 -40 9 -62.5z" />
    <glyph glyph-name="uni0163" unicode="&#x163;" horiz-adv-x="313" 
d="M303 57v-57q-25 -3 -55 -3q-82 0 -119 39t-37 123v330h-83v59h83v127h70v-127h135v-59h-135v-327q0 -40 9 -62.5t29 -32.5t57 -10h46zM184 -171q29 19 29 50h-34v79h76v-55q0 -39 -11.5 -62t-36.5 -39z" />
    <glyph glyph-name="uni021B" unicode="&#x21b;" horiz-adv-x="313" 
d="M303 57v-57q-25 -3 -55 -3q-82 0 -119 39t-37 123v330h-83v59h83v127h70v-127h135v-59h-135v-327q0 -40 9 -62.5t29 -32.5t57 -10h46zM184 -171q29 19 29 50h-34v79h76v-55q0 -39 -11.5 -62t-36.5 -39z" />
    <glyph glyph-name="uacute" unicode="&#xfa;" horiz-adv-x="570" 
d="M114.5 41q-50.5 56 -50.5 165v342h70v-330q0 -91 35 -132t104 -41q42 0 77.5 19.5t58 63.5t22.5 114v306h70v-548h-68v87q-26 -49 -70 -75.5t-101 -26.5q-97 0 -147.5 56zM368 777h83l-130 -137h-61z" />
    <glyph glyph-name="ubreve" unicode="&#x16d;" horiz-adv-x="570" 
d="M114.5 41q-50.5 56 -50.5 165v342h70v-330q0 -91 35 -132t104 -41q42 0 77.5 19.5t58 63.5t22.5 114v306h70v-548h-68v87q-26 -49 -70 -75.5t-101 -26.5q-97 0 -147.5 56zM398.5 704.5q-18.5 -30.5 -48.5 -46.5t-68 -16q-37 0 -67 16t-48.5 46.5t-21.5 72.5h52
q6 -43 28.5 -64t56.5 -21t57 21t29 64h51q-2 -42 -20.5 -72.5z" />
    <glyph glyph-name="ucircumflex" unicode="&#xfb;" horiz-adv-x="570" 
d="M114.5 41q-50.5 56 -50.5 165v342h70v-330q0 -91 35 -132t104 -41q42 0 77.5 19.5t58 63.5t22.5 114v306h70v-548h-68v87q-26 -49 -70 -75.5t-101 -26.5q-97 0 -147.5 56zM318 777l112 -133h-69l-78 91l-77 -91h-71l111 133h72z" />
    <glyph glyph-name="udieresis" unicode="&#xfc;" horiz-adv-x="570" 
d="M114.5 41q-50.5 56 -50.5 165v342h70v-330q0 -91 35 -132t104 -41q42 0 77.5 19.5t58 63.5t22.5 114v306h70v-548h-68v87q-26 -49 -70 -75.5t-101 -26.5q-97 0 -147.5 56zM232 683h-78v81h78v-81zM410 683h-77v81h77v-81z" />
    <glyph glyph-name="ugrave" unicode="&#xf9;" horiz-adv-x="570" 
d="M114.5 41q-50.5 56 -50.5 165v342h70v-330q0 -91 35 -132t104 -41q42 0 77.5 19.5t58 63.5t22.5 114v306h70v-548h-68v87q-26 -49 -70 -75.5t-101 -26.5q-97 0 -147.5 56zM274 640l-130 137h83l108 -137h-61z" />
    <glyph glyph-name="uhungarumlaut" unicode="&#x171;" horiz-adv-x="570" 
d="M114.5 41q-50.5 56 -50.5 165v342h70v-330q0 -91 35 -132t104 -41q42 0 77.5 19.5t58 63.5t22.5 114v306h70v-548h-68v87q-26 -49 -70 -75.5t-101 -26.5q-97 0 -147.5 56zM246 777h74l-86 -137h-57zM408 777h73l-85 -137h-57z" />
    <glyph glyph-name="umacron" unicode="&#x16b;" horiz-adv-x="570" 
d="M114.5 41q-50.5 56 -50.5 165v342h70v-330q0 -91 35 -132t104 -41q42 0 77.5 19.5t58 63.5t22.5 114v306h70v-548h-68v87q-26 -49 -70 -75.5t-101 -26.5q-97 0 -147.5 56zM410 683h-256v51h256v-51z" />
    <glyph glyph-name="uogonek" unicode="&#x173;" horiz-adv-x="570" 
d="M522 -150v-48q-14 -4 -26.5 -6t-29.5 -2q-39 0 -69 14t-46 40t-16 59q0 39 27 68t71 41v71q-26 -49 -70 -75.5t-101 -26.5q-97 0 -147.5 56t-50.5 165v342h70v-330q0 -91 35 -132t104 -41q42 0 77.5 19.5t58 63.5t22.5 114v306h70v-548h-3q-47 0 -74 -23.5t-27 -60.5
q0 -35 22 -54t56 -19q22 0 47 7z" />
    <glyph glyph-name="uring" unicode="&#x16f;" horiz-adv-x="570" 
d="M114.5 41q-50.5 56 -50.5 165v342h70v-330q0 -91 35 -132t104 -41q42 0 77.5 19.5t58 63.5t22.5 114v306h70v-548h-68v87q-26 -49 -70 -75.5t-101 -26.5q-97 0 -147.5 56zM231 654q-23 13 -36.5 36.5t-13.5 51.5t13.5 51t36.5 36t51 13t51 -13t36.5 -36t13.5 -51
t-13.5 -51.5t-36.5 -36.5t-51 -13t-51 13zM320.5 701q15.5 15 15.5 40q0 24 -15.5 40t-38.5 16t-38.5 -16t-15.5 -40q0 -25 15.5 -40t38.5 -15t38.5 15z" />
    <glyph glyph-name="utilde" unicode="&#x169;" horiz-adv-x="570" 
d="M114.5 41q-50.5 56 -50.5 165v342h70v-330q0 -91 35 -132t104 -41q42 0 77.5 19.5t58 63.5t22.5 114v306h70v-548h-68v87q-26 -49 -70 -75.5t-101 -26.5q-97 0 -147.5 56zM137.5 742q25.5 29 68.5 29q22 0 40 -7.5t41 -21.5q19 -11 30.5 -16t23.5 -5q21 0 33 14.5
t14 41.5h50q-2 -46 -27.5 -75.5t-66.5 -29.5q-22 0 -40 7t-44 21q-17 10 -29 15.5t-24 5.5q-22 0 -33.5 -14t-14.5 -41h-49q2 47 27.5 76z" />
    <glyph glyph-name="wacute" unicode="&#x1e83;" horiz-adv-x="785" 
d="M10 548h74l132 -471l141 471h75l142 -471l131 471h70l-164 -548h-75l-143 460l-140 -460h-75zM480 777h83l-130 -137h-61z" />
    <glyph glyph-name="wcircumflex" unicode="&#x175;" horiz-adv-x="785" 
d="M10 548h74l132 -471l141 471h75l142 -471l131 471h70l-164 -548h-75l-143 460l-140 -460h-75zM430 777l112 -133h-69l-78 91l-77 -91h-71l111 133h72z" />
    <glyph glyph-name="wdieresis" unicode="&#x1e85;" horiz-adv-x="785" 
d="M10 548h74l132 -471l141 471h75l142 -471l131 471h70l-164 -548h-75l-143 460l-140 -460h-75zM344 683h-78v81h78v-81zM522 683h-77v81h77v-81z" />
    <glyph glyph-name="wgrave" unicode="&#x1e81;" horiz-adv-x="785" 
d="M10 548h74l132 -471l141 471h75l142 -471l131 471h70l-164 -548h-75l-143 460l-140 -460h-75zM386 640l-130 137h83l108 -137h-61z" />
    <glyph glyph-name="yacute" unicode="&#xfd;" horiz-adv-x="482" 
d="M482 548l-231 -632q-20 -53 -55.5 -78.5t-91.5 -25.5q-23 0 -47 3v57h38q38 0 60.5 13.5t32.5 42.5l24 66l-212 554h77l169 -471l164 471h72zM329 777h83l-130 -137h-61z" />
    <glyph glyph-name="ycircumflex" unicode="&#x177;" horiz-adv-x="482" 
d="M482 548l-231 -632q-20 -53 -55.5 -78.5t-91.5 -25.5q-23 0 -47 3v57h38q38 0 60.5 13.5t32.5 42.5l24 66l-212 554h77l169 -471l164 471h72zM279 777l112 -133h-69l-78 91l-77 -91h-71l111 133h72z" />
    <glyph glyph-name="ydieresis" unicode="&#xff;" horiz-adv-x="482" 
d="M482 548l-231 -632q-20 -53 -55.5 -78.5t-91.5 -25.5q-23 0 -47 3v57h38q38 0 60.5 13.5t32.5 42.5l24 66l-212 554h77l169 -471l164 471h72zM193 683h-78v81h78v-81zM371 683h-77v81h77v-81z" />
    <glyph glyph-name="ygrave" unicode="&#x1ef3;" horiz-adv-x="482" 
d="M482 548l-231 -632q-20 -53 -55.5 -78.5t-91.5 -25.5q-23 0 -47 3v57h38q38 0 60.5 13.5t32.5 42.5l24 66l-212 554h77l169 -471l164 471h72zM234 640l-130 137h83l108 -137h-61z" />
    <glyph glyph-name="zacute" unicode="&#x17a;" horiz-adv-x="478" 
d="M30 56l323 433h-321v59h410v-49l-328 -440h339v-59h-423v56zM322 777h83l-130 -137h-61z" />
    <glyph glyph-name="zcaron" unicode="&#x17e;" horiz-adv-x="478" 
d="M30 56l323 433h-321v59h410v-49l-328 -440h339v-59h-423v56zM89 777h71l77 -91l78 91h69l-112 -133h-72z" />
    <glyph glyph-name="zdotaccent" unicode="&#x17c;" horiz-adv-x="478" 
d="M30 56l323 433h-321v59h410v-49l-328 -440h339v-59h-423v56zM271 634h-70v100h70v-100z" />
    <glyph glyph-name="f_f_j.dlig" horiz-adv-x="816" 
d="M747 734v-100h-70v100h70zM747 -58q0 -65 -30 -97t-88 -32q-23 0 -47 2v57h36q59 0 59 66v551h-234v-489h-70v489h-216v-489h-70v489h-87v59h87v22q0 75 42.5 114.5t118.5 39.5q33 0 53 -3v-57h-49q-49 0 -72 -22.5t-23 -75.5v-18h129h87v22q0 75 42.5 114.5t119.5 39.5
q32 0 52 -3v-57h-49q-49 0 -72 -22.5t-23 -75.5v-18h304v-606z" />
    <glyph glyph-name="f_i.dlig" horiz-adv-x="530" 
d="M461 734v-100h-70v100h70zM461 0h-70v489h-234v-489h-70v489h-87v59h87v22q0 75 42.5 114.5t118.5 39.5q33 0 53 -3v-57h-49q-49 0 -72 -22.5t-23 -75.5v-18h304v-548z" />
    <glyph glyph-name="f_j.dlig" horiz-adv-x="495" 
d="M426 734v-100h-70v100h70zM426 -58q0 -65 -30 -97t-88 -32q-23 0 -47 2v57h36q59 0 59 66v551h-199v-489h-70v489h-87v59h87v22q0 75 42.5 114.5t118.5 39.5q33 0 53 -3v-57h-49q-49 0 -72 -22.5t-23 -75.5v-18h269v-606z" />
    <glyph glyph-name="f_l.dlig" horiz-adv-x="495" 
d="M180 641.5q-23 -22.5 -23 -75.5v-18h129v-59h-129v-489h-70v489h-87v59h87v22q0 75 42.5 114.5t118.5 39.5q33 0 53 -3v-57h-49q-49 0 -72 -22.5zM355 713h70v-713h-70v713z" />
    <glyph glyph-name="A.c2sc" horiz-adv-x="571" 
d="M421 174h-273l-68 -174h-75l237 587h87l237 -587h-75zM168 230h234l-118 303z" />
    <glyph glyph-name="Aacute.aalt" horiz-adv-x="571" 
d="M421 174h-273l-68 -174h-75l237 587h87l237 -587h-75zM168 230h234l-118 303zM374 816h83l-130 -137h-61z" />
    <glyph glyph-name="Abreve.aalt" horiz-adv-x="571" 
d="M421 174h-273l-68 -174h-75l237 587h87l237 -587h-75zM168 230h234l-118 303zM403.5 743.5q-18.5 -30.5 -48.5 -46.5t-68 -16q-37 0 -67 16t-48.5 46.5t-21.5 72.5h52q6 -43 28.5 -64t56.5 -21t57 21t29 64h51q-2 -42 -20.5 -72.5z" />
    <glyph glyph-name="Acircumflex.aalt" horiz-adv-x="571" 
d="M421 174h-273l-68 -174h-75l237 587h87l237 -587h-75zM168 230h234l-118 303zM323 816l112 -133h-69l-78 91l-77 -91h-71l111 133h72z" />
    <glyph glyph-name="Adieresis.aalt" horiz-adv-x="571" 
d="M421 174h-273l-68 -174h-75l237 587h87l237 -587h-75zM168 230h234l-118 303zM235 722h-78v81h78v-81zM413 722h-77v81h77v-81z" />
    <glyph glyph-name="Agrave.aalt" horiz-adv-x="571" 
d="M421 174h-273l-68 -174h-75l237 587h87l237 -587h-75zM168 230h234l-118 303zM251 679l-130 137h83l108 -137h-61z" />
    <glyph glyph-name="Amacron.aalt" horiz-adv-x="571" 
d="M421 174h-273l-68 -174h-75l237 587h87l237 -587h-75zM168 230h234l-118 303zM415 722h-256v51h256v-51z" />
    <glyph glyph-name="Aogonek.aalt" horiz-adv-x="571" 
d="M582 -150v-48q-14 -4 -26.5 -6t-29.5 -2q-39 0 -69 14t-46 40t-16 59q0 38 24.5 66t66.5 41l-65 160h-273l-68 -174h-75l237 587h87l237 -587h-8q-47 0 -74 -23.5t-27 -60.5q0 -35 22 -54t56 -19q22 0 47 7zM168 230h234l-118 303z" />
    <glyph glyph-name="Aring.aalt" horiz-adv-x="571" 
d="M421 174h-273l-68 -174h-75l228 565q-22 14 -34 36t-12 49q0 28 14 51t37 36.5t51 13.5t51.5 -13.5t37 -36.5t13.5 -51q0 -29 -14 -52.5t-38 -35.5l227 -562h-75zM250.5 690q-15.5 -16 -15.5 -40q0 -26 15.5 -41t38.5 -15t38.5 15t15.5 41q0 24 -15.5 40t-38.5 16
t-38.5 -16zM284 533l-116 -303h234z" />
    <glyph glyph-name="Atilde.aalt" horiz-adv-x="571" 
d="M421 174h-273l-68 -174h-75l237 587h87l237 -587h-75zM168 230h234l-118 303zM164.5 781q25.5 29 68.5 29q22 0 40 -7.5t41 -21.5q19 -11 30.5 -16t23.5 -5q21 0 33 14.5t14 41.5h50q-2 -46 -27.5 -75.5t-66.5 -29.5q-22 0 -40 7t-44 21q-17 10 -29 15.5t-24 5.5
q-22 0 -33.5 -14t-14.5 -41h-49q2 47 27.5 76z" />
    <glyph glyph-name="AE.aalt" horiz-adv-x="808" 
d="M768 57v-57h-383v174h-226l-94 -174h-76l320 587h455v-58h-310v-194h286v-58h-286v-220h314zM385 230v300h-36l-161 -300h197z" />
    <glyph glyph-name="B.aalt" horiz-adv-x="587" 
d="M477.5 552q51.5 -35 51.5 -108q0 -49 -28.5 -84.5t-76.5 -48.5q61 -10 94.5 -48.5t33.5 -97.5q0 -81 -55 -123t-161 -42h-262v587h257q95 0 146.5 -35zM142 531v-197h189q63 0 96 25.5t33 72.5q0 50 -32 74.5t-97 24.5h-189zM142 278v-222h194q74 0 110.5 27.5t36.5 83.5
t-36 83.5t-110 27.5h-195z" />
    <glyph glyph-name="C.aalt" horiz-adv-x="611" 
d="M446 578q55 -22 89 -65.5t42 -104.5h-71q-7 62 -56 97t-127 35q-62 0 -110.5 -28t-76 -83.5t-27.5 -134.5q0 -80 27 -135.5t75 -83.5t109 -28q85 0 133.5 40.5t58.5 113.5h71q-7 -63 -40 -111t-90 -75t-132 -27q-83 0 -146.5 35.5t-99 104.5t-35.5 166t36 166t100 104.5
t146 35.5q69 0 124 -22z" />
    <glyph glyph-name="Cacute.aalt" horiz-adv-x="611" 
d="M446 578q55 -22 89 -65.5t42 -104.5h-71q-7 62 -56 97t-127 35q-62 0 -110.5 -28t-76 -83.5t-27.5 -134.5q0 -80 27 -135.5t75 -83.5t109 -28q85 0 133.5 40.5t58.5 113.5h71q-7 -63 -40 -111t-90 -75t-132 -27q-83 0 -146.5 35.5t-99 104.5t-35.5 166t36 166t100 104.5
t146 35.5q69 0 124 -22zM415 816h83l-130 -137h-61z" />
    <glyph glyph-name="Ccaron.aalt" horiz-adv-x="611" 
d="M446 578q55 -22 89 -65.5t42 -104.5h-71q-7 62 -56 97t-127 35q-62 0 -110.5 -28t-76 -83.5t-27.5 -134.5q0 -80 27 -135.5t75 -83.5t109 -28q85 0 133.5 40.5t58.5 113.5h71q-7 -63 -40 -111t-90 -75t-132 -27q-83 0 -146.5 35.5t-99 104.5t-35.5 166t36 166t100 104.5
t146 35.5q69 0 124 -22zM186 816h71l77 -91l78 91h69l-112 -133h-72z" />
    <glyph glyph-name="Ccedilla.aalt" horiz-adv-x="611" 
d="M545.5 94.5q-30.5 -46.5 -82.5 -74.5t-122 -31l-4 -34h7q47 0 73.5 -20.5t26.5 -57.5q0 -39 -29 -61t-84 -22q-39 0 -80 12v49q40 -14 78 -14q27 0 41 9.5t14 27.5q0 17 -13.5 25.5t-40.5 8.5q-24 0 -46 -5l13 82q-77 5 -135 42t-90 103.5t-32 159.5q0 97 36 166
t100 104.5t146 35.5q69 0 124 -22t89 -65.5t42 -104.5h-71q-7 62 -56 97t-127 35q-62 0 -110.5 -28t-76 -83.5t-27.5 -134.5q0 -80 27 -135.5t75 -83.5t109 -28q85 0 133.5 40.5t58.5 113.5h71q-7 -60 -37.5 -106.5z" />
    <glyph glyph-name="Ccircumflex.aalt" horiz-adv-x="611" 
d="M446 578q55 -22 89 -65.5t42 -104.5h-71q-7 62 -56 97t-127 35q-62 0 -110.5 -28t-76 -83.5t-27.5 -134.5q0 -80 27 -135.5t75 -83.5t109 -28q85 0 133.5 40.5t58.5 113.5h71q-7 -63 -40 -111t-90 -75t-132 -27q-83 0 -146.5 35.5t-99 104.5t-35.5 166t36 166t100 104.5
t146 35.5q69 0 124 -22zM364 816l112 -133h-69l-78 91l-77 -91h-71l111 133h72z" />
    <glyph glyph-name="Cdotaccent.aalt" horiz-adv-x="611" 
d="M446 578q55 -22 89 -65.5t42 -104.5h-71q-7 62 -56 97t-127 35q-62 0 -110.5 -28t-76 -83.5t-27.5 -134.5q0 -80 27 -135.5t75 -83.5t109 -28q85 0 133.5 40.5t58.5 113.5h71q-7 -63 -40 -111t-90 -75t-132 -27q-83 0 -146.5 35.5t-99 104.5t-35.5 166t36 166t100 104.5
t146 35.5q69 0 124 -22zM363 674h-70v100h70v-100z" />
    <glyph glyph-name="D.aalt" horiz-adv-x="620" 
d="M580 294q0 -146 -77.5 -220t-228.5 -74h-200v587h194q312 0 312 -293zM143 529v-471h134q234 0 234 236q0 121 -60.5 178t-180.5 57h-127z" />
    <glyph glyph-name="Eth.aalt" horiz-adv-x="620" 
d="M580 294q0 -146 -77.5 -220t-228.5 -74h-200v270h-55v48h55v269h194q312 0 312 -293zM511 294q0 121 -60.5 178t-180.5 57h-127v-211h184v-48h-184v-212h134q234 0 234 236z" />
    <glyph glyph-name="Dcaron.aalt" horiz-adv-x="620" 
d="M580 294q0 -146 -77.5 -220t-228.5 -74h-200v587h194q312 0 312 -293zM143 529v-471h134q234 0 234 236q0 121 -60.5 178t-180.5 57h-127zM140 816h71l77 -91l78 91h69l-112 -133h-72z" />
    <glyph glyph-name="Dcroat.aalt" horiz-adv-x="620" 
d="M580 294q0 -146 -77.5 -220t-228.5 -74h-200v270h-55v48h55v269h194q312 0 312 -293zM511 294q0 121 -60.5 178t-180.5 57h-127v-211h184v-48h-184v-212h134q234 0 234 236z" />
    <glyph glyph-name="E.aalt" horiz-adv-x="533" 
d="M74 587h416v-58h-347v-194h322v-58h-322v-220h350v-57h-419v587z" />
    <glyph glyph-name="Eacute.aalt" horiz-adv-x="533" 
d="M74 587h416v-58h-347v-194h322v-58h-322v-220h350v-57h-419v587zM374 816h83l-130 -137h-61z" />
    <glyph glyph-name="Ebreve.aalt" horiz-adv-x="533" 
d="M74 587h416v-58h-347v-194h322v-58h-322v-220h350v-57h-419v587zM403.5 743.5q-18.5 -30.5 -48.5 -46.5t-68 -16q-37 0 -67 16t-48.5 46.5t-21.5 72.5h52q6 -43 28.5 -64t56.5 -21t57 21t29 64h51q-2 -42 -20.5 -72.5z" />
    <glyph glyph-name="Ecaron.aalt" horiz-adv-x="533" 
d="M74 587h416v-58h-347v-194h322v-58h-322v-220h350v-57h-419v587zM145 816h71l77 -91l78 91h69l-112 -133h-72z" />
    <glyph glyph-name="Ecircumflex.aalt" horiz-adv-x="533" 
d="M74 587h416v-58h-347v-194h322v-58h-322v-220h350v-57h-419v587zM323 816l112 -133h-69l-78 91l-77 -91h-71l111 133h72z" />
    <glyph glyph-name="Edieresis.aalt" horiz-adv-x="533" 
d="M74 587h416v-58h-347v-194h322v-58h-322v-220h350v-57h-419v587zM235 722h-78v81h78v-81zM413 722h-77v81h77v-81z" />
    <glyph glyph-name="Edotaccent.aalt" horiz-adv-x="533" 
d="M74 587h416v-58h-347v-194h322v-58h-322v-220h350v-57h-419v587zM322 674h-70v100h70v-100z" />
    <glyph glyph-name="Egrave.aalt" horiz-adv-x="533" 
d="M74 587h416v-58h-347v-194h322v-58h-322v-220h350v-57h-419v587zM251 679l-130 137h83l108 -137h-61z" />
    <glyph glyph-name="Emacron.aalt" horiz-adv-x="533" 
d="M74 587h416v-58h-347v-194h322v-58h-322v-220h350v-57h-419v587zM415 722h-256v51h256v-51z" />
    <glyph glyph-name="Eogonek.aalt" horiz-adv-x="533" 
d="M391 -23.5q-27 -23.5 -27 -60.5q0 -35 22 -54t56 -19q22 0 47 7v-48q-14 -4 -26.5 -6t-29.5 -2q-39 0 -69 14t-46 40t-16 59q0 30 15.5 54t42.5 39h-286v587h416v-58h-347v-194h322v-58h-322v-220h350v-57h-28q-47 0 -74 -23.5z" />
    <glyph glyph-name="F.aalt" horiz-adv-x="490" 
d="M470 529h-327v-198h303v-58h-303v-273h-69v587h396v-58z" />
    <glyph glyph-name="glyph348" horiz-adv-x="980" 
d="M470 529h-327v-198h303v-58h-303v-273h-69v587h396v-58zM960 529h-327v-198h303v-58h-303v-273h-69v587h396v-58z" />
    <glyph glyph-name="glyph349" horiz-adv-x="1198" 
d="M470 529h-327v-198h303v-58h-303v-273h-69v587h396v-58zM960 529h-327v-198h303v-58h-303v-273h-69v587h396v-58zM1054 587h70v-587h-70v587z" />
    <glyph glyph-name="glyph350" horiz-adv-x="1309" 
d="M470 529h-327v-198h303v-58h-303v-273h-69v587h396v-58zM907 529h-327v-198h303v-58h-303v-273h-69v587h396v-58zM881 187q0 -68 37 -105t110 -37q71 0 108.5 40t37.5 118v384h68v-390q0 -66 -26 -113t-74.5 -71.5t-113.5 -24.5q-68 0 -116 23t-73 66.5t-25 103.5v27h67
v-21z" />
    <glyph glyph-name="glyph351" horiz-adv-x="1467" 
d="M470 529h-327v-198h303v-58h-303v-273h-69v587h396v-58zM960 529h-327v-198h303v-58h-303v-273h-69v587h396v-58zM1124 58h334v-58h-404v587h70v-529z" />
    <glyph glyph-name="glyph352" horiz-adv-x="708" 
d="M470 529h-327v-198h303v-58h-303v-273h-69v587h396v-58zM564 587h70v-587h-70v587z" />
    <glyph glyph-name="glyph353" horiz-adv-x="872" 
d="M470 529h-327v-198h303v-58h-303v-273h-69v587h396v-58zM444 187q0 -68 37 -105t110 -37q71 0 108.5 40t37.5 118v384h68v-390q0 -66 -26 -113t-74.5 -71.5t-113.5 -24.5q-68 0 -116 23t-73 66.5t-25 103.5v27h67v-21z" />
    <glyph glyph-name="glyph354" horiz-adv-x="977" 
d="M470 529h-327v-198h303v-58h-303v-273h-69v587h396v-58zM634 58h334v-58h-404v587h70v-529z" />
    <glyph glyph-name="uniFB01.aalt" horiz-adv-x="708" 
d="M470 529h-327v-198h303v-58h-303v-273h-69v587h396v-58zM564 587h70v-587h-70v587z" />
    <glyph glyph-name="uniFB02.aalt" horiz-adv-x="977" 
d="M470 529h-327v-198h303v-58h-303v-273h-69v587h396v-58zM634 58h334v-58h-404v587h70v-529z" />
    <glyph glyph-name="G.aalt" horiz-adv-x="654" 
d="M594 302v-302h-49l-8 90q-26 -46 -79.5 -74t-128.5 -28q-85 0 -150.5 35t-102 104t-36.5 167q0 93 35 162t101.5 106.5t157.5 37.5q63 0 115.5 -19t89 -59t48.5 -100h-70q-15 57 -62 88t-122 31q-69 0 -119 -29t-77 -84.5t-27 -133.5q0 -80 27.5 -136t77.5 -84t117 -28
q100 0 151.5 50t51.5 148h-197v58h256z" />
    <glyph glyph-name="Gbreve.aalt" horiz-adv-x="654" 
d="M594 302v-302h-49l-8 90q-26 -46 -79.5 -74t-128.5 -28q-85 0 -150.5 35t-102 104t-36.5 167q0 93 35 162t101.5 106.5t157.5 37.5q63 0 115.5 -19t89 -59t48.5 -100h-70q-15 57 -62 88t-122 31q-69 0 -119 -29t-77 -84.5t-27 -133.5q0 -80 27.5 -136t77.5 -84t117 -28
q100 0 151.5 50t51.5 148h-197v58h256zM455.5 743.5q-18.5 -30.5 -48.5 -46.5t-68 -16q-37 0 -67 16t-48.5 46.5t-21.5 72.5h52q6 -43 28.5 -64t56.5 -21t57 21t29 64h51q-2 -42 -20.5 -72.5z" />
    <glyph glyph-name="Gcircumflex.aalt" horiz-adv-x="654" 
d="M594 302v-302h-49l-8 90q-26 -46 -79.5 -74t-128.5 -28q-85 0 -150.5 35t-102 104t-36.5 167q0 93 35 162t101.5 106.5t157.5 37.5q63 0 115.5 -19t89 -59t48.5 -100h-70q-15 57 -62 88t-122 31q-69 0 -119 -29t-77 -84.5t-27 -133.5q0 -80 27.5 -136t77.5 -84t117 -28
q100 0 151.5 50t51.5 148h-197v58h256zM375 816l112 -133h-69l-78 91l-77 -91h-71l111 133h72z" />
    <glyph glyph-name="uni0122.aalt" horiz-adv-x="654" 
d="M594 302v-302h-49l-8 90q-26 -46 -79.5 -74t-128.5 -28q-85 0 -150.5 35t-102 104t-36.5 167q0 93 35 162t101.5 106.5t157.5 37.5q63 0 115.5 -19t89 -59t48.5 -100h-70q-15 57 -62 88t-122 31q-69 0 -119 -29t-77 -84.5t-27 -133.5q0 -80 27.5 -136t77.5 -84t117 -28
q100 0 151.5 50t51.5 148h-197v58h256zM304 -171q29 19 29 50h-34v79h76v-55q0 -39 -11.5 -62t-36.5 -39z" />
    <glyph glyph-name="Gdotaccent.aalt" horiz-adv-x="654" 
d="M594 302v-302h-49l-8 90q-26 -46 -79.5 -74t-128.5 -28q-85 0 -150.5 35t-102 104t-36.5 167q0 93 35 162t101.5 106.5t157.5 37.5q63 0 115.5 -19t89 -59t48.5 -100h-70q-15 57 -62 88t-122 31q-69 0 -119 -29t-77 -84.5t-27 -133.5q0 -80 27.5 -136t77.5 -84t117 -28
q100 0 151.5 50t51.5 148h-197v58h256zM374 674h-70v100h70v-100z" />
    <glyph glyph-name="H.aalt" horiz-adv-x="632" 
d="M557 0h-68v276h-346v-276h-69v587h69v-251h346v251h68v-587z" />
    <glyph glyph-name="Hbar.aalt" horiz-adv-x="651" 
d="M636 437h-69v-437h-68v276h-345v-276h-69v437h-70v50h70v100h69v-100h345v100h68v-100h69v-50zM499 437h-345v-101h345v101z" />
    <glyph glyph-name="Hcircumflex.aalt" horiz-adv-x="632" 
d="M557 0h-68v276h-346v-276h-69v587h69v-251h346v251h68v-587zM352 816l112 -133h-69l-78 91l-77 -91h-71l111 133h72z" />
    <glyph glyph-name="I.aalt" horiz-adv-x="218" 
d="M74 587h70v-587h-70v587z" />
    <glyph glyph-name="Iacute.aalt" horiz-adv-x="218" 
d="M74 587h70v-587h-70v587zM190 816h83l-130 -137h-61z" />
    <glyph glyph-name="Ibreve.aalt" horiz-adv-x="218" 
d="M74 587h70v-587h-70v587zM50 703.5q-26 13.5 -41 42t-15 70.5h50q1 -42 19 -60.5t46 -18.5t46.5 18.5t19.5 60.5h49q0 -62 -32 -94t-83 -32q-33 0 -59 13.5z" />
    <glyph glyph-name="Icircumflex.aalt" horiz-adv-x="218" 
d="M74 587h70v-587h-70v587zM145 816l92 -129h-62l-65 90l-64 -90h-64l91 129h72z" />
    <glyph glyph-name="Idieresis.aalt" horiz-adv-x="218" 
d="M74 587h70v-587h-70v587zM78 721h-77v81h77v-81zM217 721h-77v81h77v-81z" />
    <glyph glyph-name="Idotaccent.aalt" horiz-adv-x="218" 
d="M74 587h70v-587h-70v587zM144 674h-70v100h70v-100z" />
    <glyph glyph-name="Igrave.aalt" horiz-adv-x="218" 
d="M74 587h70v-587h-70v587zM83 686l-106 130h77l87 -130h-58z" />
    <glyph glyph-name="IJ.aalt" horiz-adv-x="597" 
d="M137 190q0 -144 162 -144q81 0 122 39t41 123v379h68v-382q0 -108 -60.5 -163t-170.5 -55q-71 0 -123 22.5t-80 65.5t-28 102v17h69v-4zM68 587h69v-276h-69v276z" />
    <glyph glyph-name="Imacron.aalt" horiz-adv-x="218" 
d="M74 587h70v-587h-70v587zM217 722h-216v51h216v-51z" />
    <glyph glyph-name="Iogonek.aalt" horiz-adv-x="218" 
d="M156 -150v-48q-24 -8 -51 -8q-34 0 -61.5 13.5t-42.5 38.5t-15 58q0 43 24 72t64 41v570h70v-587h-8q-41 0 -64.5 -22.5t-23.5 -62.5q0 -36 18 -54t48 -18q20 0 42 7z" />
    <glyph glyph-name="Itilde.aalt" horiz-adv-x="218" 
d="M74 587h70v-587h-70v587zM-24.5 750.5q10.5 23.5 29.5 37t44 13.5q23 0 38.5 -7.5t34.5 -20.5q15 -10 24 -15t21 -5q37 0 40 53h47q0 -30 -10.5 -53.5t-29.5 -37t-45 -13.5q-23 0 -38.5 7t-34.5 21q-13 10 -22.5 15t-21.5 5q-37 0 -40 -53h-47q0 30 10.5 53.5z" />
    <glyph glyph-name="J.aalt" horiz-adv-x="515" 
d="M88 177q0 -61 37 -96.5t108 -35.5t108.5 40t37.5 118v384h68v-390q0 -66 -26 -113t-74.5 -71.5t-113.5 -24.5q-67 0 -115 22.5t-73 64t-25 96.5v28h68v-22z" />
    <glyph glyph-name="Jcircumflex.aalt" horiz-adv-x="515" 
d="M88 177q0 -61 37 -96.5t108 -35.5t108.5 40t37.5 118v384h68v-390q0 -66 -26 -113t-74.5 -71.5t-113.5 -24.5q-67 0 -115 22.5t-73 64t-25 96.5v28h68v-22zM449 816l92 -129h-62l-65 90l-64 -90h-64l91 129h72z" />
    <glyph glyph-name="K.aalt" horiz-adv-x="577" 
d="M256 301l-113 -103v-198h-69v588h69v-307l338 307h90l-264 -244l272 -344h-85z" />
    <glyph glyph-name="uni0136.aalt" horiz-adv-x="577" 
d="M256 301l-113 -103v-198h-69v588h69v-307l338 307h90l-264 -244l272 -344h-85zM276 -171q29 19 29 50h-34v79h76v-55q0 -39 -11.5 -62t-36.5 -39z" />
    <glyph glyph-name="L.aalt" horiz-adv-x="488" 
d="M144 58h334v-58h-404v587h70v-529z" />
    <glyph glyph-name="Lacute.aalt" horiz-adv-x="488" 
d="M144 58h334v-58h-404v587h70v-529zM196 816h83l-130 -137h-61z" />
    <glyph glyph-name="Lcaron.aalt" horiz-adv-x="488" 
d="M144 58h334v-58h-404v587h70v-529zM249 587h66l-29 -160h-44z" />
    <glyph glyph-name="uni013B.aalt" horiz-adv-x="488" 
d="M144 58h334v-58h-404v587h70v-529zM243 -171q29 19 29 50h-34v79h76v-55q0 -39 -11.5 -62t-36.5 -39z" />
    <glyph glyph-name="Ldot.aalt" horiz-adv-x="488" 
d="M144 58h334v-58h-404v587h70v-529zM377 277h-68v92h68v-92z" />
    <glyph glyph-name="Lslash.aalt" horiz-adv-x="492" 
d="M477 58v-58h-403v190l-47 -37v54l47 38v342h69v-288l164 130v-55l-164 -129v-187h334z" />
    <glyph glyph-name="M.aalt" horiz-adv-x="756" 
d="M74 587h102l203 -505l206 505h97v-587h-67v496l-207 -496h-62l-205 496v-496h-67v587z" />
    <glyph glyph-name="N.aalt" horiz-adv-x="632" 
d="M74 587h77l340 -486v486h66v-587h-76l-340 487v-487h-67v587z" />
    <glyph glyph-name="Nacute.aalt" horiz-adv-x="632" 
d="M74 587h77l340 -486v486h66v-587h-76l-340 487v-487h-67v587zM403 816h83l-130 -137h-61z" />
    <glyph glyph-name="napostrophe.aalt" horiz-adv-x="632" 
d="M74 587h77l340 -486v486h66v-587h-76l-340 487v-487h-67v587z" />
    <glyph glyph-name="Ncaron.aalt" horiz-adv-x="632" 
d="M74 587h77l340 -486v486h66v-587h-76l-340 487v-487h-67v587zM174 816h71l77 -91l78 91h69l-112 -133h-72z" />
    <glyph glyph-name="uni0145.aalt" horiz-adv-x="632" 
d="M74 587h77l340 -486v486h66v-587h-76l-340 487v-487h-67v587zM283 -171q29 19 29 50h-34v79h76v-55q0 -39 -11.5 -62t-36.5 -39z" />
    <glyph glyph-name="Eng.aalt" horiz-adv-x="632" 
d="M384 -198v54h52q28 0 43 14t15 41v73l-353 503v-487h-67v587h77l340 -486v486h66v-673q0 -114 -109 -114q-42 0 -64 2z" />
    <glyph glyph-name="Ntilde.aalt" horiz-adv-x="632" 
d="M74 587h77l340 -486v486h66v-587h-76l-340 487v-487h-67v587zM193.5 781q25.5 29 68.5 29q22 0 40 -7.5t41 -21.5q19 -11 30.5 -16t23.5 -5q21 0 33 14.5t14 41.5h50q-2 -46 -27.5 -75.5t-66.5 -29.5q-22 0 -40 7t-44 21q-17 10 -29 15.5t-24 5.5q-22 0 -33.5 -14
t-14.5 -41h-49q2 47 27.5 76z" />
    <glyph glyph-name="O.c2sc" horiz-adv-x="657" 
d="M476.5 564q65.5 -36 103 -105t37.5 -166q0 -96 -37.5 -165t-103 -104.5t-148.5 -35.5t-148 35.5t-102.5 104.5t-37.5 165q0 97 37.5 166t102.5 105t148 36t148.5 -36zM215.5 512.5q-49.5 -28.5 -77.5 -84.5t-28 -135t28 -134.5t77.5 -84t112.5 -28.5t112.5 28.5t78 84
t28.5 134.5t-28.5 135t-78 84.5t-112.5 28.5t-112.5 -28.5z" />
    <glyph glyph-name="Oacute.aalt" horiz-adv-x="657" 
d="M476.5 564q65.5 -36 103 -105t37.5 -166q0 -96 -37.5 -165t-103 -104.5t-148.5 -35.5t-148 35.5t-102.5 104.5t-37.5 165q0 97 37.5 166t102.5 105t148 36t148.5 -36zM215.5 512.5q-49.5 -28.5 -77.5 -84.5t-28 -135t28 -134.5t77.5 -84t112.5 -28.5t112.5 28.5t78 84
t28.5 134.5t-28.5 135t-78 84.5t-112.5 28.5t-112.5 -28.5zM416 816h83l-130 -137h-61z" />
    <glyph glyph-name="Obreve.aalt" horiz-adv-x="657" 
d="M476.5 564q65.5 -36 103 -105t37.5 -166q0 -96 -37.5 -165t-103 -104.5t-148.5 -35.5t-148 35.5t-102.5 104.5t-37.5 165q0 97 37.5 166t102.5 105t148 36t148.5 -36zM215.5 512.5q-49.5 -28.5 -77.5 -84.5t-28 -135t28 -134.5t77.5 -84t112.5 -28.5t112.5 28.5t78 84
t28.5 134.5t-28.5 135t-78 84.5t-112.5 28.5t-112.5 -28.5zM445.5 743.5q-18.5 -30.5 -48.5 -46.5t-68 -16q-37 0 -67 16t-48.5 46.5t-21.5 72.5h52q6 -43 28.5 -64t56.5 -21t57 21t29 64h51q-2 -42 -20.5 -72.5z" />
    <glyph glyph-name="Ocircumflex.aalt" horiz-adv-x="657" 
d="M476.5 564q65.5 -36 103 -105t37.5 -166q0 -96 -37.5 -165t-103 -104.5t-148.5 -35.5t-148 35.5t-102.5 104.5t-37.5 165q0 97 37.5 166t102.5 105t148 36t148.5 -36zM215.5 512.5q-49.5 -28.5 -77.5 -84.5t-28 -135t28 -134.5t77.5 -84t112.5 -28.5t112.5 28.5t78 84
t28.5 134.5t-28.5 135t-78 84.5t-112.5 28.5t-112.5 -28.5zM365 816l112 -133h-69l-78 91l-77 -91h-71l111 133h72z" />
    <glyph glyph-name="Odieresis.aalt" horiz-adv-x="657" 
d="M476.5 564q65.5 -36 103 -105t37.5 -166q0 -96 -37.5 -165t-103 -104.5t-148.5 -35.5t-148 35.5t-102.5 104.5t-37.5 165q0 97 37.5 166t102.5 105t148 36t148.5 -36zM215.5 512.5q-49.5 -28.5 -77.5 -84.5t-28 -135t28 -134.5t77.5 -84t112.5 -28.5t112.5 28.5t78 84
t28.5 134.5t-28.5 135t-78 84.5t-112.5 28.5t-112.5 -28.5zM277 722h-78v81h78v-81zM455 722h-77v81h77v-81z" />
    <glyph glyph-name="Ograve.aalt" horiz-adv-x="657" 
d="M476.5 564q65.5 -36 103 -105t37.5 -166q0 -96 -37.5 -165t-103 -104.5t-148.5 -35.5t-148 35.5t-102.5 104.5t-37.5 165q0 97 37.5 166t102.5 105t148 36t148.5 -36zM215.5 512.5q-49.5 -28.5 -77.5 -84.5t-28 -135t28 -134.5t77.5 -84t112.5 -28.5t112.5 28.5t78 84
t28.5 134.5t-28.5 135t-78 84.5t-112.5 28.5t-112.5 -28.5zM293 679l-130 137h83l108 -137h-61z" />
    <glyph glyph-name="Ohungarumlaut.aalt" horiz-adv-x="657" 
d="M476.5 564q65.5 -36 103 -105t37.5 -166q0 -96 -37.5 -165t-103 -104.5t-148.5 -35.5t-148 35.5t-102.5 104.5t-37.5 165q0 97 37.5 166t102.5 105t148 36t148.5 -36zM215.5 512.5q-49.5 -28.5 -77.5 -84.5t-28 -135t28 -134.5t77.5 -84t112.5 -28.5t112.5 28.5t78 84
t28.5 134.5t-28.5 135t-78 84.5t-112.5 28.5t-112.5 -28.5zM285 816h74l-86 -137h-57zM447 816h73l-85 -137h-57z" />
    <glyph glyph-name="Omacron.aalt" horiz-adv-x="657" 
d="M476.5 564q65.5 -36 103 -105t37.5 -166q0 -96 -37.5 -165t-103 -104.5t-148.5 -35.5t-148 35.5t-102.5 104.5t-37.5 165q0 97 37.5 166t102.5 105t148 36t148.5 -36zM215.5 512.5q-49.5 -28.5 -77.5 -84.5t-28 -135t28 -134.5t77.5 -84t112.5 -28.5t112.5 28.5t78 84
t28.5 134.5t-28.5 135t-78 84.5t-112.5 28.5t-112.5 -28.5zM457 722h-256v51h256v-51z" />
    <glyph glyph-name="Oslash.aalt" horiz-adv-x="657" 
d="M587 442.5q30 -64.5 30 -149.5q0 -96 -37.5 -165t-103 -104.5t-148.5 -35.5q-78 0 -139 31l-44 -74l-46 23l46 79q-50 39 -77.5 101.5t-27.5 144.5q0 97 37.5 166t102.5 105t148 36q72 0 131 -27l41 70l47 -24l-43 -73q53 -39 83 -103.5zM178 99l252 421q-45 21 -102 21
q-63 0 -112.5 -28.5t-77.5 -84.5t-28 -135q0 -129 68 -194zM440.5 74.5q49.5 28.5 78 84t28.5 134.5q0 71 -20 121t-56 80l-253 -423q47 -25 110 -25t112.5 28.5z" />
    <glyph glyph-name="Otilde.aalt" horiz-adv-x="657" 
d="M476.5 564q65.5 -36 103 -105t37.5 -166q0 -96 -37.5 -165t-103 -104.5t-148.5 -35.5t-148 35.5t-102.5 104.5t-37.5 165q0 97 37.5 166t102.5 105t148 36t148.5 -36zM215.5 512.5q-49.5 -28.5 -77.5 -84.5t-28 -135t28 -134.5t77.5 -84t112.5 -28.5t112.5 28.5t78 84
t28.5 134.5t-28.5 135t-78 84.5t-112.5 28.5t-112.5 -28.5zM206.5 781q25.5 29 68.5 29q22 0 40 -7.5t41 -21.5q19 -11 30.5 -16t23.5 -5q21 0 33 14.5t14 41.5h50q-2 -46 -27.5 -75.5t-66.5 -29.5q-22 0 -40 7t-44 21q-17 10 -29 15.5t-24 5.5q-22 0 -33.5 -14t-14.5 -41
h-49q2 47 27.5 76z" />
    <glyph glyph-name="OE.aalt" horiz-adv-x="948" 
d="M908 57v-57h-404v46q-32 -29 -78 -43.5t-98 -14.5q-83 0 -148 35.5t-102.5 104.5t-37.5 165q0 97 37.5 166t103.5 105t149 36q52 0 97.5 -14t76.5 -44v45h400v-58h-332v-194h308v-58h-308v-220h336zM430.5 65q44.5 19 73.5 57v344q-28 38 -72.5 56.5t-101.5 18.5
q-64 0 -114 -28t-78 -84t-28 -136q0 -79 28.5 -134.5t78.5 -84t113 -28.5q56 0 100.5 19z" />
    <glyph glyph-name="P.aalt" horiz-adv-x="541" 
d="M74 587h238q106 0 160 -44t54 -128q0 -86 -54.5 -130.5t-159.5 -44.5h-169v-240h-69v587zM310 298q73 0 110 28.5t37 88.5q0 115 -147 115h-167v-232h167z" />
    <glyph glyph-name="Thorn.aalt" horiz-adv-x="546" 
d="M74 587h69v-107h169q106 0 160 -43.5t54 -127.5q0 -86 -54 -130.5t-160 -44.5h-169v-134h-69v587zM310 191q73 0 110 29t37 89q0 58 -37 86t-110 28h-167v-232h167z" />
    <glyph glyph-name="Q.aalt" horiz-adv-x="657" 
d="M595.5 163.5q-21.5 -57.5 -61.5 -97.5l77 -75l-39 -39l-82 80q-70 -44 -162 -44q-83 0 -148 35.5t-102.5 104.5t-37.5 165q0 97 37.5 166t102.5 105t148 36t148.5 -36t103 -105t37.5 -166q0 -72 -21.5 -129.5zM138 158.5q28 -55.5 77.5 -84t112.5 -28.5q69 0 119 29
l-83 80l37 38l88 -84q58 66 58 184q0 79 -28.5 135t-78 84.5t-112.5 28.5t-112.5 -28.5t-77.5 -84.5t-28 -135t28 -134.5z" />
    <glyph glyph-name="r.aalt" horiz-adv-x="593" 
d="M74 587h267q93 0 144.5 -40.5t51.5 -119.5q0 -54 -29.5 -90.5t-86.5 -52.5q44 -10 65 -34.5t29 -69.5l15 -88q10 -59 24 -92h-70q-7 14 -12 33t-10 51l-14 84q-6 32 -18.5 50.5t-35 26.5t-57.5 8h-194v-253h-69v587zM334 311q66 0 99.5 28t33.5 82q0 109 -135 109h-189
v-219h191z" />
    <glyph glyph-name="r.aalt.aalt" horiz-adv-x="578" 
d="M474 0l-141 246h-190v-246h-69v587h262q60 0 105.5 -19.5t70.5 -58t25 -93.5q0 -64 -35 -105.5t-97 -56.5l149 -254h-80zM143 303h184q69 0 104.5 27.5t35.5 85.5q0 54 -36.5 84t-103.5 30h-184v-227z" />
    <glyph glyph-name="racute.aalt" horiz-adv-x="593" 
d="M74 587h267q93 0 144.5 -40.5t51.5 -119.5q0 -54 -29.5 -90.5t-86.5 -52.5q44 -10 65 -34.5t29 -69.5l15 -88q10 -59 24 -92h-70q-7 14 -12 33t-10 51l-14 84q-6 32 -18.5 50.5t-35 26.5t-57.5 8h-194v-253h-69v587zM334 311q66 0 99.5 28t33.5 82q0 109 -135 109h-189
v-219h191zM379 816h83l-130 -137h-61z" />
    <glyph glyph-name="racute.aalt.aalt" horiz-adv-x="578" 
d="M474 0l-141 246h-190v-246h-69v587h262q60 0 105.5 -19.5t70.5 -58t25 -93.5q0 -64 -35 -105.5t-97 -56.5l149 -254h-80zM143 303h184q69 0 104.5 27.5t35.5 85.5q0 54 -36.5 84t-103.5 30h-184v-227zM379 816h83l-130 -137h-61z" />
    <glyph glyph-name="rcaron.aalt" horiz-adv-x="593" 
d="M74 587h267q93 0 144.5 -40.5t51.5 -119.5q0 -54 -29.5 -90.5t-86.5 -52.5q44 -10 65 -34.5t29 -69.5l15 -88q10 -59 24 -92h-70q-7 14 -12 33t-10 51l-14 84q-6 32 -18.5 50.5t-35 26.5t-57.5 8h-194v-253h-69v587zM334 311q66 0 99.5 28t33.5 82q0 109 -135 109h-189
v-219h191zM150 816h71l77 -91l78 91h69l-112 -133h-72z" />
    <glyph glyph-name="rcaron.aalt.aalt" horiz-adv-x="578" 
d="M474 0l-141 246h-190v-246h-69v587h262q60 0 105.5 -19.5t70.5 -58t25 -93.5q0 -64 -35 -105.5t-97 -56.5l149 -254h-80zM143 303h184q69 0 104.5 27.5t35.5 85.5q0 54 -36.5 84t-103.5 30h-184v-227zM150 816h71l77 -91l78 91h69l-112 -133h-72z" />
    <glyph glyph-name="uni0157.aalt" horiz-adv-x="593" 
d="M74 587h267q93 0 144.5 -40.5t51.5 -119.5q0 -54 -29.5 -90.5t-86.5 -52.5q44 -10 65 -34.5t29 -69.5l15 -88q10 -59 24 -92h-70q-7 14 -12 33t-10 51l-14 84q-6 32 -18.5 50.5t-35 26.5t-57.5 8h-194v-253h-69v587zM334 311q66 0 99.5 28t33.5 82q0 109 -135 109h-189
v-219h191zM270 -171q29 19 29 50h-34v79h76v-55q0 -39 -11.5 -62t-36.5 -39z" />
    <glyph glyph-name="uni0157.aalt.aalt" horiz-adv-x="578" 
d="M474 0l-141 246h-190v-246h-69v587h262q60 0 105.5 -19.5t70.5 -58t25 -93.5q0 -64 -35 -105.5t-97 -56.5l149 -254h-80zM143 303h184q69 0 104.5 27.5t35.5 85.5q0 54 -36.5 84t-103.5 30h-184v-227zM273 -171q29 19 29 50h-34v79h76v-55q0 -39 -11.5 -62t-36.5 -39z
" />
    <glyph glyph-name="S.aalt" horiz-adv-x="569" 
d="M437 439q-4 48 -43 75.5t-109 27.5q-47 0 -80.5 -13.5t-50.5 -37.5t-17 -54q0 -37 25.5 -58.5t70.5 -32.5l135 -31q79 -18 118 -56.5t39 -101.5q0 -53 -29 -91t-80.5 -58t-119.5 -20q-75 0 -129.5 21t-83.5 62t-29 100h71q0 -61 46 -93.5t127 -32.5q49 0 84.5 14
t54.5 38.5t19 56.5q0 39 -27.5 63t-82.5 37l-132 30q-75 17 -110.5 54.5t-35.5 95.5q0 48 27 86t76.5 59t114.5 21q63 0 112 -19t77.5 -55t30.5 -87h-69z" />
    <glyph glyph-name="Sacute.aalt" horiz-adv-x="569" 
d="M437 439q-4 48 -43 75.5t-109 27.5q-47 0 -80.5 -13.5t-50.5 -37.5t-17 -54q0 -37 25.5 -58.5t70.5 -32.5l135 -31q79 -18 118 -56.5t39 -101.5q0 -53 -29 -91t-80.5 -58t-119.5 -20q-75 0 -129.5 21t-83.5 62t-29 100h71q0 -61 46 -93.5t127 -32.5q49 0 84.5 14
t54.5 38.5t19 56.5q0 39 -27.5 63t-82.5 37l-132 30q-75 17 -110.5 54.5t-35.5 95.5q0 48 27 86t76.5 59t114.5 21q63 0 112 -19t77.5 -55t30.5 -87h-69zM372 816h83l-130 -137h-61z" />
    <glyph glyph-name="Scaron.aalt" horiz-adv-x="569" 
d="M437 439q-4 48 -43 75.5t-109 27.5q-47 0 -80.5 -13.5t-50.5 -37.5t-17 -54q0 -37 25.5 -58.5t70.5 -32.5l135 -31q79 -18 118 -56.5t39 -101.5q0 -53 -29 -91t-80.5 -58t-119.5 -20q-75 0 -129.5 21t-83.5 62t-29 100h71q0 -61 46 -93.5t127 -32.5q49 0 84.5 14
t54.5 38.5t19 56.5q0 39 -27.5 63t-82.5 37l-132 30q-75 17 -110.5 54.5t-35.5 95.5q0 48 27 86t76.5 59t114.5 21q63 0 112 -19t77.5 -55t30.5 -87h-69zM143 816h71l77 -91l78 91h69l-112 -133h-72z" />
    <glyph glyph-name="Scedilla.c2sc" horiz-adv-x="569" 
d="M498.5 69.5q-26.5 -37.5 -75 -58t-111.5 -23.5l-5 -33h7q47 0 73.5 -20.5t26.5 -57.5q0 -39 -29 -61t-84 -22q-39 0 -80 12v49q40 -14 78 -14q28 0 42 9.5t14 27.5q0 34 -55 34q-24 0 -46 -5l13 82q-100 6 -156.5 53t-56.5 129h71q0 -61 46 -93.5t127 -32.5q49 0 84.5 14
t54.5 38.5t19 56.5q0 39 -27.5 63t-82.5 37l-132 30q-75 17 -110.5 54.5t-35.5 95.5q0 48 27 86t76.5 59t114.5 21q63 0 112 -19t77.5 -55t30.5 -87h-69q-4 48 -43 75.5t-109 27.5q-47 0 -80.5 -13.5t-50.5 -37.5t-17 -54q0 -37 25.5 -58.5t70.5 -32.5l135 -31
q79 -18 118 -56.5t39 -101.5q0 -50 -26.5 -87.5z" />
    <glyph glyph-name="Scircumflex.aalt" horiz-adv-x="569" 
d="M437 439q-4 48 -43 75.5t-109 27.5q-47 0 -80.5 -13.5t-50.5 -37.5t-17 -54q0 -37 25.5 -58.5t70.5 -32.5l135 -31q79 -18 118 -56.5t39 -101.5q0 -53 -29 -91t-80.5 -58t-119.5 -20q-75 0 -129.5 21t-83.5 62t-29 100h71q0 -61 46 -93.5t127 -32.5q49 0 84.5 14
t54.5 38.5t19 56.5q0 39 -27.5 63t-82.5 37l-132 30q-75 17 -110.5 54.5t-35.5 95.5q0 48 27 86t76.5 59t114.5 21q63 0 112 -19t77.5 -55t30.5 -87h-69zM321 816l112 -133h-69l-78 91l-77 -91h-71l111 133h72z" />
    <glyph glyph-name="uni0218.aalt" horiz-adv-x="569" 
d="M437 439q-4 48 -43 75.5t-109 27.5q-47 0 -80.5 -13.5t-50.5 -37.5t-17 -54q0 -37 25.5 -58.5t70.5 -32.5l135 -31q79 -18 118 -56.5t39 -101.5q0 -53 -29 -91t-80.5 -58t-119.5 -20q-75 0 -129.5 21t-83.5 62t-29 100h71q0 -61 46 -93.5t127 -32.5q49 0 84.5 14
t54.5 38.5t19 56.5q0 39 -27.5 63t-82.5 37l-132 30q-75 17 -110.5 54.5t-35.5 95.5q0 48 27 86t76.5 59t114.5 21q63 0 112 -19t77.5 -55t30.5 -87h-69zM263 -171q29 19 29 50h-34v79h76v-55q0 -39 -11.5 -62t-36.5 -39z" />
    <glyph glyph-name="uni1E9E.aalt" horiz-adv-x="587" 
d="M440 573.5q54 -25.5 83 -71.5l-152 -170q85 -4 133 -44.5t48 -120.5q0 -81 -54 -124t-162 -43h-50v56h47q76 0 113 27t37 84t-36.5 84t-112.5 27h-47v49l154 173q-22 20 -54 30.5t-72 10.5q-87 0 -129.5 -44.5t-42.5 -134.5v-362h-69v370q0 111 62.5 170t178.5 59
q71 0 125 -25.5z" />
    <glyph glyph-name="T.aalt" horiz-adv-x="505" 
d="M495 529h-208v-529h-69v529h-208v58h485v-58z" />
    <glyph glyph-name="Tbar.aalt" horiz-adv-x="515" 
d="M292 529v-162h124v-47h-124v-320h-69v320h-124v47h124v162h-208v58h485v-58h-208z" />
    <glyph glyph-name="Tcaron.aalt" horiz-adv-x="505" 
d="M495 529h-208v-529h-69v529h-208v58h485v-58zM110 816h71l77 -91l78 91h69l-112 -133h-72z" />
    <glyph glyph-name="uni0162.c2sc" horiz-adv-x="505" 
d="M495 529h-208v-529h-69v529h-208v58h485v-58zM219 -171q29 19 29 50h-34v79h76v-55q0 -39 -11.5 -62t-36.5 -39z" />
    <glyph glyph-name="uni021A.aalt" horiz-adv-x="505" 
d="M495 529h-208v-529h-69v529h-208v58h485v-58zM219 -171q29 19 29 50h-34v79h76v-55q0 -39 -11.5 -62t-36.5 -39z" />
    <glyph glyph-name="U.aalt" horiz-adv-x="615" 
d="M136 225q0 -90 42 -134t129 -44t129.5 43.5t42.5 131.5v365h68v-371q0 -110 -62 -169t-178 -59t-178 59t-62 169v371h69v-362z" />
    <glyph glyph-name="Uacute.aalt" horiz-adv-x="615" 
d="M136 225q0 -90 42 -134t129 -44t129.5 43.5t42.5 131.5v365h68v-371q0 -110 -62 -169t-178 -59t-178 59t-62 169v371h69v-362zM394 816h83l-130 -137h-61z" />
    <glyph glyph-name="Ubreve.aalt" horiz-adv-x="615" 
d="M136 225q0 -90 42 -134t129 -44t129.5 43.5t42.5 131.5v365h68v-371q0 -110 -62 -169t-178 -59t-178 59t-62 169v371h69v-362zM423.5 743.5q-18.5 -30.5 -48.5 -46.5t-68 -16q-37 0 -67 16t-48.5 46.5t-21.5 72.5h52q6 -43 28.5 -64t56.5 -21t57 21t29 64h51
q-2 -42 -20.5 -72.5z" />
    <glyph glyph-name="Ucircumflex.aalt" horiz-adv-x="615" 
d="M136 225q0 -90 42 -134t129 -44t129.5 43.5t42.5 131.5v365h68v-371q0 -110 -62 -169t-178 -59t-178 59t-62 169v371h69v-362zM343 816l112 -133h-69l-78 91l-77 -91h-71l111 133h72z" />
    <glyph glyph-name="Udieresis.aalt" horiz-adv-x="615" 
d="M136 225q0 -90 42 -134t129 -44t129.5 43.5t42.5 131.5v365h68v-371q0 -110 -62 -169t-178 -59t-178 59t-62 169v371h69v-362zM255 722h-78v81h78v-81zM433 722h-77v81h77v-81z" />
    <glyph glyph-name="Ugrave.aalt" horiz-adv-x="615" 
d="M136 225q0 -90 42 -134t129 -44t129.5 43.5t42.5 131.5v365h68v-371q0 -110 -62 -169t-178 -59t-178 59t-62 169v371h69v-362zM271 679l-130 137h83l108 -137h-61z" />
    <glyph glyph-name="Uhungarumlaut.aalt" horiz-adv-x="615" 
d="M136 225q0 -90 42 -134t129 -44t129.5 43.5t42.5 131.5v365h68v-371q0 -110 -62 -169t-178 -59t-178 59t-62 169v371h69v-362zM263 816h74l-86 -137h-57zM425 816h73l-85 -137h-57z" />
    <glyph glyph-name="Umacron.aalt" horiz-adv-x="615" 
d="M136 225q0 -90 42 -134t129 -44t129.5 43.5t42.5 131.5v365h68v-371q0 -110 -62 -169t-178 -59t-178 59t-62 169v371h69v-362zM435 722h-256v51h256v-51z" />
    <glyph glyph-name="Uogonek.aalt" horiz-adv-x="615" 
d="M547 587v-371q0 -89 -39 -144t-112 -73q-35 -9 -52 -30.5t-17 -51.5q0 -36 21.5 -55t55.5 -19q23 0 48 7v-48q-14 -4 -26.5 -6t-29.5 -2q-39 0 -69 14t-46 39t-16 57q0 27 13 49t36 35q-122 0 -184.5 58.5t-62.5 169.5v371h69v-362q0 -90 42 -134t129 -44t129.5 43.5
t42.5 131.5v365h68z" />
    <glyph glyph-name="Uring.aalt" horiz-adv-x="615" 
d="M136 225q0 -90 42 -134t129 -44t129.5 43.5t42.5 131.5v365h68v-371q0 -110 -62 -169t-178 -59t-178 59t-62 169v371h69v-362zM256 693q-23 13 -36.5 36.5t-13.5 51.5t13.5 51t36.5 36t51 13t51 -13t36.5 -36t13.5 -51t-13.5 -51.5t-36.5 -36.5t-51 -13t-51 13z
M345.5 740q15.5 15 15.5 40q0 24 -15.5 40t-38.5 16t-38.5 -16t-15.5 -40q0 -25 15.5 -40t38.5 -15t38.5 15z" />
    <glyph glyph-name="Utilde.aalt" horiz-adv-x="615" 
d="M136 225q0 -90 42 -134t129 -44t129.5 43.5t42.5 131.5v365h68v-371q0 -110 -62 -169t-178 -59t-178 59t-62 169v371h69v-362zM184.5 781q25.5 29 68.5 29q22 0 40 -7.5t41 -21.5q19 -11 30.5 -16t23.5 -5q21 0 33 14.5t14 41.5h50q-2 -46 -27.5 -75.5t-66.5 -29.5
q-22 0 -40 7t-44 21q-17 10 -29 15.5t-24 5.5q-22 0 -33.5 -14t-14.5 -41h-49q2 47 27.5 76z" />
    <glyph glyph-name="V.aalt" horiz-adv-x="536" 
d="M307 0h-79l-223 587h72l192 -519l191 519h71z" />
    <glyph glyph-name="W.aalt" horiz-adv-x="830" 
d="M647 0h-75l-158 515l-156 -515h-75l-173 587h72l139 -507l153 507h85l150 -507l142 507h69z" />
    <glyph glyph-name="Wacute.aalt" horiz-adv-x="830" 
d="M647 0h-75l-158 515l-156 -515h-75l-173 587h72l139 -507l153 507h85l150 -507l142 507h69zM503 816h83l-130 -137h-61z" />
    <glyph glyph-name="Wcircumflex.aalt" horiz-adv-x="830" 
d="M647 0h-75l-158 515l-156 -515h-75l-173 587h72l139 -507l153 507h85l150 -507l142 507h69zM452 816l112 -133h-69l-78 91l-77 -91h-71l111 133h72z" />
    <glyph glyph-name="Wdieresis.aalt" horiz-adv-x="830" 
d="M647 0h-75l-158 515l-156 -515h-75l-173 587h72l139 -507l153 507h85l150 -507l142 507h69zM364 722h-78v81h78v-81zM542 722h-77v81h77v-81z" />
    <glyph glyph-name="Wgrave.aalt" horiz-adv-x="830" 
d="M647 0h-75l-158 515l-156 -515h-75l-173 587h72l139 -507l153 507h85l150 -507l142 507h69zM380 679l-130 137h83l108 -137h-61z" />
    <glyph glyph-name="X.aalt" horiz-adv-x="523" 
d="M514 0h-78l-174 255l-176 -255h-76l212 303l-200 284h77l164 -237l163 237h75l-198 -283z" />
    <glyph glyph-name="Y.aalt" horiz-adv-x="519" 
d="M225 242l-230 345h76l190 -288l191 288h72l-229 -345v-242h-70v242z" />
    <glyph glyph-name="Yacute.aalt" horiz-adv-x="519" 
d="M225 242l-230 345h76l190 -288l191 288h72l-229 -345v-242h-70v242zM347 816h83l-130 -137h-61z" />
    <glyph glyph-name="Ycircumflex.aalt" horiz-adv-x="519" 
d="M225 242l-230 345h76l190 -288l191 288h72l-229 -345v-242h-70v242zM296 816l112 -133h-69l-78 91l-77 -91h-71l111 133h72z" />
    <glyph glyph-name="Ydieresis.aalt" horiz-adv-x="519" 
d="M225 242l-230 345h76l190 -288l191 288h72l-229 -345v-242h-70v242zM208 722h-78v81h78v-81zM386 722h-77v81h77v-81z" />
    <glyph glyph-name="Ygrave.aalt" horiz-adv-x="519" 
d="M225 242l-230 345h76l190 -288l191 288h72l-229 -345v-242h-70v242zM224 679l-130 137h83l108 -137h-61z" />
    <glyph glyph-name="Z.aalt" horiz-adv-x="520" 
d="M487 528l-375 -470h383v-58h-462v59l375 470h-370v58h449v-59z" />
    <glyph glyph-name="Zacute.aalt" horiz-adv-x="520" 
d="M487 528l-375 -470h383v-58h-462v59l375 470h-370v58h449v-59zM350 816h83l-130 -137h-61z" />
    <glyph glyph-name="Zcaron.aalt" horiz-adv-x="520" 
d="M487 528l-375 -470h383v-58h-462v59l375 470h-370v58h449v-59zM121 816h71l77 -91l78 91h69l-112 -133h-72z" />
    <glyph glyph-name="Zdotaccent.aalt" horiz-adv-x="520" 
d="M487 528l-375 -470h383v-58h-462v59l375 470h-370v58h449v-59zM298 674h-70v100h70v-100z" />
    <glyph glyph-name="ordfeminine" unicode="&#xaa;" horiz-adv-x="469" 
d="M103.5 281q-34.5 16 -52 44.5t-17.5 67.5q0 111 137 131l95 14q26 4 40.5 11t20.5 19t6 32q0 34 -24 54.5t-78 20.5q-52 0 -80 -20.5t-31 -59.5h-68q4 63 52 98t128 35q89 0 128.5 -37.5t39.5 -118.5v-201q0 -21 7.5 -29.5t23.5 -8.5h11v-56q-20 -2 -30 -2q-36 0 -54 18
t-20 51q-22 -39 -60.5 -59t-91.5 -20q-48 0 -82.5 16zM297 354q36 36 36 98v66q-6 -11 -18.5 -16.5t-36.5 -9.5l-93 -17q-43 -7 -62.5 -26.5t-19.5 -53.5t23.5 -55.5t69.5 -21.5q65 0 101 36z" />
    <glyph glyph-name="ordmasculine" unicode="&#xba;" horiz-adv-x="473" 
d="M344.5 701q47.5 -27 74.5 -79.5t27 -125.5q0 -72 -27 -124.5t-74.5 -79.5t-106.5 -27q-61 0 -108.5 27t-74.5 79t-27 125t27 125.5t74.5 79.5t108.5 27q59 0 106.5 -27zM164 652.5q-32 -20.5 -50 -60t-18 -96.5q0 -56 18 -95.5t50.5 -60t73.5 -20.5q40 0 72 20.5t50.5 60
t18.5 95.5t-18.5 96t-50.5 60.5t-72 20.5q-42 0 -74 -20.5z" />
    <glyph glyph-name="uni0394" unicode="&#x394;" horiz-adv-x="645" 
d="M640 0h-635l273 713h88zM540 59l-220 595l-215 -595h435z" />
    <glyph glyph-name="uni03A9" unicode="&#x3a9;" horiz-adv-x="760" 
d="M45 56h180q-84 60 -128 147t-44 190q0 99 40 175t114 118t174 42t173.5 -42t112 -117.5t38.5 -175.5q0 -106 -43.5 -192.5t-126.5 -144.5h180v-56h-258v58q89 64 132 147.5t43 187.5q0 83 -30.5 145t-87 95.5t-133.5 33.5q-78 0 -136 -33.5t-89 -95.5t-31 -145
q0 -104 44 -187.5t134 -146.5v-59h-258v56z" />
    <glyph glyph-name="uni03BC" unicode="&#x3bc;" horiz-adv-x="570" 
d="M64 548h70v-330q0 -91 35 -132t104 -41q42 0 77.5 19.5t58 63.5t22.5 114v306h70v-548h-68v90q-26 -51 -69 -78t-101 -27q-80 0 -129 47v-217h-70v733z" />
    <glyph glyph-name="pi" unicode="&#x3c0;" horiz-adv-x="644" 
d="M454.5 35q-35.5 37 -35.5 111v343h-239v-489h-70v489h-100v59h578v-59h-99v-336q0 -52 19.5 -73.5t65.5 -21.5h45v-57q-24 -3 -55 -3q-74 0 -109.5 37z" />
    <glyph glyph-name="uni0394.aalt" horiz-adv-x="571" 
d="M566 0h-561l237 587h87zM469 56l-185 477l-183 -477h368z" />
    <glyph glyph-name="uni03A9.aalt" horiz-adv-x="667" 
d="M486.5 564.5q64.5 -34.5 98.5 -96.5t34 -143q0 -86 -37 -155t-109 -116h154v-54h-229v55q76 50 113.5 117t37.5 152q0 66 -26 115t-74.5 75.5t-114.5 26.5q-67 0 -116 -26.5t-75.5 -75.5t-26.5 -115q0 -85 38 -152t115 -116v-56h-229v54h154q-72 48 -109.5 118t-37.5 153
q0 81 35 143t100 96.5t152 34.5q88 0 152.5 -34.5z" />
    <glyph glyph-name="one.ss01" horiz-adv-x="477" 
d="M258 512h-194v52q79 0 120 11.5t60.5 43t27.5 94.5h57v-713h-71v512z" />
    <glyph glyph-name="one.tnum.ss01" 
d="M332 512h-193v52q78 0 119 11.5t61 43t28 94.5h56v-713h-71v512z" />
    <glyph glyph-name="zero.tnum" 
d="M110 77.5q-66 92.5 -66 279.5q0 371 257 371q126 0 192 -92t66 -280t-65.5 -279.5t-191.5 -91.5t-192 92.5zM440.5 120.5q47.5 74.5 47.5 235.5t-47.5 236t-139.5 75t-139 -74t-47 -236q0 -161 47 -236t139 -75t139.5 74.5z" />
    <glyph glyph-name="one.tnum" 
d="M522 61v-61h-404v61h180v451h-194v52q79 0 120 11.5t61 43t28 94.5h56v-652h153z" />
    <glyph glyph-name="two.tnum" 
d="M69 23q0 76 39.5 135t104.5 110l134 103q42 32 64 54t32.5 46.5t10.5 58.5q0 66 -42.5 102t-115.5 36q-81 0 -123.5 -43.5t-42.5 -128.5h-72q0 74 29 126.5t82.5 79t125.5 26.5q69 0 121 -23.5t80 -68.5t28 -107t-30 -108.5t-92 -93.5l-122 -91q-125 -92 -128 -175l390 1
v-62h-473v23z" />
    <glyph glyph-name="three.tnum" 
d="M111 42q-65 57 -68 170h71q0 -83 47.5 -125t138.5 -42q87 0 132 38.5t45 113.5q0 47 -22 81t-61.5 51t-91.5 17h-52v61h53q69 0 109 33t40 97t-41.5 97.5t-111.5 33.5q-79 0 -123 -38t-47 -111h-71q2 61 30.5 108.5t82 74t128.5 26.5q71 0 121.5 -23.5t76 -65.5t25.5 -97
q0 -39 -17 -72t-47 -56t-69 -34q73 -13 115.5 -61.5t42.5 -125.5q0 -63 -29.5 -110t-85.5 -72.5t-132 -25.5q-124 0 -189 57z" />
    <glyph glyph-name="four.tnum" 
d="M563 180h-110v-180h-71v180h-346v63l346 470h71v-473h110v-60zM382 240v375l-275 -375h275z" />
    <glyph glyph-name="five.tnum" 
d="M168.5 7q-52.5 22 -83.5 62.5t-36 94.5h72q9 -55 51 -87t120 -32q57 0 97.5 24t60.5 65t20 92q0 52 -19.5 92t-59.5 63t-99 23q-48 0 -91.5 -19.5t-72.5 -53.5h-61l47 382h385v-61h-329l-30 -249q29 26 75 43.5t91 17.5q70 0 123.5 -30.5t82.5 -85t29 -122.5
q0 -69 -30.5 -123.5t-87 -86t-132.5 -31.5q-70 0 -122.5 22z" />
    <glyph glyph-name="six.tnum" 
d="M119 66.5q-74 81.5 -74 283.5q0 119 32 203.5t94 129.5t149 45q59 0 105.5 -21t75.5 -58t39 -85h-71q-13 44 -52 73.5t-99 29.5q-99 0 -151.5 -79.5t-52.5 -252.5q16 39 46 68t71 45t88 16q69 0 122.5 -29.5t83 -83.5t29.5 -126q0 -70 -32 -124.5t-88 -85t-125 -30.5
q-116 0 -190 81.5zM397 66.5q39 21.5 61.5 62.5t22.5 96q0 56 -22 97t-60.5 62t-87.5 21q-54 0 -95 -22.5t-63 -62.5t-22 -92q0 -46 18 -87.5t58.5 -68.5t103.5 -27q47 0 86 21.5z" />
    <glyph glyph-name="seven.tnum" 
d="M237 240q35 118 97 223.5t148 187.5h-411v62h488v-59q-142 -139 -211.5 -304.5t-76.5 -349.5h-76q7 122 42 240z" />
    <glyph glyph-name="eight.tnum" 
d="M166 10.5q-58 25.5 -89.5 72.5t-31.5 110q0 49 20 87.5t55 63.5t81 35q-37 12 -66 36.5t-45.5 58t-16.5 70.5q0 53 27.5 95t79 65.5t121.5 23.5t121.5 -23.5t79 -65.5t27.5 -95q0 -37 -16.5 -70.5t-45.5 -58t-66 -36.5q46 -10 81 -35t55 -63.5t20 -87.5q0 -63 -31.5 -110
t-89.5 -72.5t-135 -25.5t-135 25.5zM415 440.5q43 33.5 43 98.5q0 42 -20.5 71.5t-56 44t-80.5 14.5t-80.5 -14.5t-56 -44t-20.5 -71.5q0 -65 43 -98.5t114 -33.5t114 33.5zM438 82.5q49 38.5 49 112.5q0 48 -24 82.5t-66 52t-96 17.5t-96 -17.5t-66 -52t-24 -82.5
q0 -74 49 -112.5t137 -38.5t137 38.5z" />
    <glyph glyph-name="nine.tnum" 
d="M481 653.5q74 -81.5 74 -283.5q0 -119 -32 -203.5t-94 -129.5t-149 -45q-59 0 -105.5 21t-75.5 58t-39 85h71q13 -44 52 -73.5t99 -29.5q99 0 151.5 79.5t52.5 252.5q-16 -39 -46 -68t-71 -45t-88 -16q-69 0 -122.5 29.5t-83 83.5t-29.5 126q0 70 32 124.5t88 85
t125 30.5q116 0 190 -81.5zM203 653.5q-39 -21.5 -61.5 -62.5t-22.5 -96q0 -56 22 -97t60.5 -62t87.5 -21q54 0 95 22.5t63 62.5t22 92q0 46 -18 87.5t-58.5 68.5t-103.5 27q-47 0 -86 -21.5z" />
    <glyph glyph-name="fraction" unicode="&#x2044;" horiz-adv-x="163" 
d="M-98 -26h-61l422 765h61z" />
    <glyph glyph-name="onehalf" unicode="&#xbd;" horiz-adv-x="883" 
d="M313 335v-50h-249v50h99v243h-99v44q42 0 65.5 8t34.5 28t13 57h46v-380h90zM262 -26h-61l422 765h61zM561 10q0 48 20 84.5t61 65.5l82 61q31 23 43.5 44.5t12.5 49.5q0 34 -21.5 54t-57.5 20q-41 0 -62.5 -24.5t-21.5 -62.5v-10h-58v12q0 39 17.5 69.5t50.5 47.5t77 17
q41 0 71 -15t46.5 -43t16.5 -65q0 -38 -15.5 -68.5t-45.5 -52.5l-82 -59q-26 -20 -43.5 -40.5t-20.5 -44.5h214v-50h-284v10z" />
    <glyph glyph-name="onequarter" unicode="&#xbc;" horiz-adv-x="883" 
d="M317 335v-50h-249v50h99v243h-99v44q42 0 65.5 8t34.5 28t13 57h46v-380h90zM262 -26h-61l422 765h61zM709 102h-194v48l192 280h62v-279h61v-49h-61v-102h-60v102zM710 151v198l-134 -198h134z" />
    <glyph glyph-name="threequarters" unicode="&#xbe;" horiz-adv-x="883" 
d="M71.5 312q-39.5 36 -40.5 102h58q1 -45 24 -67t70 -22q43 0 66 21.5t23 59.5t-24 58t-65 20h-30v50h27q37 0 58 18.5t21 52.5q0 33 -20 51t-57 18q-42 0 -65 -20.5t-25 -59.5h-58q1 38 19 67.5t51 45.5t80 16q41 0 71.5 -14t46.5 -40t16 -60q0 -35 -20.5 -60.5
t-55.5 -36.5q42 -8 65 -35t23 -71q0 -38 -18 -67.5t-51.5 -46t-77.5 -16.5q-72 0 -111.5 36zM262 -26h-61l422 765h61zM699 102h-194v48l192 280h62v-279h61v-49h-61v-102h-60v102zM700 151v198l-134 -198h134z" />
    <glyph glyph-name="zero.dnom" horiz-adv-x="360" 
d="M67.5 46q-39.5 55 -39.5 169q0 113 39.5 168t112.5 55t112.5 -55t39.5 -168q0 -114 -39.5 -169t-112.5 -55t-112.5 55zM250.5 81.5q23.5 40.5 23.5 133.5q0 92 -23.5 132.5t-70.5 40.5t-70 -40.5t-23 -132.5q0 -94 23 -134t70 -40t70.5 40.5z" />
    <glyph glyph-name="one.dnom" horiz-adv-x="360" 
d="M317 50v-50h-249v50h99v243h-99v44q42 0 65.5 8t34.5 28t13 57h46v-380h90z" />
    <glyph glyph-name="two.dnom" horiz-adv-x="360" 
d="M38 10q0 48 20 84.5t61 65.5l82 61q31 23 43.5 44.5t12.5 49.5q0 34 -21.5 54t-57.5 20q-41 0 -62.5 -24.5t-21.5 -62.5v-10h-58v12q0 39 17.5 69.5t50.5 47.5t77 17q41 0 71 -15t46.5 -43t16.5 -65q0 -38 -15.5 -68.5t-45.5 -52.5l-82 -59q-26 -20 -43.5 -40.5
t-20.5 -44.5h214v-50h-284v10z" />
    <glyph glyph-name="three.dnom" horiz-adv-x="360" 
d="M67.5 27q-39.5 36 -40.5 102h58q1 -45 24 -67t70 -22q43 0 66 21.5t23 59.5t-24 58t-65 20h-30v50h27q37 0 58 18.5t21 52.5q0 33 -20 51t-57 18q-42 0 -65 -20.5t-25 -59.5h-58q1 38 19 67.5t51 45.5t80 16q41 0 71.5 -14t46.5 -40t16 -60q0 -35 -20.5 -60.5
t-55.5 -36.5q42 -8 65 -35t23 -71q0 -38 -18 -67.5t-51.5 -46t-77.5 -16.5q-72 0 -111.5 36z" />
    <glyph glyph-name="four.dnom" horiz-adv-x="360" 
d="M216 102h-194v48l192 280h62v-279h61v-49h-61v-102h-60v102zM217 151v198l-134 -198h134z" />
    <glyph glyph-name="five.dnom" horiz-adv-x="360" 
d="M264 262q29 -18 46 -51t17 -76t-17.5 -75.5t-50.5 -50.5t-77 -18q-62 0 -101 29.5t-45 80.5h58q6 -27 27.5 -44t61.5 -17q41 0 63.5 26t22.5 69q0 44 -22.5 70t-63.5 26q-25 0 -48 -10.5t-37 -27.5h-53l26 237h232v-50h-181l-16 -136q15 17 40 26.5t53 9.5q36 0 65 -18z
" />
    <glyph glyph-name="six.dnom" horiz-adv-x="360" 
d="M269 262.5q29 -17.5 46 -50t17 -76.5t-18 -77t-49.5 -50.5t-70.5 -17.5q-73 0 -115.5 51.5t-42.5 167.5q0 72 19.5 123t55.5 78t85 27q53 0 88.5 -28.5t43.5 -74.5h-56q-5 23 -26 38.5t-50 15.5q-47 0 -75 -43.5t-28 -130.5q14 30 43.5 47.5t68.5 17.5q35 0 64 -17.5z
M251.5 65q23.5 26 23.5 71t-23.5 70.5t-60.5 25.5q-40 0 -64.5 -26t-24.5 -69q0 -26 10 -48t30 -36t49 -14q37 0 60.5 26z" />
    <glyph glyph-name="seven.dnom" horiz-adv-x="360" 
d="M159 210q43 99 110 169h-234v51h295v-48q-72 -74 -113 -173.5t-44 -208.5h-62q5 111 48 210z" />
    <glyph glyph-name="eight.dnom" horiz-adv-x="360" 
d="M101 6.5q-34 15.5 -53 44t-19 66.5q0 41 24.5 71t60.5 39q-32 13 -52.5 39t-20.5 60q0 33 17 58.5t48.5 39.5t73.5 14t73.5 -14t48.5 -39.5t17 -58.5q0 -37 -21 -62.5t-51 -36.5q36 -10 60 -40t24 -70q0 -38 -19 -66.5t-53 -44t-79 -15.5t-79 15.5zM238.5 267
q21.5 19 21.5 54q0 32 -21.5 50.5t-58.5 18.5t-58.5 -18.5t-21.5 -50.5q0 -35 21.5 -54t58.5 -19t58.5 19zM248 60q24 21 24 59t-25 59.5t-67 21.5t-67 -21.5t-25 -59.5t24 -59t68 -21t68 21z" />
    <glyph glyph-name="nine.dnom" horiz-adv-x="360" 
d="M95 166.5q-29 17.5 -46 50t-17 76.5t18 77t49.5 50.5t70.5 17.5q73 0 115.5 -51.5t42.5 -167.5q0 -72 -19.5 -123t-55.5 -78t-85 -27q-53 0 -88.5 28.5t-43.5 74.5h56q5 -23 26 -38.5t50 -15.5q47 0 75 43.5t28 130.5q-14 -30 -43.5 -47.5t-68.5 -17.5q-35 0 -64 17.5z
M112.5 364q-23.5 -26 -23.5 -71t23.5 -70.5t60.5 -25.5q40 0 64.5 26t24.5 69q0 26 -10 48t-30 36t-49 14q-37 0 -60.5 -26z" />
    <glyph glyph-name="zero.numr" horiz-adv-x="360" 
d="M67.5 331q-39.5 55 -39.5 169q0 113 39.5 168t112.5 55t112.5 -55t39.5 -168q0 -114 -39.5 -169t-112.5 -55t-112.5 55zM250.5 366.5q23.5 40.5 23.5 133.5q0 92 -23.5 132.5t-70.5 40.5t-70 -40.5t-23 -132.5q0 -94 23 -134t70 -40t70.5 40.5z" />
    <glyph glyph-name="one.numr" horiz-adv-x="360" 
d="M317 335v-50h-249v50h99v243h-99v44q42 0 65.5 8t34.5 28t13 57h46v-380h90z" />
    <glyph glyph-name="two.numr" horiz-adv-x="360" 
d="M38 295q0 48 20 84.5t61 65.5l82 61q31 23 43.5 44.5t12.5 49.5q0 34 -21.5 54t-57.5 20q-41 0 -62.5 -24.5t-21.5 -62.5v-10h-58v12q0 39 17.5 69.5t50.5 47.5t77 17q41 0 71 -15t46.5 -43t16.5 -65q0 -38 -15.5 -68.5t-45.5 -52.5l-82 -59q-26 -20 -43.5 -40.5
t-20.5 -44.5h214v-50h-284v10z" />
    <glyph glyph-name="three.numr" horiz-adv-x="360" 
d="M67.5 312q-39.5 36 -40.5 102h58q1 -45 24 -67t70 -22q43 0 66 21.5t23 59.5t-24 58t-65 20h-30v50h27q37 0 58 18.5t21 52.5q0 33 -20 51t-57 18q-42 0 -65 -20.5t-25 -59.5h-58q1 38 19 67.5t51 45.5t80 16q41 0 71.5 -14t46.5 -40t16 -60q0 -35 -20.5 -60.5
t-55.5 -36.5q42 -8 65 -35t23 -71q0 -38 -18 -67.5t-51.5 -46t-77.5 -16.5q-72 0 -111.5 36z" />
    <glyph glyph-name="four.numr" horiz-adv-x="360" 
d="M216 387h-194v48l192 280h62v-279h61v-49h-61v-102h-60v102zM217 436v198l-134 -198h134z" />
    <glyph glyph-name="five.numr" horiz-adv-x="360" 
d="M264 547q29 -18 46 -51t17 -76t-17.5 -75.5t-50.5 -50.5t-77 -18q-62 0 -101 29.5t-45 80.5h58q6 -27 27.5 -44t61.5 -17q41 0 63.5 26t22.5 69q0 44 -22.5 70t-63.5 26q-25 0 -48 -10.5t-37 -27.5h-53l26 237h232v-50h-181l-16 -136q15 17 40 26.5t53 9.5q36 0 65 -18z
" />
    <glyph glyph-name="six.numr" horiz-adv-x="360" 
d="M269 547.5q29 -17.5 46 -50t17 -76.5t-18 -77t-49.5 -50.5t-70.5 -17.5q-73 0 -115.5 51.5t-42.5 167.5q0 72 19.5 123t55.5 78t85 27q53 0 88.5 -28.5t43.5 -74.5h-56q-5 23 -26 38.5t-50 15.5q-47 0 -75 -43.5t-28 -130.5q14 30 43.5 47.5t68.5 17.5q35 0 64 -17.5z
M251.5 350q23.5 26 23.5 71t-23.5 70.5t-60.5 25.5q-40 0 -64.5 -26t-24.5 -69q0 -26 10 -48t30 -36t49 -14q37 0 60.5 26z" />
    <glyph glyph-name="seven.numr" horiz-adv-x="360" 
d="M159 495q43 99 110 169h-234v51h295v-48q-72 -74 -113 -173.5t-44 -208.5h-62q5 111 48 210z" />
    <glyph glyph-name="eight.numr" horiz-adv-x="360" 
d="M101 291.5q-34 15.5 -53 44t-19 66.5q0 41 24.5 71t60.5 39q-32 13 -52.5 39t-20.5 60q0 33 17 58.5t48.5 39.5t73.5 14t73.5 -14t48.5 -39.5t17 -58.5q0 -37 -21 -62.5t-51 -36.5q36 -10 60 -40t24 -70q0 -38 -19 -66.5t-53 -44t-79 -15.5t-79 15.5zM238.5 552
q21.5 19 21.5 54q0 32 -21.5 50.5t-58.5 18.5t-58.5 -18.5t-21.5 -50.5q0 -35 21.5 -54t58.5 -19t58.5 19zM248 345q24 21 24 59t-25 59.5t-67 21.5t-67 -21.5t-25 -59.5t24 -59t68 -21t68 21z" />
    <glyph glyph-name="nine.numr" horiz-adv-x="360" 
d="M95 451.5q-29 17.5 -46 50t-17 76.5t18 77t49.5 50.5t70.5 17.5q73 0 115.5 -51.5t42.5 -167.5q0 -72 -19.5 -123t-55.5 -78t-85 -27q-53 0 -88.5 28.5t-43.5 74.5h56q5 -23 26 -38.5t50 -15.5q47 0 75 43.5t28 130.5q-14 -30 -43.5 -47.5t-68.5 -17.5q-35 0 -64 17.5z
M112.5 649q-23.5 -26 -23.5 -71t23.5 -70.5t60.5 -25.5q40 0 64.5 26t24.5 69q0 26 -10 48t-30 36t-49 14q-37 0 -60.5 -26z" />
    <glyph glyph-name="uni2080" unicode="&#x2080;" horiz-adv-x="360" 
d="M67.5 46q-39.5 55 -39.5 169q0 113 39.5 168t112.5 55t112.5 -55t39.5 -168q0 -114 -39.5 -169t-112.5 -55t-112.5 55zM250.5 81.5q23.5 40.5 23.5 133.5q0 92 -23.5 132.5t-70.5 40.5t-70 -40.5t-23 -132.5q0 -94 23 -134t70 -40t70.5 40.5z" />
    <glyph glyph-name="uni2081" unicode="&#x2081;" horiz-adv-x="360" 
d="M317 50v-50h-249v50h99v243h-99v44q42 0 65.5 8t34.5 28t13 57h46v-380h90z" />
    <glyph glyph-name="uni2082" unicode="&#x2082;" horiz-adv-x="360" 
d="M38 10q0 48 20 84.5t61 65.5l82 61q31 23 43.5 44.5t12.5 49.5q0 34 -21.5 54t-57.5 20q-41 0 -62.5 -24.5t-21.5 -62.5v-10h-58v12q0 39 17.5 69.5t50.5 47.5t77 17q41 0 71 -15t46.5 -43t16.5 -65q0 -38 -15.5 -68.5t-45.5 -52.5l-82 -59q-26 -20 -43.5 -40.5
t-20.5 -44.5h214v-50h-284v10z" />
    <glyph glyph-name="uni2083" unicode="&#x2083;" horiz-adv-x="360" 
d="M67.5 27q-39.5 36 -40.5 102h58q1 -45 24 -67t70 -22q43 0 66 21.5t23 59.5t-24 58t-65 20h-30v50h27q37 0 58 18.5t21 52.5q0 33 -20 51t-57 18q-42 0 -65 -20.5t-25 -59.5h-58q1 38 19 67.5t51 45.5t80 16q41 0 71.5 -14t46.5 -40t16 -60q0 -35 -20.5 -60.5
t-55.5 -36.5q42 -8 65 -35t23 -71q0 -38 -18 -67.5t-51.5 -46t-77.5 -16.5q-72 0 -111.5 36z" />
    <glyph glyph-name="uni2084" unicode="&#x2084;" horiz-adv-x="360" 
d="M216 102h-194v48l192 280h62v-279h61v-49h-61v-102h-60v102zM217 151v198l-134 -198h134z" />
    <glyph glyph-name="uni2085" unicode="&#x2085;" horiz-adv-x="360" 
d="M264 262q29 -18 46 -51t17 -76t-17.5 -75.5t-50.5 -50.5t-77 -18q-62 0 -101 29.5t-45 80.5h58q6 -27 27.5 -44t61.5 -17q41 0 63.5 26t22.5 69q0 44 -22.5 70t-63.5 26q-25 0 -48 -10.5t-37 -27.5h-53l26 237h232v-50h-181l-16 -136q15 17 40 26.5t53 9.5q36 0 65 -18z
" />
    <glyph glyph-name="uni2086" unicode="&#x2086;" horiz-adv-x="360" 
d="M269 262.5q29 -17.5 46 -50t17 -76.5t-18 -77t-49.5 -50.5t-70.5 -17.5q-73 0 -115.5 51.5t-42.5 167.5q0 72 19.5 123t55.5 78t85 27q53 0 88.5 -28.5t43.5 -74.5h-56q-5 23 -26 38.5t-50 15.5q-47 0 -75 -43.5t-28 -130.5q14 30 43.5 47.5t68.5 17.5q35 0 64 -17.5z
M251.5 65q23.5 26 23.5 71t-23.5 70.5t-60.5 25.5q-40 0 -64.5 -26t-24.5 -69q0 -26 10 -48t30 -36t49 -14q37 0 60.5 26z" />
    <glyph glyph-name="uni2087" unicode="&#x2087;" horiz-adv-x="360" 
d="M159 210q43 99 110 169h-234v51h295v-48q-72 -74 -113 -173.5t-44 -208.5h-62q5 111 48 210z" />
    <glyph glyph-name="uni2088" unicode="&#x2088;" horiz-adv-x="360" 
d="M101 6.5q-34 15.5 -53 44t-19 66.5q0 41 24.5 71t60.5 39q-32 13 -52.5 39t-20.5 60q0 33 17 58.5t48.5 39.5t73.5 14t73.5 -14t48.5 -39.5t17 -58.5q0 -37 -21 -62.5t-51 -36.5q36 -10 60 -40t24 -70q0 -38 -19 -66.5t-53 -44t-79 -15.5t-79 15.5zM238.5 267
q21.5 19 21.5 54q0 32 -21.5 50.5t-58.5 18.5t-58.5 -18.5t-21.5 -50.5q0 -35 21.5 -54t58.5 -19t58.5 19zM248 60q24 21 24 59t-25 59.5t-67 21.5t-67 -21.5t-25 -59.5t24 -59t68 -21t68 21z" />
    <glyph glyph-name="uni2089" unicode="&#x2089;" horiz-adv-x="360" 
d="M95 166.5q-29 17.5 -46 50t-17 76.5t18 77t49.5 50.5t70.5 17.5q73 0 115.5 -51.5t42.5 -167.5q0 -72 -19.5 -123t-55.5 -78t-85 -27q-53 0 -88.5 28.5t-43.5 74.5h56q5 -23 26 -38.5t50 -15.5q47 0 75 43.5t28 130.5q-14 -30 -43.5 -47.5t-68.5 -17.5q-35 0 -64 17.5z
M112.5 364q-23.5 -26 -23.5 -71t23.5 -70.5t60.5 -25.5q40 0 64.5 26t24.5 69q0 26 -10 48t-30 36t-49 14q-37 0 -60.5 -26z" />
    <glyph glyph-name="uni2070" unicode="&#x2070;" horiz-adv-x="360" 
d="M67.5 331q-39.5 55 -39.5 169q0 113 39.5 168t112.5 55t112.5 -55t39.5 -168q0 -114 -39.5 -169t-112.5 -55t-112.5 55zM250.5 366.5q23.5 40.5 23.5 133.5q0 92 -23.5 132.5t-70.5 40.5t-70 -40.5t-23 -132.5q0 -94 23 -134t70 -40t70.5 40.5z" />
    <glyph glyph-name="uni00B9" unicode="&#xb9;" horiz-adv-x="360" 
d="M317 335v-50h-249v50h99v243h-99v44q42 0 65.5 8t34.5 28t13 57h46v-380h90z" />
    <glyph glyph-name="uni00B2" unicode="&#xb2;" horiz-adv-x="360" 
d="M38 295q0 48 20 84.5t61 65.5l82 61q31 23 43.5 44.5t12.5 49.5q0 34 -21.5 54t-57.5 20q-41 0 -62.5 -24.5t-21.5 -62.5v-10h-58v12q0 39 17.5 69.5t50.5 47.5t77 17q41 0 71 -15t46.5 -43t16.5 -65q0 -38 -15.5 -68.5t-45.5 -52.5l-82 -59q-26 -20 -43.5 -40.5
t-20.5 -44.5h214v-50h-284v10z" />
    <glyph glyph-name="uni00B3" unicode="&#xb3;" horiz-adv-x="360" 
d="M67.5 312q-39.5 36 -40.5 102h58q1 -45 24 -67t70 -22q43 0 66 21.5t23 59.5t-24 58t-65 20h-30v50h27q37 0 58 18.5t21 52.5q0 33 -20 51t-57 18q-42 0 -65 -20.5t-25 -59.5h-58q1 38 19 67.5t51 45.5t80 16q41 0 71.5 -14t46.5 -40t16 -60q0 -35 -20.5 -60.5
t-55.5 -36.5q42 -8 65 -35t23 -71q0 -38 -18 -67.5t-51.5 -46t-77.5 -16.5q-72 0 -111.5 36z" />
    <glyph glyph-name="uni2074" unicode="&#x2074;" horiz-adv-x="360" 
d="M216 387h-194v48l192 280h62v-279h61v-49h-61v-102h-60v102zM217 436v198l-134 -198h134z" />
    <glyph glyph-name="uni2075" unicode="&#x2075;" horiz-adv-x="360" 
d="M264 547q29 -18 46 -51t17 -76t-17.5 -75.5t-50.5 -50.5t-77 -18q-62 0 -101 29.5t-45 80.5h58q6 -27 27.5 -44t61.5 -17q41 0 63.5 26t22.5 69q0 44 -22.5 70t-63.5 26q-25 0 -48 -10.5t-37 -27.5h-53l26 237h232v-50h-181l-16 -136q15 17 40 26.5t53 9.5q36 0 65 -18z
" />
    <glyph glyph-name="uni2076" unicode="&#x2076;" horiz-adv-x="360" 
d="M269 547.5q29 -17.5 46 -50t17 -76.5t-18 -77t-49.5 -50.5t-70.5 -17.5q-73 0 -115.5 51.5t-42.5 167.5q0 72 19.5 123t55.5 78t85 27q53 0 88.5 -28.5t43.5 -74.5h-56q-5 23 -26 38.5t-50 15.5q-47 0 -75 -43.5t-28 -130.5q14 30 43.5 47.5t68.5 17.5q35 0 64 -17.5z
M251.5 350q23.5 26 23.5 71t-23.5 70.5t-60.5 25.5q-40 0 -64.5 -26t-24.5 -69q0 -26 10 -48t30 -36t49 -14q37 0 60.5 26z" />
    <glyph glyph-name="uni2077" unicode="&#x2077;" horiz-adv-x="360" 
d="M159 495q43 99 110 169h-234v51h295v-48q-72 -74 -113 -173.5t-44 -208.5h-62q5 111 48 210z" />
    <glyph glyph-name="uni2078" unicode="&#x2078;" horiz-adv-x="360" 
d="M101 291.5q-34 15.5 -53 44t-19 66.5q0 41 24.5 71t60.5 39q-32 13 -52.5 39t-20.5 60q0 33 17 58.5t48.5 39.5t73.5 14t73.5 -14t48.5 -39.5t17 -58.5q0 -37 -21 -62.5t-51 -36.5q36 -10 60 -40t24 -70q0 -38 -19 -66.5t-53 -44t-79 -15.5t-79 15.5zM238.5 552
q21.5 19 21.5 54q0 32 -21.5 50.5t-58.5 18.5t-58.5 -18.5t-21.5 -50.5q0 -35 21.5 -54t58.5 -19t58.5 19zM248 345q24 21 24 59t-25 59.5t-67 21.5t-67 -21.5t-25 -59.5t24 -59t68 -21t68 21z" />
    <glyph glyph-name="uni2079" unicode="&#x2079;" horiz-adv-x="360" 
d="M95 451.5q-29 17.5 -46 50t-17 76.5t18 77t49.5 50.5t70.5 17.5q73 0 115.5 -51.5t42.5 -167.5q0 -72 -19.5 -123t-55.5 -78t-85 -27q-53 0 -88.5 28.5t-43.5 74.5h56q5 -23 26 -38.5t50 -15.5q47 0 75 43.5t28 130.5q-14 -30 -43.5 -47.5t-68.5 -17.5q-35 0 -64 17.5z
M112.5 649q-23.5 -26 -23.5 -71t23.5 -70.5t60.5 -25.5q40 0 64.5 26t24.5 69q0 26 -10 48t-30 36t-49 14q-37 0 -60.5 -26z" />
    <glyph glyph-name="periodcentered" unicode="&#xb7;" horiz-adv-x="241" 
d="M76 375h90v-92h-90v92z" />
    <glyph glyph-name="bullet" unicode="&#x2022;" horiz-adv-x="402" 
d="M145.5 239q-25.5 15 -40.5 40.5t-15 55.5t15 55t40.5 40t55.5 15t55.5 -15t40.5 -40t15 -55t-15 -55.5t-40.5 -40.5t-55.5 -15t-55.5 15z" />
    <glyph glyph-name="ellipsis" unicode="&#x2026;" horiz-adv-x="744" 
d="M76 92h90v-92h-90v92zM327 92h90v-92h-90v92zM579 92h90v-92h-90v92z" />
    <glyph glyph-name="exclamdown" unicode="&#xa1;" horiz-adv-x="250" 
d="M170 548v-92h-90v92h90zM154 367l9 -340v-193h-76v193l9 340h58z" />
    <glyph glyph-name="questiondown" unicode="&#xbf;" horiz-adv-x="507" 
d="M299 456h-91v92h91v-92zM288 333q0 -47 -16 -84.5t-51 -71.5l-56 -53q-26 -24 -40.5 -54t-14.5 -69q0 -36 16.5 -63.5t47 -42.5t72.5 -15q47 0 81 19t52 54.5t18 84.5v14h71v-12q0 -70 -28 -119.5t-78 -75t-116 -25.5q-59 0 -106 21t-74 61.5t-27 98.5q0 96 76 166l55 51
q27 25 38 53.5t11 70.5v25h69v-34z" />
    <glyph glyph-name="backslash.aalt" horiz-adv-x="405" 
d="M-25 733h61l302 -753h-61zM66 733h61l302 -753h-61z" />
    <glyph glyph-name="bullet.aalt" horiz-adv-x="455" 
d="M118 483h70v-252h-70v252zM243 483h71v-252h-71v252z" />
    <glyph glyph-name="quotedbl.aalt" horiz-adv-x="393" 
d="M93 713h86v-319h-86v319zM214 713h86v-319h-86v319z" />
    <glyph glyph-name="quotesingle.aalt" horiz-adv-x="271" 
d="M93 713h86v-319h-86v319z" />
    <glyph glyph-name="slash.ss02" horiz-adv-x="405" 
d="M-25 -20l302 753h61l-302 -753h-61zM66 -20l302 753h61l-302 -753h-61z" />
    <glyph glyph-name="uni208D" unicode="&#x208d;" horiz-adv-x="197" 
d="M25 214q0 82 21.5 155.5t68.5 132.5h57q-46 -66 -67.5 -137t-21.5 -151t21.5 -150.5t67.5 -136.5h-57q-90 112 -90 287z" />
    <glyph glyph-name="uni208E" unicode="&#x208e;" horiz-adv-x="197" 
d="M21 -73q47 66 68.5 136t21.5 151t-21.5 151.5t-68.5 136.5h58q46 -59 67.5 -132.5t21.5 -155.5t-21 -155t-68 -132h-58z" />
    <glyph glyph-name="uni207D" unicode="&#x207d;" horiz-adv-x="197" 
d="M28 500q0 82 21.5 155.5t68.5 132.5h57q-46 -66 -67.5 -137t-21.5 -151t21.5 -150.5t67.5 -136.5h-57q-90 112 -90 287z" />
    <glyph glyph-name="uni207E" unicode="&#x207e;" horiz-adv-x="197" 
d="M25 213q47 66 68.5 136t21.5 151t-21.5 151.5t-68.5 136.5h58q46 -59 67.5 -132.5t21.5 -155.5t-21 -155t-68 -132h-58z" />
    <glyph glyph-name="emdash" unicode="&#x2014;" horiz-adv-x="919" 
d="M919 256h-919v57h919v-57z" />
    <glyph glyph-name="endash" unicode="&#x2013;" horiz-adv-x="440" 
d="M430 256h-420v57h420v-57z" />
    <glyph glyph-name="uni00AD" unicode="&#xad;" horiz-adv-x="361" 
d="M301 256h-241v57h241v-57z" />
    <glyph glyph-name="guillemotleft" unicode="&#xab;" horiz-adv-x="466" 
d="M49 254v60l167 148v-80l-117 -98l117 -98v-79zM250 254v60l167 148v-80l-117 -98l117 -98v-79z" />
    <glyph glyph-name="guillemotright" unicode="&#xbb;" horiz-adv-x="466" 
d="M49 186l117 98l-117 98v80l167 -148v-60l-167 -147v79zM250 186l117 98l-117 98v80l167 -148v-60l-167 -147v79z" />
    <glyph glyph-name="guilsinglleft" unicode="&#x2039;" horiz-adv-x="265" 
d="M49 254v60l167 148v-80l-117 -98l117 -98v-79z" />
    <glyph glyph-name="guilsinglright" unicode="&#x203a;" horiz-adv-x="265" 
d="M49 186l117 98l-117 98v80l167 -148v-60l-167 -147v79z" />
    <glyph glyph-name="quotedblbase" unicode="&#x201e;" horiz-adv-x="426" 
d="M86 -90q19 12 30 31.5t11 41.5v17h-41v92h91v-94q0 -87 -60 -122zM248 -90q19 12 30 31.5t11 41.5v17h-41v92h91v-94q0 -87 -60 -122z" />
    <glyph glyph-name="quotedblleft" unicode="&#x201c;" horiz-adv-x="426" 
d="M177 735q-18 -13 -29 -32.5t-11 -41.5v-16h40v-93h-91v95q0 45 15.5 74.5t45.5 47.5zM340 735q-19 -13 -30 -32.5t-11 -41.5v-16h41v-93h-91v95q0 45 15 74.5t45 47.5z" />
    <glyph glyph-name="quotedblright" unicode="&#x201d;" horiz-adv-x="426" 
d="M86 584q19 12 30 31.5t11 41.5v17h-41v92h91v-94q0 -87 -60 -122zM248 584q19 12 30 31.5t11 41.5v17h-41v92h91v-94q0 -87 -60 -122z" />
    <glyph glyph-name="quoteleft" unicode="&#x2018;" horiz-adv-x="263" 
d="M177 754q-18 -13 -29 -32.5t-11 -41.5v-16h40v-93h-91v95q0 45 15.5 74.5t45.5 47.5z" />
    <glyph glyph-name="quoteright" unicode="&#x2019;" horiz-adv-x="263" 
d="M86 583q19 13 30 32.5t11 41.5v17h-41v92h91v-95q0 -45 -15.5 -74.5t-44.5 -47.5z" />
    <glyph glyph-name="quotesinglbase" unicode="&#x201a;" horiz-adv-x="263" 
d="M86 -90q19 12 30 31.5t11 41.5v17h-41v92h91v-94q0 -87 -60 -122z" />
    <glyph glyph-name="quotedblbase.aalt" horiz-adv-x="329" 
d="M179 -83q19 12 29.5 30.5t10.5 39.5v13h-36v256h86v-254q0 -43 -16.5 -71t-47.5 -47zM60 -83q19 12 29.5 30.5t10.5 39.5v13h-36v256h86v-254q0 -43 -16.5 -71t-47.5 -47z" />
    <glyph glyph-name="quotedblleft.aalt" horiz-adv-x="329" 
d="M147 736q-18 -13 -29 -31t-11 -39v-13h37v-255h-86v254q0 43 16.5 71t47.5 47zM272 736q-18 -13 -29 -31t-11 -39v-13h36v-255h-86v254q0 44 16.5 71.5t48.5 46.5z" />
    <glyph glyph-name="quotedblright.aalt" horiz-adv-x="329" 
d="M179 374q19 12 29.5 30.5t10.5 39.5v13h-36v256h86v-254q0 -43 -16.5 -71t-47.5 -47zM60 374q19 12 29.5 30.5t10.5 39.5v13h-36v256h86v-254q0 -43 -16.5 -71t-47.5 -47z" />
    <glyph glyph-name="quoteleft.aalt" horiz-adv-x="208" 
d="M148 736q-18 -13 -29 -31t-11 -39v-12h36v-256h-85v254q0 44 16 71.5t48 46.5z" />
    <glyph glyph-name="quoteright.aalt" horiz-adv-x="208" 
d="M58 374q19 12 29.5 30.5t10.5 39.5v13h-36v256h86v-254q0 -43 -16.5 -71t-47.5 -47z" />
    <glyph glyph-name="quotesinglbase.aalt" horiz-adv-x="208" 
d="M58 -83q19 12 29.5 30.5t10.5 39.5v13h-36v256h86v-254q0 -43 -16.5 -71t-47.5 -47z" />
    <glyph glyph-name="uni00A0" unicode="&#xa0;" horiz-adv-x="267" 
 />
    <glyph glyph-name="cent" unicode="&#xa2;" 
d="M391 78.5q42 33.5 54 102.5h72q-13 -90 -67.5 -138.5t-134.5 -56.5v-114h-54v114q-68 6 -119 41t-79 97.5t-28 149.5q0 86 29 148.5t80 98t117 41.5v117h54v-117q81 -7 135.5 -53.5t66.5 -129.5h-72q-12 61 -54.5 92.5t-102.5 31.5q-53 0 -94 -26t-64.5 -77.5
t-23.5 -125.5t23 -125.5t63.5 -77.5t92.5 -26q64 0 106 33.5z" />
    <glyph glyph-name="currency" unicode="&#xa4;" 
d="M508 101l-55 50q-32 -27 -71 -41.5t-81 -14.5q-43 0 -82 14.5t-71 41.5l-49 -49l-38 39l49 50q-24 32 -37 71t-13 81q0 44 14 84t40 73l-55 55l38 39l57 -55q30 25 67.5 38.5t79.5 13.5q41 0 78.5 -13.5t67.5 -38.5l58 55l38 -39l-57 -55q26 -33 40.5 -73t14.5 -84
q0 -42 -13 -81t-37 -71l54 -51zM390 179.5q40 24.5 63 67.5t23 96t-23 96t-63 67.5t-90 24.5q-49 0 -89.5 -24.5t-63.5 -67.5t-23 -96t23 -96t63.5 -67.5t89.5 -24.5q50 0 90 24.5z" />
    <glyph glyph-name="Euro" unicode="&#x20ac;" 
d="M574 171q-5 -54 -33.5 -96.5t-75 -66t-102.5 -23.5q-103 0 -168 67t-81 198h-88v55h84q-1 9 -1 29v50q0 19 1 28h-84v55h88q16 129 79.5 195t165.5 66q55 0 102 -23.5t76 -65t33 -92.5h-72q-2 29 -20 56.5t-48.5 45t-70.5 17.5q-73 0 -116 -48.5t-56 -150.5h264l-19 -55
h-248q-1 -9 -1 -27v-52q0 -19 1 -28h241l-19 -55h-218q24 -203 175 -203q38 0 68.5 17.5t49 46t22.5 60.5h71z" />
    <glyph glyph-name="florin" unicode="&#x192;" 
d="M556 715l-10 -57h-44q-49 0 -76.5 -23.5t-37.5 -79.5l-25 -140h110v-55h-119l-72 -406q-14 -81 -59.5 -120t-130.5 -39q-28 0 -48 3l10 57h44q49 0 76.5 23.5t37.5 79.5l71 402h-110v55h120l25 144q14 82 59.5 121t130.5 39q31 0 48 -4z" />
    <glyph glyph-name="uni20BA" unicode="&#x20ba;" 
d="M538 236q-2 -72 -32.5 -129t-90 -89.5t-143.5 -32.5q-64 0 -112 13v337l-90 -48v60l90 48v105l-90 -47v59l90 48v153h71v-115l215 115v-60l-215 -115v-105l215 115v-60l-215 -115v-323q21 -3 43 -3q95 1 143.5 51.5t50.5 137.5h70z" />
    <glyph glyph-name="uni20BD" unicode="&#x20bd;" 
d="M93 145h-67v54h67v106h-67v55h67v353h237q124 0 185.5 -52t61.5 -153q0 -103 -59 -153t-188 -50h-166v-106h237v-54h-237v-145h-71v145zM329 360q90 0 133.5 35.5t43.5 110.5t-43.5 111t-133.5 36h-165v-293h165z" />
    <glyph glyph-name="uni20B9" unicode="&#x20b9;" 
d="M544 658h-165q61 -43 65 -122h100v-54h-104q-9 -47 -38 -81t-73.5 -52.5t-101.5 -18.5l-67 -1l306 -329h-86l-309 329v55h145q63 0 101 26t50 72h-296v54h301q-3 59 -42 90.5t-114 31.5h-145v55h473v-55z" />
    <glyph glyph-name="cent.aalt" 
d="M423 86.5q35 33.5 45 94.5h72q-13 -91 -68.5 -140t-137.5 -55v-86h-54v86q-67 6 -117 41t-77.5 98t-27.5 149q0 85 28.5 147.5t78.5 97.5t115 42v95h54v-94q54 -4 97.5 -25t72 -61t36.5 -97h-72q-11 55 -46.5 86t-87.5 37v-456q54 7 89 40.5zM148.5 158
q19.5 -49 53.5 -76.5t79 -34.5v454q-45 -7 -79.5 -35t-53.5 -76.5t-19 -115.5t19.5 -116z" />
    <glyph glyph-name="dollar.aalt" 
d="M514.5 78.5q-24.5 -42.5 -72 -66.5t-113.5 -27v-95h-54v96q-104 8 -157 64.5t-53 155.5h72q0 -144 140 -159v283l-35 11q-65 20 -103.5 47t-56.5 64.5t-18 90.5q0 49 24 90t72 66.5t115 28.5v99h54v-101q91 -8 141.5 -57.5t53.5 -133.5h-72q-3 56 -33.5 90t-92.5 41v-278
l48 -15q83 -27 124 -72.5t41 -123.5q0 -56 -24.5 -98.5zM277 403v265q-72 -4 -106.5 -38.5t-34.5 -85.5q0 -39 12.5 -64t39.5 -41.5t75 -31.5zM432 84.5q35 35.5 35 91.5q0 53 -31.5 83.5t-87.5 48.5l-22 7v-270q71 4 106 39.5z" />
    <glyph glyph-name="sterling" unicode="&#xa3;" 
d="M565 46q-31 -30 -62.5 -45.5t-70.5 -15.5q-33 0 -59 6t-60 17q-29 10 -45.5 14t-36.5 4q-36 0 -68.5 -11t-57.5 -30l-39 56q43 30 66.5 60t32.5 60.5t9 67.5q0 40 -13 79h-116v55h94q-18 38 -27 59.5t-16 50t-7 60.5q0 57 27.5 101.5t77.5 69t116 24.5q72 0 123.5 -29
t78.5 -78.5t27 -111.5h-71q0 44 -18 80t-53 57.5t-86 21.5q-45 0 -79.5 -17t-53 -47t-18.5 -70q0 -30 9.5 -60t30.5 -80l13 -31h184v-55h-166q11 -38 11 -74q0 -109 -86 -173q26 12 46.5 18t40.5 6q27 0 48.5 -5t48.5 -15q26 -9 46.5 -14t44.5 -5q28 0 54.5 14t46.5 36z" />
    <glyph glyph-name="yen" unicode="&#xa5;" 
d="M365 353h130v-54h-159v-106h159v-54h-159v-139h-72v139h-159v54h159v106h-159v54h130l-191 360h80l179 -355l176 355h76z" />
    <glyph glyph-name="Omega" unicode="&#x2126;" horiz-adv-x="760" 
d="M45 56h180q-84 60 -128 147t-44 190q0 99 40 175t114 118t174 42t173.5 -42t112 -117.5t38.5 -175.5q0 -106 -43.5 -192.5t-126.5 -144.5h180v-56h-258v58q89 64 132 147.5t43 187.5q0 83 -30.5 145t-87 95.5t-133.5 33.5q-78 0 -136 -33.5t-89 -95.5t-31 -145
q0 -104 44 -187.5t134 -146.5v-59h-258v56z" />
    <glyph glyph-name="approxequal" unicode="&#x2248;" 
d="M112.5 390q14.5 27 40 43t59.5 16q27 0 49 -9t50 -26q20 -13 35 -19.5t30 -6.5q51 0 59 68h58q-3 -55 -33 -87.5t-81 -32.5q-27 0 -50.5 9t-50.5 26q-24 13 -37 19t-28 6q-51 0 -59 -66h-58q2 33 16.5 60zM112.5 190q14.5 27 40 43t59.5 16q27 0 49 -9t50 -26
q20 -13 35 -19.5t30 -6.5q51 0 59 68h58q-3 -55 -33 -87.5t-81 -32.5q-27 0 -50.5 9t-50.5 26q-24 13 -37 19t-28 6q-51 0 -59 -66h-58q2 33 16.5 60z" />
    <glyph glyph-name="uni2219" unicode="&#x2219;" 
d="M254 330h90v-92h-90v92z" />
    <glyph glyph-name="divide" unicode="&#xf7;" 
d="M521 267h-459v57h459v-57zM245 532h90v-92h-90v92zM243 133h90v-92h-90v92z" />
    <glyph glyph-name="uni2215" unicode="&#x2215;" 
d="M494 739h61l-422 -765h-62z" />
    <glyph glyph-name="uni208C" unicode="&#x208c;" horiz-adv-x="360" 
d="M27 275h303v-44h-303v44zM27 135h303v-44h-303v44z" />
    <glyph glyph-name="uni207C" unicode="&#x207c;" horiz-adv-x="360" 
d="M41 558h303v-44h-303v44zM41 418h303v-44h-303v44z" />
    <glyph glyph-name="greaterequal" unicode="&#x2265;" 
d="M62 176l383 149l-383 150v61l458 -183v-56l-458 -183v62zM521 11h-459v57h459v-57z" />
    <glyph glyph-name="Delta" unicode="&#x2206;" 
d="M29 0l243 713h56l243 -713h-542zM300 633l-192 -577h384z" />
    <glyph glyph-name="infinity" unicode="&#x221e;" horiz-adv-x="684" 
d="M564 455q33 -21 50.5 -56.5t17.5 -79.5t-17.5 -79.5t-50.5 -56t-79 -20.5q-39 0 -78.5 23.5t-64.5 69.5q-26 -46 -65 -69.5t-79 -23.5q-45 0 -78 20.5t-51 56t-18 79.5t18 79.5t51 56.5t78 21q40 0 79 -23.5t65 -69.5q25 46 64.5 69.5t78.5 23.5q46 0 79 -21z
M262.5 240.5q29.5 22.5 54.5 80.5q-25 56 -54 77t-63 21q-41 0 -64.5 -28.5t-23.5 -71.5q0 -28 10.5 -51t30.5 -36.5t47 -13.5q33 0 62.5 22.5zM530.5 231.5q19.5 13.5 30 36.5t10.5 51q0 44 -23 72t-64 28q-34 0 -63.5 -21t-52.5 -77q23 -58 53 -80.5t63 -22.5
q27 0 46.5 13.5z" />
    <glyph glyph-name="integral" unicode="&#x222b;" 
d="M474 664h-44q-49 0 -72.5 -24.5t-23.5 -84.5v-601q0 -79 -42 -119t-119 -40q-29 0 -48 3v57h44q49 0 72.5 23.5t23.5 79.5v601q0 83 42 124t119 41q28 0 48 -3v-57z" />
    <glyph glyph-name="lessequal" unicode="&#x2264;" 
d="M82 297v56l458 183v-61l-383 -150l383 -149v-62zM540 68v-57h-459v57h459z" />
    <glyph glyph-name="logicalnot" unicode="&#xac;" 
d="M480 360h-420v57h479v-268h-59v211z" />
    <glyph glyph-name="mu" unicode="&#xb5;" horiz-adv-x="575" 
d="M69 548h70v-330q0 -91 35 -132t104 -41q42 0 77.5 19.5t58 63.5t22.5 114v306h70v-548h-68v90q-26 -51 -69 -78t-101 -27q-80 0 -129 47v-217h-70v733z" />
    <glyph glyph-name="minus" unicode="&#x2212;" 
d="M515 267h-459v57h459v-57z" />
    <glyph glyph-name="uni208B" unicode="&#x208b;" horiz-adv-x="360" 
d="M27 205h303v-44h-303v44z" />
    <glyph glyph-name="uni207B" unicode="&#x207b;" horiz-adv-x="360" 
d="M27 492h303v-44h-303v44z" />
    <glyph glyph-name="multiply" unicode="&#xd7;" 
d="M496 49l-196 196l-196 -196l-39 39l196 196l-196 196l40 39l195 -196l196 196l39 -39l-196 -196l196 -196z" />
    <glyph glyph-name="notequal" unicode="&#x2260;" 
d="M381 367l-92 -143h226v-57h-263l-99 -153l-46 26l82 127h-133v57h170l93 143h-263v57h299l79 122l46 -26l-62 -96h97v-57h-134z" />
    <glyph glyph-name="partialdiff" unicode="&#x2202;" 
d="M176 15q-55 30 -86.5 87.5t-31.5 136.5q0 85 30.5 146t82.5 92.5t117 31.5q54 0 99 -21t75 -68q-33 250 -260 250h-46v52q35 6 64 6q84 0 155.5 -39.5t118 -136.5t46.5 -258q0 -105 -30.5 -174t-84 -102t-125.5 -33q-69 0 -124 30zM386.5 68.5q38.5 24.5 60.5 72
t22 113.5q0 60 -24.5 104.5t-65 67.5t-86.5 23q-48 0 -85 -24t-58.5 -71t-21.5 -114q0 -61 22 -105.5t61 -67.5t87 -23q50 0 88.5 24.5z" />
    <glyph glyph-name="perthousand" unicode="&#x2030;" horiz-adv-x="1292" 
d="M304 692q38 -22 58.5 -64.5t20.5 -101.5t-20.5 -101.5t-58.5 -64t-88 -21.5t-88 21.5t-58.5 64t-20.5 101.5t20.5 101.5t58.5 64.5t88 22t88 -22zM272 0h-67l422 713h67zM138 628q-29 -35 -29 -102t29 -101.5t78 -34.5t78 34.5t29 101.5t-29 102t-78 35t-78 -35zM764 338
q38 -22 58.5 -64.5t20.5 -101.5t-20.5 -101.5t-58.5 -64t-88 -21.5t-88 21.5t-58.5 64t-20.5 101.5t20.5 101.5t58.5 64.5t88 22t88 -22zM1164.5 338q37.5 -22 58 -64.5t20.5 -101.5q0 -60 -20.5 -102t-58 -63.5t-88.5 -21.5q-50 0 -87.5 21.5t-58 64t-20.5 101.5
t20.5 101.5t58 64.5t87.5 22q51 0 88.5 -22zM598 274q-29 -35 -29 -102t29 -101.5t78 -34.5t78 34.5t29 101.5t-29 102t-78 35t-78 -35zM998.5 274q-28.5 -35 -28.5 -102q0 -68 28.5 -102t77.5 -34t78 34.5t29 101.5t-29 102t-78 35t-77.5 -35z" />
    <glyph glyph-name="uni208A" unicode="&#x208a;" horiz-adv-x="360" 
d="M330 161h-129v-125h-44v125h-130v44h130v124h44v-124h129v-44z" />
    <glyph glyph-name="plusminus" unicode="&#xb1;" 
d="M261 297h-199v56h199v176h57v-176h203v-56h-203v-176h-57v176zM521 58v-57h-459v57h459z" />
    <glyph glyph-name="uni207A" unicode="&#x207a;" horiz-adv-x="360" 
d="M330 481h-129v-125h-44v125h-130v44h130v124h44v-124h129v-44z" />
    <glyph glyph-name="product" unicode="&#x220f;" 
d="M56 758h488v-958h-67v902h-354v-902h-67v958z" />
    <glyph glyph-name="radical" unicode="&#x221a;" 
d="M122 256h-87v56h130l132 -411l237 851h61l-269 -945h-56z" />
    <glyph glyph-name="equal.ss02" 
d="M529 294h-459v57h459v-57zM529 169h-459v57h459v-57z" />
    <glyph glyph-name="summation" unicode="&#x2211;" 
d="M56 -142l307 421l-307 421v58h488v-56h-416l309 -423l-309 -423h416v-56h-488v58z" />
    <glyph glyph-name="lozenge" unicode="&#x25ca;" 
d="M49 279l223 479h56l223 -479l-223 -479h-56zM490 279l-190 410l-190 -410l190 -410z" />
    <glyph glyph-name="uniF8FF" unicode="&#xf8ff;" horiz-adv-x="1689" 
d="M202 474.5q32 54.5 86.5 86.5t118.5 32h115v-86h-114q-41 0 -76 -20.5t-55.5 -55t-20.5 -75.5t20.5 -76t55.5 -55t76 -20h136q10 0 16.5 7t6.5 17v354q0 36 18 66.5t49 48.5t67 18q35 0 66 -17.5t49 -47.5l164 -284v216q0 36 18 66.5t49 48.5t67 18q35 0 66 -17.5
t49 -47.5l165 -284v346h85v-581q0 -7 -5 -12.5t-13 -5.5q-11 0 -16 9l-281 484q-7 12 -19 19t-26 7q-22 0 -37.5 -15.5t-15.5 -37.5v-448q0 -7 -5 -12.5t-13 -5.5q-11 0 -16 9l-281 484q-7 12 -19 19t-26 7q-22 0 -37.5 -15.5t-15.5 -37.5v-439q0 -8 -7 -15t-16 -7h-223
q-64 0 -118.5 32t-86.5 86.5t-32 118.5t32 118.5zM1599 713v-583q0 -36 -18 -67t-48.5 -49t-66.5 -18q-35 0 -66 17.5t-49 47.5l-165 284v-215q0 -36 -18 -67t-48.5 -49t-66.5 -18q-35 0 -66.5 17.5t-48.5 47.5l-165 284v-204q0 -68 -37.5 -105t-102.5 -37h-226
q-97 0 -179 48t-130 130t-48 179t48 179t130 130t179 48h115v-86h-115q-74 0 -136.5 -36.5t-99 -98.5t-36.5 -136t36.5 -136t99 -98.5t136.5 -36.5h223q23 0 40 16.5t17 39.5v439q0 8 5.5 13.5t13.5 5.5q4 0 8.5 -2.5t6.5 -6.5l281 -485q8 -12 20 -19t26 -7q22 0 37.5 15.5
t15.5 37.5v448q0 8 5.5 13.5t12.5 5.5q4 0 9 -2.5t7 -6.5l281 -485q7 -12 19 -19t26 -7q22 0 37.5 15.5t15.5 37.5v581h85z" />
    <glyph glyph-name="brokenbar" unicode="&#xa6;" horiz-adv-x="252" 
d="M86 778h70v-359h-70v359zM156 -220h-70v359h70v-359z" />
    <glyph glyph-name="paragraph" unicode="&#xb6;" horiz-adv-x="538" 
d="M463 -200h-64v856h-116v-856h-63v525q-58 0 -102 25t-68 69t-24 100t24 100t68.5 69t103.5 25h241v-913z" />
    <glyph glyph-name="copyright" unicode="&#xa9;" horiz-adv-x="842" 
d="M228.5 32q-85.5 48 -134 132.5t-48.5 190.5t48.5 190.5t134 132.5t192.5 48t192.5 -48t134 -132.5t48.5 -190.5t-48.5 -190.5t-134 -132.5t-192.5 -48t-192.5 48zM590.5 67.5q75.5 42.5 118 118t42.5 169.5t-42.5 169.5t-118 118t-169.5 42.5t-169.5 -42.5t-118 -118
t-42.5 -169.5t42.5 -169.5t118 -118t169.5 -42.5t169.5 42.5zM319 158q-45 26 -70.5 76.5t-25.5 120.5t26 120t71 76.5t103 26.5q72 0 116.5 -36t55.5 -98h-60q-11 38 -38 60.5t-74 22.5q-41 0 -72 -19.5t-49 -58.5t-18 -94t17.5 -94t49 -58.5t71.5 -19.5q51 0 80 27t38 74
h60q-5 -44 -27.5 -78.5t-60.5 -54t-89 -19.5q-59 0 -104 26z" />
    <glyph glyph-name="registered" unicode="&#xae;" horiz-adv-x="842" 
d="M228.5 32q-85.5 48 -134 132.5t-48.5 190.5t48.5 190.5t134 132.5t192.5 48t192.5 -48t134 -132.5t48.5 -190.5t-48.5 -190.5t-134 -132.5t-192.5 -48t-192.5 48zM590.5 67.5q75.5 42.5 118 118t42.5 169.5t-42.5 169.5t-118 118t-169.5 42.5t-169.5 -42.5t-118 -118
t-42.5 -169.5t42.5 -169.5t118 -118t169.5 -42.5t169.5 42.5zM265 569h187q66 0 102 -32t36 -92q0 -47 -24.5 -78t-69.5 -41l113 -185h-66l-109 180h-110v-180h-59v428zM444 370q42 0 64 19t22 56t-22 56.5t-64 19.5h-120v-151h120z" />
    <glyph glyph-name="uni2117" unicode="&#x2117;" horiz-adv-x="842" 
d="M228.5 32q-85.5 48 -134 132.5t-48.5 190.5t48.5 190.5t134 132.5t192.5 48t192.5 -48t134 -132.5t48.5 -190.5t-48.5 -190.5t-134 -132.5t-192.5 -48t-192.5 48zM590.5 67.5q75.5 42.5 118 118t42.5 169.5t-42.5 169.5t-118 118t-169.5 42.5t-169.5 -42.5t-118 -118
t-42.5 -169.5t42.5 -169.5t118 -118t169.5 -42.5t169.5 42.5zM460 569q75 0 112.5 -33t37.5 -96t-37.5 -96t-112.5 -33h-106v-170h-60v428h166zM354 360h103q48 0 71.5 19.5t23.5 60.5t-23.5 60.5t-71.5 19.5h-103v-160z" />
    <glyph glyph-name="section" unicode="&#xa7;" horiz-adv-x="545" 
d="M478 118q-17 -29 -49 -46q26 -42 26 -100q0 -52 -23 -91t-63.5 -60t-91.5 -21q-86 0 -136 49t-50 144h71q1 -67 30 -100t86 -33q50 0 78 29t28 81q0 46 -22.5 78.5t-69.5 55.5l-94 47q-76 39 -112 85.5t-36 107.5q0 37 17 66t49 46q-26 42 -26 101q0 52 23 90.5
t64.5 59.5t94.5 21q55 0 95.5 -21t63.5 -64.5t23 -107.5h-70q-2 67 -30.5 100t-82.5 33q-52 0 -81 -28.5t-29 -81.5q0 -46 22.5 -78.5t69.5 -55.5l94 -47q76 -39 112 -85.5t36 -107.5q0 -37 -17 -66zM398 111q16 14 22.5 31t6.5 40q0 39 -25.5 71t-82.5 61l-88 46
q-51 27 -84 57q-16 -13 -22.5 -30.5t-6.5 -40.5q0 -38 25.5 -70.5t82.5 -61.5l88 -46q51 -27 84 -57z" />
    <glyph glyph-name="trademark" unicode="&#x2122;" horiz-adv-x="937" 
d="M150 662h-140v51h340v-51h-140v-377h-60v377zM407 713h88l127 -355l131 355h84v-428h-56v356l-133 -356h-52l-133 356v-356h-56v428z" />
    <glyph glyph-name="degree" unicode="&#xb0;" horiz-adv-x="360" 
d="M105.5 453.5q-33.5 18.5 -53 51.5t-19.5 74t19.5 74t53 51.5t73.5 18.5t73.5 -18.5t53 -51.5t19.5 -74t-19.5 -74t-53 -51.5t-73.5 -18.5t-73.5 18.5zM226.5 496q20.5 12 32 33.5t11.5 49.5t-11.5 49.5t-32 33.5t-47.5 12t-47.5 -12t-32 -33.5t-11.5 -49.5t11.5 -49.5
t32 -33.5t47.5 -12t47.5 12z" />
    <glyph glyph-name="estimated" unicode="&#x212e;" horiz-adv-x="902" 
d="M193 341v-196q0 -13 7 -23q41 -51 105 -78.5t144 -27.5q81 0 144.5 30.5t121.5 86.5h73q-42 -50 -87.5 -81t-105.5 -46.5t-143 -15.5q-126 0 -218.5 49t-141.5 131t-49 179q0 98 49.5 184t142.5 138.5t215 52.5q148 0 239.5 -55t130.5 -140.5t39 -181.5h-661q-5 0 -5 -6z
M699 593q-47 57 -116.5 81.5t-135.5 24.5q-65 0 -129 -25.5t-116 -78.5q-4 -4 -6.5 -12t-2.5 -16v-194q0 -6 5 -6h506q5 0 5 6v193q0 14 -10 27z" />
    <glyph glyph-name="uni2113" unicode="&#x2113;" 
d="M235 18.5q-26 32.5 -26 83.5v159l-72 -80l-32 36l104 112v252q0 74 27.5 110.5t78.5 36.5q30 0 50.5 -14.5t30.5 -38t10 -49.5q0 -48 -13.5 -89.5t-41 -88.5t-85.5 -135v-201q0 -39 13.5 -58t43.5 -19q49 0 97 50l19 -41q-20 -24 -52 -41t-71 -17q-55 0 -81 32.5z
M332.5 522q21.5 52 21.5 101q0 24 -10.5 40t-29.5 16q-24 0 -36 -23t-12 -84v-179q45 77 66.5 129z" />
    <glyph glyph-name="dagger" unicode="&#x2020;" horiz-adv-x="319" 
d="M200 596h110v-49h-110v-382h-59v382h-110v49h110v117h59v-117z" />
    <glyph glyph-name="daggerdbl" unicode="&#x2021;" horiz-adv-x="319" 
d="M189 596h111v-49h-111v-213h111v-49h-111v-120h-58v120h-112v49h112v213h-112v49h112v117h58v-117z" />
    <glyph glyph-name="paragraph.ss01" horiz-adv-x="538" 
d="M220 325q-57 0 -101 24.5t-68.5 68.5t-24.5 101q0 58 24.5 101.5t72 68t114.5 24.5h226v-913h-64v856h-116v-856h-63v525zM220 656q-35 0 -64 -16t-45.5 -47t-16.5 -74t16.5 -74t45 -47t64.5 -16v274z" />
    <glyph glyph-name="dagger.aalt" horiz-adv-x="489" 
d="M277 513h192v-55h-192v-658h-65v658h-192v55h192v200h65v-200z" />
    <glyph glyph-name="daggerdbl.aalt" horiz-adv-x="489" 
d="M212 0h-192v55h192v403h-192v55h192v200h65v-200h192v-55h-192v-403h192v-55h-192v-200h-65v200z" />
    <glyph glyph-name="bar.aalt" horiz-adv-x="360" 
d="M90 786h69v-859h-69v859zM209 786h69v-859h-69v859z" />
    <glyph glyph-name="paragraph.ss02" 
d="M161.5 382q-49.5 23 -76 64t-26.5 93t25.5 91.5t74.5 61.5t118 22v-356q-66 1 -115.5 24zM327 713h69v-898h-69v898zM446 713h70v-898h-70v898z" />
    <glyph glyph-name="acutecomb" unicode="&#x301;" horiz-adv-x="0" 
d="M-70 777h83l-130 -137h-61z" />
    <glyph glyph-name="glyph612" horiz-adv-x="0" 
d="M-82 679h-77v55q0 38 12 61.5t37 39.5l23 -27q-14 -10 -21.5 -22.5t-7.5 -28.5h34v-78z" />
    <glyph glyph-name="uni0306" unicode="&#x306;" horiz-adv-x="0" 
d="M-34.5 704.5q-18.5 -30.5 -48.5 -46.5t-68 -16q-37 0 -67 16t-48.5 46.5t-21.5 72.5h52q6 -43 28.5 -64t56.5 -21t57 21t29 64h51q-2 -42 -20.5 -72.5z" />
    <glyph glyph-name="uni030C" unicode="&#x30c;" horiz-adv-x="0" 
d="M-293 777h71l77 -91l78 91h69l-112 -133h-72z" />
    <glyph glyph-name="glyph615" horiz-adv-x="0" 
d="M-217 713h66l-29 -160h-44z" />
    <glyph glyph-name="acutecomb.case" horiz-adv-x="0" 
d="M-59 910h87l-129 -110h-63z" />
    <glyph glyph-name="uni0306.case" horiz-adv-x="0" 
d="M-220 809.5q-30 14.5 -47.5 40.5t-21.5 60h51q6 -31 29 -49t58 -18t58.5 18t29.5 49h51q-4 -34 -22 -60t-48 -40.5t-69 -14.5t-69 14.5z" />
    <glyph glyph-name="uni030C.case" horiz-adv-x="0" 
d="M-289 910h74l75 -81l75 81h72l-112 -120h-72z" />
    <glyph glyph-name="uni0302.case" horiz-adv-x="0" 
d="M-105 910l112 -120h-72l-75 80l-75 -80h-74l112 120h72z" />
    <glyph glyph-name="uni0308.case" horiz-adv-x="0" 
d="M-205 823h-79v81h79v-81zM-18 823h-78v81h78v-81z" />
    <glyph glyph-name="uni0307.case" horiz-adv-x="0" 
d="M-109 813h-82v97h82v-97z" />
    <glyph glyph-name="gravecomb.case" horiz-adv-x="0" 
d="M-191 800l-129 110h87l105 -110h-63z" />
    <glyph glyph-name="uni030B.case" horiz-adv-x="0" 
d="M-188 910h72l-86 -115h-55zM-22 910h71l-85 -115h-55z" />
    <glyph glyph-name="uni0304.case" horiz-adv-x="0" 
d="M-23 835h-256v51h256v-51z" />
    <glyph glyph-name="uni030A.case" horiz-adv-x="0" 
d="M-202 762.5q-23 13.5 -37 36.5t-14 51t13.5 51.5t37 36.5t51.5 13t51.5 -13t37 -36.5t13.5 -51.5t-13.5 -51t-37 -36.5t-51.5 -13.5t-51 13.5zM-112.5 809q15.5 15 15.5 41q0 24 -15.5 40t-38.5 16q-22 0 -37.5 -16t-15.5 -40q0 -25 15 -40.5t38 -15.5t38.5 15z" />
    <glyph glyph-name="tildecomb.case" horiz-adv-x="0" 
d="M-286.5 875q25.5 29 67.5 29q22 0 40 -7t42 -21q19 -11 30.5 -16t22.5 -5q22 0 33.5 14t14.5 41h49q-2 -47 -27 -76t-67 -29q-22 0 -40 7t-44 21q-17 10 -29 15.5t-24 5.5q-21 0 -32.5 -14t-14.5 -41h-49q2 47 27.5 76z" />
    <glyph glyph-name="uni0327" unicode="&#x327;" horiz-adv-x="0" 
d="M-225 -194v49q40 -14 78 -14q27 0 41 9.5t14 27.5q0 34 -55 34q-23 0 -45 -5l17 108h44l-8 -60h7q47 0 73.5 -20.5t26.5 -57.5q0 -39 -29 -61t-84 -22q-39 0 -80 12z" />
    <glyph glyph-name="uni0302" unicode="&#x302;" horiz-adv-x="0" 
d="M-115 777l112 -133h-69l-78 91l-77 -91h-71l111 133h72z" />
    <glyph glyph-name="uni0326" unicode="&#x326;" horiz-adv-x="0" 
d="M-184 -171q29 19 29 50h-34v79h76v-55q0 -39 -11.5 -62t-36.5 -39z" />
    <glyph glyph-name="uni0308" unicode="&#x308;" horiz-adv-x="0" 
d="M-201 683h-78v81h78v-81zM-23 683h-77v81h77v-81z" />
    <glyph glyph-name="uni0307" unicode="&#x307;" horiz-adv-x="0" 
d="M-116 634h-70v100h70v-100z" />
    <glyph glyph-name="gravecomb" unicode="&#x300;" horiz-adv-x="0" 
d="M-131 640l-130 137h83l108 -137h-61z" />
    <glyph glyph-name="uni030B" unicode="&#x30b;" horiz-adv-x="0" 
d="M-187 777h74l-86 -137h-57zM-25 777h73l-85 -137h-57z" />
    <glyph glyph-name="uni0304" unicode="&#x304;" horiz-adv-x="0" 
d="M-23 683h-256v51h256v-51z" />
    <glyph glyph-name="uni0328" unicode="&#x328;" horiz-adv-x="0" 
d="M-252 -192q-30 14 -46 40t-16 59q0 35 21 61.5t58 41t82 13.5l2 -23q-47 0 -74 -23.5t-27 -60.5q0 -35 22 -54t56 -19q22 0 47 7v-48q-14 -4 -26.5 -6t-29.5 -2q-39 0 -69 14z" />
    <glyph glyph-name="uni030A" unicode="&#x30a;" horiz-adv-x="0" 
d="M-202 654q-23 13 -36.5 36.5t-13.5 51.5t13.5 51t36.5 36t51 13t51 -13t36.5 -36t13.5 -51t-13.5 -51.5t-36.5 -36.5t-51 -13t-51 13zM-112.5 701q15.5 15 15.5 40q0 24 -15.5 40t-38.5 16t-38.5 -16t-15.5 -40q0 -25 15.5 -40t38.5 -15t38.5 15z" />
    <glyph glyph-name="tildecomb" unicode="&#x303;" horiz-adv-x="0" 
d="M-273.5 742q25.5 29 68.5 29q22 0 40 -7.5t41 -21.5q19 -11 30.5 -16t23.5 -5q21 0 33 14.5t14 41.5h50q-2 -46 -27.5 -75.5t-66.5 -29.5q-22 0 -40 7t-44 21q-17 10 -29 15.5t-24 5.5q-22 0 -33.5 -14t-14.5 -41h-49q2 47 27.5 76z" />
    <glyph glyph-name="uni02C9" unicode="&#x2c9;" horiz-adv-x="301" 
d="M278 683h-256v51h256v-51z" />
    <glyph glyph-name="glyph639" horiz-adv-x="301" 
d="M278 683h-256v51h256v-51z" />
    <glyph glyph-name="acute" unicode="&#xb4;" horiz-adv-x="247" 
d="M145 777h82l-129 -137h-62z" />
    <glyph glyph-name="breve" unicode="&#x2d8;" horiz-adv-x="334" 
d="M283.5 704.5q-18.5 -30.5 -49 -46.5t-67.5 -16q-38 0 -67.5 16t-48 46.5t-21.5 72.5h51q6 -43 29 -64t57 -21t56.5 21t28.5 64h52q-2 -42 -20.5 -72.5z" />
    <glyph glyph-name="caron" unicode="&#x2c7;" horiz-adv-x="354" 
d="M34 777h71l78 -91l77 91h69l-112 -133h-71z" />
    <glyph glyph-name="cedilla" unicode="&#xb8;" horiz-adv-x="252" 
d="M30 -194v49q40 -14 78 -14q27 0 41 9.5t14 27.5q0 34 -55 34q-23 0 -45 -5l17 108h43l-7 -60h7q47 0 73.5 -20.5t26.5 -57.5q0 -39 -29 -61t-84 -22q-39 0 -80 12z" />
    <glyph glyph-name="circumflex" unicode="&#x2c6;" horiz-adv-x="354" 
d="M213 777l111 -133h-69l-77 91l-78 -91h-71l112 133h72z" />
    <glyph glyph-name="dieresis" unicode="&#xa8;" horiz-adv-x="315" 
d="M107 683h-77v81h77v-81zM286 683h-78v81h78v-81z" />
    <glyph glyph-name="dotaccent" unicode="&#x2d9;" horiz-adv-x="135" 
d="M103 634h-70v100h70v-100z" />
    <glyph glyph-name="hungarumlaut" unicode="&#x2dd;" horiz-adv-x="360" 
d="M102 777h74l-86 -137h-56zM264 777h74l-86 -137h-57z" />
    <glyph glyph-name="macron" unicode="&#xaf;" horiz-adv-x="315" 
d="M286 683h-256v51h256v-51z" />
    <glyph glyph-name="glyph649" horiz-adv-x="301" 
d="M212 777h77l-106 -130h-58z" />
    <glyph glyph-name="glyph650" horiz-adv-x="301" 
d="M91 664.5q-26 13.5 -41 42t-15 70.5h50q1 -42 19 -60.5t46 -18.5t46.5 18.5t19.5 60.5h49q0 -62 -32 -94t-83 -32q-33 0 -59 13.5z" />
    <glyph glyph-name="glyph651" horiz-adv-x="301" 
d="M23 777h64l64 -90l65 90h62l-92 -129h-72z" />
    <glyph glyph-name="glyph652" horiz-adv-x="301" 
d="M186 777l92 -129h-62l-65 90l-64 -90h-64l91 129h72z" />
    <glyph glyph-name="glyph653" horiz-adv-x="301" 
d="M119 682h-77v81h77v-81zM258 682h-77v81h77v-81z" />
    <glyph glyph-name="glyph654" horiz-adv-x="301" 
d="M144 647l-106 130h77l87 -130h-58z" />
    <glyph glyph-name="glyph655" horiz-adv-x="301" 
d="M258 683h-216v51h216v-51z" />
    <glyph glyph-name="glyph656" horiz-adv-x="301" 
d="M57.5 -192.5q-27.5 13.5 -42.5 38.5t-15 58q0 37 18.5 64.5t50.5 41.5t71 14l10 -24q-41 0 -64.5 -22.5t-23.5 -62.5q0 -36 18 -54t48 -18q20 0 42 7v-48q-24 -8 -51 -8q-34 0 -61.5 13.5z" />
    <glyph glyph-name="glyph657" horiz-adv-x="301" 
d="M17.5 711.5q10.5 23.5 29.5 37t44 13.5q23 0 38.5 -7.5t34.5 -20.5q15 -10 24 -15t21 -5q37 0 40 53h47q0 -30 -10.5 -53.5t-29.5 -37t-45 -13.5q-23 0 -38.5 7t-34.5 21q-13 10 -22.5 15t-21.5 5q-37 0 -40 -53h-47q0 30 10.5 53.5z" />
    <glyph glyph-name="ogonek" unicode="&#x2db;" horiz-adv-x="246" 
d="M91.5 -192q-29.5 14 -45.5 40t-16 59q0 35 21 61.5t57.5 41t81.5 13.5l3 -23q-47 0 -74.5 -23.5t-27.5 -60.5q0 -35 22 -54t56 -19q22 0 47 7v-48q-14 -4 -26.5 -6t-29.5 -2q-39 0 -68.5 14z" />
    <glyph glyph-name="ring" unicode="&#x2da;" horiz-adv-x="262" 
d="M80 654q-23 13 -36.5 36.5t-13.5 51.5t13.5 51t36.5 36t51 13t51.5 -13t37 -36t13.5 -51t-13.5 -51.5t-37 -36.5t-51.5 -13t-51 13zM169.5 701q15.5 15 15.5 40q0 24 -15.5 40t-38.5 16t-38.5 -16t-15.5 -40q0 -25 15.5 -40t38.5 -15t38.5 15z" />
    <glyph glyph-name="tilde" unicode="&#x2dc;" horiz-adv-x="387" 
d="M70.5 742q25.5 29 68.5 29q22 0 40 -7.5t41 -21.5q19 -11 30.5 -16t23.5 -5q42 0 47 56h50q-2 -46 -27.5 -75.5t-66.5 -29.5q-22 0 -40 7t-44 21q-17 10 -29 15.5t-24 5.5q-22 0 -33.5 -14t-14.5 -41h-49q2 47 27.5 76z" />
    <glyph glyph-name="acutecomb.c2sc" horiz-adv-x="301" 
d="M231 816h83l-130 -137h-61z" />
    <glyph glyph-name="uni0306.c2sc" horiz-adv-x="301" 
d="M266.5 743.5q-18.5 -30.5 -48.5 -46.5t-68 -16q-37 0 -67 16t-48.5 46.5t-21.5 72.5h52q6 -43 28.5 -64t56.5 -21t57 21t29 64h51q-2 -42 -20.5 -72.5z" />
    <glyph glyph-name="uni030C.c2sc" horiz-adv-x="301" 
d="M8 816h71l77 -91l78 91h69l-112 -133h-72z" />
    <glyph glyph-name="uni0327.aalt" horiz-adv-x="301" 
d="M76 -194v49q40 -14 78 -14q27 0 41 9.5t14 27.5q0 34 -55 34q-23 0 -45 -5l17 108h44l-8 -60h7q47 0 73.5 -20.5t26.5 -57.5q0 -39 -29 -61t-84 -22q-39 0 -80 12z" />
    <glyph glyph-name="uni0302.c2sc" horiz-adv-x="301" 
d="M186 816l112 -133h-69l-78 91l-77 -91h-71l111 133h72z" />
    <glyph glyph-name="uni0326.aalt" horiz-adv-x="301" 
d="M117 -174q29 19 29 50h-34v79h76v-55q0 -39 -11.5 -62t-36.5 -39z" />
    <glyph glyph-name="uni0308.c2sc" horiz-adv-x="301" 
d="M100 722h-78v81h78v-81zM278 722h-77v81h77v-81z" />
    <glyph glyph-name="uni0307.c2sc" horiz-adv-x="301" 
d="M185 674h-70v100h70v-100z" />
    <glyph glyph-name="uni02C9.aalt" horiz-adv-x="301" 
d="M278 683h-256v51h256v-51z" />
    <glyph glyph-name="gravecomb.c2sc" horiz-adv-x="301" 
d="M170 679l-130 137h83l108 -137h-61z" />
    <glyph glyph-name="uni030B.c2sc" horiz-adv-x="301" 
d="M114 816h74l-86 -137h-57zM276 816h73l-85 -137h-57z" />
    <glyph glyph-name="uni0304.c2sc" horiz-adv-x="301" 
d="M278 722h-256v51h256v-51z" />
    <glyph glyph-name="glyph673" horiz-adv-x="301" 
d="M231 816h83l-130 -137h-61z" />
    <glyph glyph-name="glyph674" horiz-adv-x="301" 
d="M91 703.5q-26 13.5 -41 42t-15 70.5h50q1 -42 19 -60.5t46 -18.5t46.5 18.5t19.5 60.5h49q0 -62 -32 -94t-83 -32q-33 0 -59 13.5z" />
    <glyph glyph-name="glyph675" horiz-adv-x="301" 
d="M23 816h64l64 -90l65 90h62l-92 -129h-72z" />
    <glyph glyph-name="glyph676" horiz-adv-x="301" 
d="M186 816l92 -129h-62l-65 90l-64 -90h-64l91 129h72z" />
    <glyph glyph-name="glyph677" horiz-adv-x="301" 
d="M119 721h-77v81h77v-81zM258 721h-77v81h77v-81z" />
    <glyph glyph-name="glyph678" horiz-adv-x="301" 
d="M144 686l-106 130h77l87 -130h-58z" />
    <glyph glyph-name="glyph679" horiz-adv-x="301" 
d="M258 722h-216v51h216v-51z" />
    <glyph glyph-name="glyph680" horiz-adv-x="301" 
d="M57.5 -192.5q-27.5 13.5 -42.5 38.5t-15 58q0 37 18.5 64.5t50.5 41.5t71 14l10 -24q-41 0 -64.5 -22.5t-23.5 -62.5q0 -36 18 -54t48 -18q20 0 42 7v-48q-24 -8 -51 -8q-34 0 -61.5 13.5z" />
    <glyph glyph-name="glyph681" horiz-adv-x="301" 
d="M17.5 750.5q10.5 23.5 29.5 37t44 13.5q23 0 38.5 -7.5t34.5 -20.5q15 -10 24 -15t21 -5q37 0 40 53h47q0 -30 -10.5 -53.5t-29.5 -37t-45 -13.5q-23 0 -38.5 7t-34.5 21q-13 10 -22.5 15t-21.5 5q-37 0 -40 -53h-47q0 30 10.5 53.5z" />
    <glyph glyph-name="uni0328.aalt" horiz-adv-x="301" 
d="M49 -192q-30 14 -46 40t-16 59q0 35 21 61.5t58 41t82 13.5l2 -23q-47 0 -74 -23.5t-27 -60.5q0 -35 22 -54t56 -19q22 0 47 7v-48q-14 -4 -26.5 -6t-29.5 -2q-39 0 -69 14z" />
    <glyph glyph-name="uni030A.c2sc" horiz-adv-x="301" 
d="M99 693q-23 13 -36.5 36.5t-13.5 51.5t13.5 51t36.5 36t51 13t51 -13t36.5 -36t13.5 -51t-13.5 -51.5t-36.5 -36.5t-51 -13t-51 13zM188.5 740q15.5 15 15.5 40q0 24 -15.5 40t-38.5 16t-38.5 -16t-15.5 -40q0 -25 15.5 -40t38.5 -15t38.5 15z" />
    <glyph glyph-name="tildecomb.c2sc" horiz-adv-x="301" 
d="M27.5 781q25.5 29 68.5 29q22 0 40 -7.5t41 -21.5q19 -11 30.5 -16t23.5 -5q21 0 33 14.5t14 41.5h50q-2 -46 -27.5 -75.5t-66.5 -29.5q-22 0 -40 7t-44 21q-17 10 -29 15.5t-24 5.5q-22 0 -33.5 -14t-14.5 -41h-49q2 47 27.5 76z" />
    <glyph glyph-name="uniE001" unicode="&#xe001;" horiz-adv-x="1689" 
d="M202 474.5q32 54.5 86.5 86.5t118.5 32h115v-86h-114q-41 0 -76 -20.5t-55.5 -55t-20.5 -75.5t20.5 -76t55.5 -55t76 -20h136q10 0 16.5 7t6.5 17v354q0 36 18 66.5t49 48.5t67 18q35 0 66 -17.5t49 -47.5l164 -284v216q0 36 18 66.5t49 48.5t67 18q35 0 66 -17.5
t49 -47.5l165 -284v346h85v-581q0 -7 -5 -12.5t-13 -5.5q-11 0 -16 9l-281 484q-7 12 -19 19t-26 7q-22 0 -37.5 -15.5t-15.5 -37.5v-448q0 -7 -5 -12.5t-13 -5.5q-11 0 -16 9l-281 484q-7 12 -19 19t-26 7q-22 0 -37.5 -15.5t-15.5 -37.5v-439q0 -8 -7 -15t-16 -7h-223
q-64 0 -118.5 32t-86.5 86.5t-32 118.5t32 118.5zM1599 130q0 -36 -18 -67t-48.5 -49t-66.5 -18q-35 0 -66 17.5t-49 47.5l-165 284v-215q0 -36 -18 -67t-48.5 -49t-66.5 -18q-35 0 -66.5 17.5t-48.5 47.5l-165 284v-204q0 -68 -37.5 -105t-102.5 -37h-226q-97 0 -179 48
t-130 130t-48 179t48 179t130 130t179 48h115v-86h-115q-74 0 -136.5 -36.5t-99 -98.5t-36.5 -136t36.5 -136t99 -98.5t136.5 -36.5h223q23 0 40 16.5t17 39.5v439q0 8 5.5 13.5t13.5 5.5q4 0 8.5 -2.5t6.5 -6.5l281 -485q8 -12 20 -19t26 -7q22 0 37.5 15.5t15.5 37.5v448
q0 8 5.5 13.5t12.5 5.5q4 0 9 -2.5t7 -6.5l281 -485q7 -12 19 -19t26 -7q22 0 37.5 15.5t15.5 37.5v581h85v-583z" />
    <glyph glyph-name="uniE002" unicode="&#xe002;" horiz-adv-x="813" 
d="M50 0v713h713v-713h-713zM175.5 313.5q11.5 -19.5 31 -31t42.5 -11.5h81q4 0 6 2.5t2 5.5v158q0 8 5.5 13.5t13.5 5.5q5 0 9.5 -3.5t7.5 -7.5l100 -172q2 -4 5 -4t5 2t2 5v161q0 8 5.5 13.5t13.5 5.5q5 0 9.5 -2.5t6.5 -6.5l101 -174q2 -4 6 -4q2 0 4 2t2 5v209h-31v-125
l-59 102q-6 11 -17 17.5t-24 6.5q-19 0 -33.5 -14t-14.5 -34v-78l-59 102q-6 11 -17 17.5t-24 6.5q-20 0 -34 -14t-14 -34v-127q0 -4 -2.5 -6.5t-6.5 -2.5h-48q-23 0 -39 16t-16 38q0 23 16.5 39t38.5 16h40v30h-41q-23 0 -42.5 -11.5t-31 -31t-11.5 -42.5t11.5 -42.5z
M647 276q0 -7 -5.5 -13t-13.5 -6q-11 0 -17 9l-100 174q-3 4 -6 4t-5 -2t-2 -5v-161q0 -8 -5.5 -13.5t-13.5 -5.5q-10 0 -16 9l-101 174q-2 4 -6 4q-2 0 -4 -2t-2 -5v-158q0 -8 -5.5 -14t-14.5 -6h-81q-26 0 -48.5 13t-35.5 35.5t-13 48.5q0 27 13 49.5t35.5 35.5t48.5 13
h41v31h-41q-34 0 -63.5 -17.5t-47 -47t-17.5 -64.5q0 -34 17.5 -63.5t47 -47t63.5 -17.5h81q24 0 37.5 13.5t13.5 37.5v74l59 -102q6 -11 17 -17.5t24 -6.5q20 0 34 14t14 34v78l59 -102q7 -11 17.5 -17.5t23.5 -6.5q20 0 34 14t14 34v210h-30v-209z" />
    <glyph glyph-name="uniE003" unicode="&#xe003;" horiz-adv-x="1161" 
d="M502 690.5q57 40.5 136 40.5q31 0 63.5 -7.5t69.5 -21.5q8 -3 16.5 -6.5t18.5 -7.5q57 -22 83 -30t50 -8q43 0 67.5 17t43.5 54h24q-11 -29 -27.5 -51.5t-48.5 -39t-82 -16.5q-34 0 -64.5 8.5t-80.5 28.5q-60 25 -90 33t-64 8q-66 0 -111 -32.5t-61 -87.5h-24
q24 78 81 118.5zM814 574q-43 12 -97 35q-43 18 -71.5 26t-52.5 8q-41 0 -67 -16.5t-43 -54.5h-25q13 39 49 73t105 34q35 0 64.5 -8t90.5 -32q53 -21 83 -29.5t66 -8.5q64 0 108.5 31.5t63.5 88.5h23q-24 -77 -81 -118t-133 -41q-40 0 -83 12zM726 81q-4 3 -7 8l-187 323
q-7 12 -16.5 17t-18.5 5q-15 0 -25 -10.5t-10 -25.5v-300q0 -6 -4.5 -11t-10.5 -5h-153q-44 0 -81 22t-59 59t-22 81t22 81.5t59 59.5t81 22h79v-59h-78q-28 0 -52 -14t-38 -38t-14 -52t14 -51.5t38 -37.5t52 -14h92q7 0 12 5t5 11v243q0 26 12 47t32 32.5t43 11.5
q26 0 50 -15.5t43 -46.5l103 -177v148q0 26 12 47t32 32.5t43 11.5q26 0 50 -15t43 -47l103 -177v237h59v-398q0 -7 -3.5 -10t-8.5 -3q-9 0 -15 11l-187 323q-13 22 -35 22q-14 0 -24.5 -10.5t-10.5 -25.5v-307q0 -6 -3.5 -9.5t-7.5 -3.5t-8 3zM172 33q-56 33 -89 89
t-33 122t33 122.5t89 89.5t122 33h79v-59h-79q-50 0 -93 -25t-68 -67.5t-25 -93.5q0 -50 25 -92.5t68 -67.5t93 -25h153q15 0 27 11.5t12 27.5v300q0 7 3.5 10t7.5 3q9 0 15 -11l187 -323q6 -11 15.5 -16.5t19.5 -5.5q15 0 25 10.5t10 25.5v307q0 6 2.5 9.5t8.5 3.5
q10 0 15 -11l187 -323q14 -22 35 -22q15 0 25 10t10 26v398h59v-400q0 -26 -12 -47t-32 -32.5t-43 -11.5q-26 0 -50.5 15t-43.5 47l-103 177v-148q0 -26 -12 -47t-32 -32.5t-43 -11.5q-26 0 -50 15.5t-43 46.5l-103 177v-139q0 -47 -25.5 -72.5t-70.5 -25.5h-154
q-66 0 -122 33z" />
    <glyph glyph-name="uniE004" unicode="&#xe004;" horiz-adv-x="813" 
d="M50 713h713v-713h-713v713zM333 523l1 1q2 4 11 20t28 28.5t47 12.5q18 0 32.5 -4t28.5 -9t18 -7q31 -12 47 -16t31 -4q39 0 57.5 17.5t24.5 37.5h-12q-10 -20 -23 -28t-35 -8q-13 0 -24.5 3t-32.5 11.5t-30 11.5q-43 16 -70 16q-37 0 -68.5 -21.5t-42.5 -61.5h12z
M637 540.5q31 22.5 41 59.5h-12q-8 -28 -30.5 -45t-58.5 -17q-16 0 -32 4t-48 17q-29 11 -44.5 15.5t-35.5 4.5q-34 0 -52 -17.5t-25 -38.5h13q8 19 22 28t35 9q14 0 26.5 -4t37.5 -14q59 -24 93 -24q39 0 70 22.5zM175.5 313.5q11.5 -19.5 31 -31t42.5 -11.5h81q4 0 6 2.5
t2 5.5v158q0 8 5.5 13.5t13.5 5.5q5 0 9.5 -3.5t7.5 -7.5l100 -172q2 -4 5 -4t5 2t2 5v161q0 8 5.5 13.5t13.5 5.5q5 0 9.5 -2.5t6.5 -6.5l101 -174q2 -4 6 -4q2 0 4 2t2 5v209h-31v-125l-59 102q-6 11 -17 17.5t-24 6.5q-19 0 -33.5 -14t-14.5 -34v-78l-59 102
q-6 11 -17 17.5t-24 6.5q-20 0 -34 -14t-14 -34v-127q0 -4 -2.5 -6.5t-6.5 -2.5h-48q-23 0 -39 16t-16 38q0 23 16.5 39t38.5 16h40v30h-41q-23 0 -42.5 -11.5t-31 -31t-11.5 -42.5t11.5 -42.5zM647 276q0 -7 -5.5 -13t-13.5 -6q-11 0 -17 9l-100 174q-3 4 -6 4t-5 -2t-2 -5
v-161q0 -8 -5.5 -13.5t-13.5 -5.5q-10 0 -16 9l-101 174q-2 4 -6 4q-2 0 -4 -2t-2 -5v-158q0 -8 -5.5 -14t-14.5 -6h-81q-26 0 -48.5 13t-35.5 35.5t-13 48.5q0 27 13 49.5t35.5 35.5t48.5 13h41v31h-41q-34 0 -63.5 -17.5t-47 -47t-17.5 -64.5q0 -34 17.5 -63.5t47 -47
t63.5 -17.5h81q24 0 37.5 13.5t13.5 37.5v74l59 -102q6 -11 17 -17.5t24 -6.5q20 0 34 14t14 34v78l59 -102q7 -11 17.5 -17.5t23.5 -6.5q20 0 34 14t14 34v210h-30v-209z" />
    <glyph glyph-name="uniE005" unicode="&#xe005;" horiz-adv-x="1502" 
d="M50 0v713h713v-713h-713zM895.5 158q-38.5 16 -35.5 69h96q0 -13 8 -23q8 -5 23 -5q19 0 27.5 12t13.5 33l6 27h-1q-10 -12 -26.5 -18.5t-34.5 -6.5q-46 0 -72.5 27t-26.5 72q0 38 14.5 71.5t42 54.5t65.5 21q57 0 76 -39h1l6 33h94l-43 -211q-10 -47 -21.5 -73
t-41.5 -43t-88 -17q-44 0 -82.5 16zM1206 253.5q-35 29.5 -35 90.5q0 41 18 75t53.5 53.5t85.5 19.5q58 0 91 -27.5t33 -84.5q0 -37 -15 -72.5t-49.5 -59.5t-89.5 -24q-57 0 -92 29.5zM175.5 313.5q11.5 -19.5 31 -31t42.5 -11.5h81q4 0 6 2.5t2 5.5v158q0 8 5.5 13.5
t13.5 5.5q5 0 9.5 -3.5t7.5 -7.5l100 -172q2 -4 5 -4t5 2t2 5v161q0 8 5.5 13.5t13.5 5.5q5 0 9.5 -2.5t6.5 -6.5l101 -174q2 -4 6 -4q2 0 4 2t2 5v209h-31v-125l-59 102q-6 11 -17 17.5t-24 6.5q-19 0 -33.5 -14t-14.5 -34v-78l-59 102q-6 11 -17 17.5t-24 6.5
q-20 0 -34 -14t-14 -34v-127q0 -4 -2.5 -6.5t-6.5 -2.5h-48q-23 0 -39 16t-16 38q0 23 16.5 39t38.5 16h40v30h-41q-23 0 -42.5 -11.5t-31 -31t-11.5 -42.5t11.5 -42.5zM647 276q0 -7 -5.5 -13t-13.5 -6q-11 0 -17 9l-100 174q-3 4 -6 4t-5 -2t-2 -5v-161q0 -8 -5.5 -13.5
t-13.5 -5.5q-10 0 -16 9l-101 174q-2 4 -6 4q-2 0 -4 -2t-2 -5v-158q0 -8 -5.5 -14t-14.5 -6h-81q-26 0 -48.5 13t-35.5 35.5t-13 48.5q0 27 13 49.5t35.5 35.5t48.5 13h41v31h-41q-34 0 -63.5 -17.5t-47 -47t-17.5 -64.5q0 -34 17.5 -63.5t47 -47t63.5 -17.5h81
q24 0 37.5 13.5t13.5 37.5v74l59 -102q6 -11 17 -17.5t24 -6.5q20 0 34 14t14 34v78l59 -102q7 -11 17.5 -17.5t23.5 -6.5q20 0 34 14t14 34v210h-30v-209zM1036 321.5q12 13.5 16.5 30.5t4.5 29q0 18 -6.5 29t-29.5 11q-26 0 -38.5 -22.5t-12.5 -49.5q0 -18 8.5 -29.5
t24.5 -11.5q21 0 33 13.5zM1331.5 309q11.5 14 17 32.5t5.5 32.5q0 24 -7 35.5t-26 11.5q-18 0 -30 -14.5t-17.5 -34.5t-5.5 -36q0 -18 7.5 -29.5t26.5 -11.5q18 0 29.5 14z" />
    <glyph glyph-name="uniE006" unicode="&#xe006;" horiz-adv-x="1551" 
d="M1501 713v-713h-1476l101 101v612h1375zM595 610h-104v-203h-160v203h-104v-509h104v203h160v-203h104v509zM1398 610h-103v-264l-264 264v-509l-102 104h-159v405h-103v-509h468v263l263 -263v509z" />
    <glyph glyph-name="uniE101" unicode="&#xe101;" horiz-adv-x="848" 
d="M237 35.5q-86 50.5 -136.5 136.5t-50.5 187t50.5 187t136.5 136.5t187 50.5t187 -50.5t136.5 -136.5t50.5 -187t-50.5 -187t-136.5 -136.5t-187 -50.5t-187 50.5zM596 62q79 46 125 125t46 172t-46 172t-125 125t-172 46t-172 -46t-125 -125t-46 -172t46 -172t125 -125
t172 -46t172 46zM331 523l280 -162l-280 -162v324z" />
    <glyph glyph-name="uniE102" unicode="&#xe102;" horiz-adv-x="848" 
d="M237 35.5q-86 50.5 -136.5 136.5t-50.5 187t50.5 187t136.5 136.5t187 50.5t187 -50.5t136.5 -136.5t50.5 -187t-50.5 -187t-136.5 -136.5t-187 -50.5t-187 50.5zM581 87.5q72 42.5 114.5 114.5t42.5 157t-42.5 157t-114.5 114.5t-157 42.5t-157 -42.5t-114.5 -114.5
t-42.5 -157t42.5 -157t114.5 -114.5t157 -42.5t157 42.5zM307 550l328 -189l-328 -189v378z" />
    <glyph glyph-name="uniE103" unicode="&#xe103;" horiz-adv-x="902" 
d="M90 62q-18 11 -29 29t-11 40v358q0 21 10 38.5t27 28.5t37 12v29h91v-28h12l99 99q9 9 22 9h206q13 0 22 -9l99 -99h97q22 0 40 -11t29 -29t11 -40v-358q0 -22 -11 -40t-29 -29t-40 -11h-642q-22 0 -40 11zM772 112q8 0 13.5 5.5t5.5 13.5v358q0 8 -5.5 13.5t-13.5 5.5
h-109q-13 0 -22 9l-99 99h-182l-99 -99q-9 -9 -21 -9h-110q-8 0 -13.5 -5.5t-5.5 -13.5v-358q0 -8 5.5 -13.5t13.5 -5.5h642zM371 210.5q-37 21.5 -59 58.5t-22 81t22 81t59 59t81 22t81 -22t58.5 -59t21.5 -81t-21.5 -81t-58.5 -58.5t-81 -21.5t-81 21.5z" />
    <glyph glyph-name="uniE104" unicode="&#xe104;" horiz-adv-x="626" 
d="M244 230.5q-32 18.5 -50.5 50t-18.5 68.5v241q0 37 18.5 69t50.5 50.5t69 18.5t69 -18.5t50.5 -50.5t18.5 -69v-241q0 -37 -18.5 -68.5t-50.5 -50t-69 -18.5t-69 18.5zM359.5 285q20.5 15 28.5 39h-41v58h46v59h-46v58h46v59h-46v58h41q-8 24 -28.5 39t-46.5 15
t-46.5 -15t-28.5 -39h41v-58h-45v-59h45v-58h-45v-59h45v-58h-41q8 -24 28.5 -39t46.5 -15t46.5 15zM197 58h87v58q-65 7 -118.5 43.5t-84.5 94t-31 123.5h58q0 -56 27.5 -103t74.5 -74.5t103 -27.5t103 27.5t74.5 74.5t27.5 103h58q0 -66 -31 -123.5t-84.5 -94
t-118.5 -43.5v-58h87v-58h-232v58z" />
    <glyph glyph-name="uniE105" unicode="&#xe105;" horiz-adv-x="576" 
d="M77 387q-13 25 -20 53t-7 55q0 64 32 119t87 87t119 32t119 -32t87 -87t32 -119q0 -58 -27 -108l-211 -402zM448 413q20 37 20 82q0 49 -24 90.5t-65.5 66t-90.5 24.5t-90 -24.5t-65.5 -66t-24.5 -90.5q0 -45 20 -82l160 -305zM231 397.5q-26 15.5 -41 41t-15 56.5t15 57
t41 41.5t57 15.5t57 -15.5t41 -41.5t15 -57t-15 -56.5t-41 -41t-57 -15.5t-57 15.5z" />
    <glyph glyph-name="uniE106" unicode="&#xe106;" horiz-adv-x="835" 
d="M50 714h59v-448l221 240l170 -172l242 241l42 -43l-284 -282l-168 170l-223 -241v-119h676v-59h-735v713z" />
    <glyph glyph-name="uniE107" unicode="&#xe107;" horiz-adv-x="848" 
d="M50 518l43 44l331 -331l331 330l43 -43l-374 -374z" />
    <glyph glyph-name="uniE108" unicode="&#xe108;" horiz-adv-x="848" 
d="M50 187l374 374l374 -374l-43 -43l-331 330l-331 -331z" />
    <glyph glyph-name="uniE109" unicode="&#xe109;" 
d="M50 359l374 374l44 -43l-331 -331l330 -331l-43 -43z" />
    <glyph glyph-name="uniE110" unicode="&#xe110;" horiz-adv-x="518" 
d="M50 28l331 331l-330 331l43 43l374 -374l-375 -374z" />
    <glyph glyph-name="uniE111" unicode="&#xe111;" horiz-adv-x="611" 
d="M50 143l214 214l-214 214l42 41l213 -213l214 213l42 -41l-214 -214l214 -214l-42 -41l-214 213l-213 -213z" />
    <glyph glyph-name="uniE112" unicode="&#xe112;" horiz-adv-x="724" 
d="M50 104l207 207q-40 59 -40 129q0 62 30.5 114.5t83 83.5t114.5 31t114.5 -31t83.5 -83.5t31 -114.5t-31 -114.5t-83.5 -83t-114.5 -30.5q-70 0 -129 40l-207 -207zM532 290.5q40 23.5 63 63t23 86.5t-23 86.5t-63 63t-87 23.5t-86.5 -23.5t-62.5 -63t-23 -86.5t23 -86.5
t62.5 -63t86.5 -23.5t87 23.5z" />
    <glyph glyph-name="uniE113" unicode="&#xe113;" horiz-adv-x="545" 
d="M50 347h60v-111l342 344l43 -43l-343 -343h110v-60h-212v213z" />
    <glyph glyph-name="uniE114" unicode="&#xe114;" horiz-adv-x="545" 
d="M50 165l343 343h-110v60h212v-213h-60v111l-342 -344z" />
    <glyph glyph-name="uniE115" unicode="&#xe115;" horiz-adv-x="729" 
d="M50 558h629v-72h-629v72zM50 393h629v-72h-629v72zM50 228h629v-72h-629v72z" />
    <glyph glyph-name="uniE116" unicode="&#xe116;" horiz-adv-x="693" 
d="M464.5 300.5q-64.5 110.5 -174.5 175.5t-240 65v114q161 0 297 -80t216 -217t80 -299h-114q0 131 -64.5 241.5zM306 166q-21 51 -60 91q-39 39 -90 60t-106 21v114q106 0 196 -53t142.5 -143t52.5 -196h-114q0 55 -21 106zM89 70.5q-18 10.5 -28.5 28.5t-10.5 40t10.5 40
t28.5 28.5t40 10.5t40 -10.5t28.5 -28.5t10.5 -40t-10.5 -40t-28.5 -28.5t-40 -10.5t-40 10.5z" />
    <glyph glyph-name="uniE117" unicode="&#xe117;" horiz-adv-x="813" 
d="M76 582h661l-331 -317zM50 563l208 -200l-208 -208v408zM554 363l209 200v-408zM281 341l125 -120l126 120l209 -209h-669z" />
    <glyph glyph-name="uniE118" unicode="&#xe118;" horiz-adv-x="470" 
d="M159 326h-109v126h109v94q0 53 20.5 91t57.5 57.5t85 19.5q31 0 58 -2t40 -4v-113h-67q-36 0 -49.5 -15.5t-13.5 -46.5v-81h126l-16 -126h-110v-325h-131v325z" />
    <glyph glyph-name="uniE119" unicode="&#xe119;" horiz-adv-x="758" 
d="M148.5 105.5q-52.5 15.5 -98.5 44.5q22 -2 32 -2q47 0 90 15t78 43q-44 1 -78.5 27t-47.5 67q8 -2 25 -2q20 0 36 4q-31 6 -55.5 25.5t-38.5 47.5t-14 61q28 -15 61 -17q-28 19 -44 48.5t-16 64.5q0 38 18 68q50 -63 122.5 -100t155.5 -41q-3 14 -3 30q0 37 18 68t49 49
t68 18q28 0 54 -11t44 -31q47 9 86 33q-7 -23 -22.5 -42.5t-36.5 -32.5q41 5 77 21q-27 -41 -67 -70v-17q0 -93 -46 -181.5t-133 -145.5t-205 -57q-56 0 -108.5 15.5z" />
    <glyph glyph-name="uniE120" unicode="&#xe120;" horiz-adv-x="859" 
d="M97 275q-22 13 -34.5 34.5t-12.5 47.5t12.5 47.5t34.5 34.5t48 13t47.5 -13t34.5 -34.5t13 -47.5t-13 -47.5t-34.5 -34.5t-47.5 -13t-48 13zM381.5 275q-21.5 13 -34 34.5t-12.5 47.5t12.5 47.5t34 34.5t47.5 13t48 -13t34.5 -34.5t12.5 -47.5t-12.5 -47.5t-34.5 -34.5
t-48 -13t-47.5 13zM666.5 275q-21.5 13 -34.5 34.5t-13 47.5t13 47.5t34.5 34.5t47.5 13t47.5 -13t34.5 -34.5t13 -47.5t-13 -47.5t-34.5 -34.5t-47.5 -13t-47.5 13z" />
    <glyph glyph-name="uniE121" unicode="&#xe121;" horiz-adv-x="627" 
d="M68.5 511.5q-18.5 18.5 -18.5 44.5q0 17 8.5 32t23 23.5t31.5 8.5t32 -8.5t23.5 -23.5t8.5 -32t-8.5 -31.5t-23.5 -23t-32 -8.5q-26 0 -44.5 18.5zM236 445h105v-48h1q13 24 40 40.5t64 16.5q52 0 81 -21t39.5 -57.5t10.5 -88.5v-193h-109v171q0 27 -3 46t-15.5 33
t-38.5 14q-39 0 -52.5 -24.5t-13.5 -65.5v-174h-109v351zM59 445h109v-351h-109v351z" />
    <glyph glyph-name="uniE122" unicode="&#xe122;" horiz-adv-x="518" 
d="M218 14.5q-49 29.5 -71.5 74t-22.5 90.5v238h-74v94q50 18 80 52.5t42.5 68.5t20.5 75q1 3 2.5 4.5t2.5 1.5h107v-186h146v-110h-146v-227q0 -29 15 -50t55 -21q14 0 31 3.5t27 8.5l35 -104q-7 -10 -27 -19.5t-46.5 -16t-52.5 -6.5q-75 0 -124 29.5z" />
    <glyph glyph-name="uniE123" unicode="&#xe123;" horiz-adv-x="693" 
d="M84 70q-16 9 -25 24.5t-9 34.5v456q0 19 9 34.5t25 24.5t34 9h457q18 0 34 -9t25 -24.5t9 -34.5v-456q0 -19 -9 -34.5t-25 -24.5t-34 -9h-457q-18 0 -34 9zM552 471q9 0 16 6.5t7 16.5v68q0 10 -7 16.5t-16 6.5h-69q-9 0 -15.5 -6.5t-6.5 -16.5v-68q0 -10 6.5 -16.5
t15.5 -6.5h69zM403.5 258.5q26.5 15.5 42 41.5t15.5 57t-15.5 57t-42 41.5t-57.5 15.5t-57 -15.5t-41.5 -41.5t-15.5 -57t15.5 -57t41.5 -41.5t57 -15.5t57.5 15.5zM552 129q9 0 16 6.5t7 16.5v251h-52q6 -22 6 -46q0 -50 -24.5 -91.5t-66.5 -66t-92 -24.5q-49 0 -91 24.5
t-66.5 66t-24.5 91.5q0 24 6 46h-52v-251q0 -10 7 -16.5t16 -6.5h411z" />
    <glyph glyph-name="uniE124" unicode="&#xe124;" horiz-adv-x="827" 
d="M164.5 1q-52.5 16 -83.5 46t-31 70q0 41 27.5 80t76 63.5t108.5 24.5h39q-16 16 -23.5 27.5t-7.5 28.5q0 18 11 42q-6 -1 -20 -1q-50 0 -86.5 21.5t-56 58.5t-19.5 82q0 43 27 82.5t73 63t99 23.5h215l-48 -51h-57q29 -16 45 -48.5t16 -72.5q0 -34 -17 -63t-46 -52
q-27 -21 -35 -33.5t-8 -30.5q0 -13 17.5 -29t45.5 -37q35 -26 52.5 -47.5t24 -44.5t6.5 -57q0 -42 -28 -79t-80.5 -60t-120.5 -23q-63 0 -115.5 16zM629 554h-99v50h99v99h49v-99h99v-50h-99v-99h-49v99zM297 416q13 0 29 1.5t-3 -1.5q29 5 45.5 28t16.5 64q0 40 -13.5 75.5
t-36.5 60t-51 31.5q-11 3 -21 3q-25 0 -44.5 -14t-30.5 -39t-11 -56q0 -7 2 -23q3 -22 17.5 -43.5t35.5 -46.5q8 -8 13.5 -15.5t5.5 -10.5q0 -2 -1.5 -3t-4.5 -1q-2 0 39 -9zM404 52.5q39 31.5 39 84.5q0 13 -3 23q-5 22 -22 37.5t-53 39.5q-3 2 -8 5.5t-11 7.5q-25 9 -56 9
q-42 0 -78.5 -16t-58.5 -43.5t-22 -58.5q0 -33 19 -60.5t53 -43.5t76 -16q86 0 125 31.5z" />
    <glyph glyph-name="uniE125" unicode="&#xe125;" horiz-adv-x="679" 
d="M179 -13q-4 0 -5 4q-2 7 -5 32.5t-3 55.5q0 39 9 76l56 234q-5 11 -9.5 29.5t-4.5 38.5q0 31 11 56.5t30 40t42 14.5q28 0 43 -18.5t15 -46.5q0 -17 -5.5 -38.5t-15.5 -54.5l-17 -59q-2 -12 -2 -17q0 -28 20.5 -47t49.5 -19q39 0 70.5 31t48.5 83.5t17 114.5
q0 47 -21 84.5t-61.5 58.5t-96.5 21q-63 0 -111 -28t-74 -75t-26 -102q0 -54 28 -85q4 -4 6 -8t2 -7l-2 -9l-9 -34q-3 -13 -12 -13q-3 0 -9 2q-43 18 -65.5 62t-22.5 102q0 64 35.5 126t105 102.5t166.5 40.5q79 0 141 -34.5t96.5 -91.5t34.5 -121q0 -83 -29.5 -150.5
t-82 -105.5t-120.5 -38q-34 0 -63.5 16t-41.5 38l-31 -119q-10 -37 -33 -75.5t-38 -56.5q-8 -10 -11 -10z" />
    <glyph glyph-name="uniE126" unicode="&#xe126;" horiz-adv-x="829" 
d="M244 547l-56 167h47l30 -111h3l29 111h48l-55 -162v-114h-46v109zM364 449q-16 16 -16 40v106q0 24 17 37.5t45 13.5q27 0 43 -15t16 -37v-105q0 -27 -16.5 -41.5t-44.5 -14.5t-44 16zM509 445.5q-7 10.5 -7 25.5v170h42v-156q0 -13 11 -13q6 0 13 5t11 10v154h42v-203
h-42v22q-9 -10 -22.5 -17.5t-25.5 -7.5q-15 0 -22 10.5zM420.5 473q5.5 5 5.5 13v110q0 15 -18 15q-9 0 -13 -4.5t-4 -10.5v-110q0 -18 17 -18q7 0 12.5 5zM116.5 19q-30.5 18 -48.5 48.5t-18 66.5v107q0 36 18 66.5t48.5 48.5t66.5 18h463q36 0 66.5 -18t48.5 -48.5
t18 -66.5v-107q0 -36 -18 -66.5t-48.5 -48.5t-66.5 -18h-463q-36 0 -66.5 18zM237 77v214h43v36h-127v-36h43v-214h41zM527 85.5q9 11.5 9 29.5v102q0 22 -9.5 34.5t-26.5 12.5q-9 0 -18 -5.5t-15 -12.5v81h-37v-250h37v14q14 -17 35 -17q16 0 25 11.5zM664 129v9h-38v-8
q0 -13 -3.5 -19.5t-13.5 -6.5q-9 0 -12.5 6.5t-3.5 19.5v35h71v47q0 26 -14 40t-39 14q-24 0 -40 -15t-16 -39v-83q0 -28 14.5 -42.5t38.5 -14.5q56 0 56 57zM345 80.5q10 6.5 20 16.5v-20h37v184h-37v-140q-5 -5 -11.5 -9.5t-10.5 -4.5q-10 0 -10 13v141h-36v-154
q0 -33 25 -33q13 0 23 6.5zM467 112v115q7 7 15 7q9 0 12.5 -6t3.5 -13v-95q0 -9 -4 -13t-10 -4q-8 0 -17 9zM593 212q0 11 3.5 16.5t12.5 5.5q17 0 17 -22v-19h-33v19z" />
    <glyph glyph-name="uniE127" unicode="&#xe127;" horiz-adv-x="703" 
d="M280 94q-24 20 -36 46q-5 11 -16 43.5t-19 60t-14 45.5q-44 143 -53 156q-5 6 -14 6t-21 -6t-21.5 -12t-11.5 -8l-24 32q60 63 107.5 101t85.5 38q29 0 44.5 -27t25.5 -75l9 -47q6 -42 11 -59q16 -65 26.5 -93t22.5 -28t31.5 27t52.5 82q6 10 10 24t4 25q0 21 -11 34
t-30 13q-21 0 -43 -14q7 40 32 72.5t60.5 51t72.5 18.5q40 0 66 -23.5t26 -69.5q0 -67 -42.5 -148t-107.5 -154t-131 -119q-10 -7 -19.5 -9.5t-20.5 -2.5q-28 0 -52 20z" />
    <glyph glyph-name="uniE128" unicode="&#xe128;" horiz-adv-x="880" 
d="M824 487.5q7 -53.5 7 -134.5q0 -79 -8.5 -134t-22.5 -86q-10 -22 -25.5 -34t-45.5 -23q-40 -14 -97 -20t-189 -11q0 3 1.5 5t2.5 4q12 22 33 56q5 9 12.5 13.5t18.5 5.5q21 0 67.5 4t67.5 8q66 8 83 51q10 26 15 69t5 90q0 120 -20 172q-15 34 -57 44q-44 10 -99 15
t-132 5q-79 0 -134 -5t-98 -15q-42 -10 -57 -44q-12 -30 -16.5 -77.5t-3.5 -94.5q0 -46 5 -89.5t15 -69.5q16 -43 83 -51q21 -4 67.5 -8t67.5 -4q11 -1 18.5 -5.5t12.5 -13.5q21 -34 33 -56q1 -2 2.5 -4t1.5 -5q-132 5 -189 11t-97 20q-30 11 -45.5 23t-25.5 34
q-31 64 -31 220q0 79 7 133t22 92q13 32 48 50q84 41 314 41q231 0 313 -41q35 -18 48 -50q15 -37 22 -90.5z" />
    <glyph glyph-name="uniE129" unicode="&#xe129;" horiz-adv-x="756" 
d="M368 -11q-17 0 -38 12q-38 22 -91 86t-107.5 198.5t-81.5 339.5h127q15 -129 44 -225.5t66.5 -164t86.5 -125.5q36 36 69.5 82.5t59.5 99.5q-64 32 -100.5 98.5t-36.5 150.5q0 56 21 100.5t60 70t93 25.5q80 0 123 -47.5t43 -133.5q0 -33 -6.5 -67t-19.5 -62
q-15 -3 -29 -3q-29 0 -50.5 12t-29.5 26q14 47 14 83q0 39 -13 59.5t-36 20.5t-37.5 -22.5t-14.5 -63.5q0 -56 22 -96.5t60 -62t85 -21.5q25 0 55 6v-89q-46 -10 -90 -10q-29 -61 -70.5 -118.5t-81.5 -97t-61 -51.5q-20 -10 -35 -10z" />
    <glyph glyph-name="uniE130" unicode="&#xe130;" horiz-adv-x="851" 
d="M133.5 92.5q-38.5 22.5 -61 61t-22.5 84.5v104h129v-103q0 -16 11.5 -27.5t27.5 -11.5q17 0 28.5 11.5t11.5 27.5v243q0 44 23 81.5t61.5 59t83.5 21.5t83 -22t60.5 -59.5t23.5 -81.5v-53l-76 -23l-52 24v46q0 17 -11.5 28.5t-27.5 11.5t-28 -11.5t-12 -28.5v-239
q0 -45 -22.5 -83t-61.5 -60.5t-84 -22.5q-46 0 -84.5 22.5zM549 92.5q-39 22.5 -61.5 60.5t-22.5 83v105l52 -24l76 23v-105q0 -16 12 -28t28 -12q17 0 28.5 12t11.5 28v107h128v-104q0 -46 -22.5 -84.5t-61 -61t-84.5 -22.5q-45 0 -84 22.5z" />
    </font>
</defs>
</svg>
